999
DXF created from QGIS
  0
SECTION
  2
HEADER
  9
$ACADVER
  1
AC1015
  9
$EXTMIN
 10
372267.07378104497911409
 20
714198.5030599549645558
 30
0.0
  9
$EXTMAX
 10
372318.23579493397846818
 20
714240.6063139250036329
 30
0.0
  9
$LTSCALE
 40
1.0
  9
$PDMODE
 70
    33
  9
$PDSIZE
 40
     1
  9
$PSLTSCALE
 70
     0
  9
$HANDSEED
  5
9999999
  9
$DWGCODEPAGE
  3

  0
ENDSEC
  0
SECTION
  2
TABLES
  0
TABLE
  2
LTYPE
  5
64
100
AcDbSymbolTable
 70
     5
  0
LTYPE
  5
65
100
AcDbSymbolTableRecord
100
AcDbLinetypeTableRecord
  2
ByLayer
 70
    64
  3
Defaultstyle
 72
    65
 73
     0
 40
0.0
  0
LTYPE
  5
66
100
AcDbSymbolTableRecord
100
AcDbLinetypeTableRecord
  2
ByBlock
 70
    64
  3
Defaultstyle
 72
    65
 73
     0
 40
0.0
  0
LTYPE
  5
67
100
AcDbSymbolTableRecord
100
AcDbLinetypeTableRecord
  2
CONTINUOUS
 70
    64
  3
Defaultstyle
 72
    65
 73
     0
 40
0.0
  0
LTYPE
  5
68
100
AcDbSymbolTableRecord
100
AcDbLinetypeTableRecord
  2
DASH
 70
    64
  3

 72
    65
 73
     2
 40
2600.0
 49
2000.0
 74
     0
 49
-600.0
 74
     0
  0
LTYPE
  5
69
100
AcDbSymbolTableRecord
100
AcDbLinetypeTableRecord
  2
DOT
 70
    64
  3

 72
    65
 73
     2
 40
1200.0
 49
600.0
 74
     0
 49
-600.0
 74
     0
  0
LTYPE
  5
6a
100
AcDbSymbolTableRecord
100
AcDbLinetypeTableRecord
  2
DASHDOT
 70
    64
  3

 72
    65
 73
     4
 40
3800.0
 49
2000.0
 74
     0
 49
-600.0
 74
     0
 49
600.0
 74
     0
 49
-600.0
 74
     0
  0
LTYPE
  5
6b
100
AcDbSymbolTableRecord
100
AcDbLinetypeTableRecord
  2
DASHDOTDOT
 70
    64
  3

 72
    65
 73
     6
 40
5000.0
 49
2000.0
 74
     0
 49
-600.0
 74
     0
 49
600.0
 74
     0
 49
-600.0
 74
     0
 49
600.0
 74
     0
 49
-600.0
 74
     0
  0
ENDTAB
  0
TABLE
  2
BLOCK_RECORD
  5
6c
100
AcDbSymbolTable
 70
     0
  0
BLOCK_RECORD
  5
6d
100
AcDbSymbolTableRecord
100
AcDbBlockTableRecord
  2
*Model_Space
  0
BLOCK_RECORD
  5
6e
100
AcDbSymbolTableRecord
100
AcDbBlockTableRecord
  2
*Paper_Space
  0
BLOCK_RECORD
  5
6f
100
AcDbSymbolTableRecord
100
AcDbBlockTableRecord
  2
*Paper_Space0
  0
BLOCK_RECORD
  5
70
100
AcDbSymbolTableRecord
100
AcDbBlockTableRecord
  2
symbolLayer0
  0
BLOCK_RECORD
  5
71
100
AcDbSymbolTableRecord
100
AcDbBlockTableRecord
  2
symbolLayer1
  0
BLOCK_RECORD
  5
72
100
AcDbSymbolTableRecord
100
AcDbBlockTableRecord
  2
symbolLayer2
  0
ENDTAB
  0
TABLE
  2
APPID
  5
73
100
AcDbSymbolTable
 70
     1
  0
APPID
  5
74
100
AcDbSymbolTableRecord
100
AcDbRegAppTableRecord
  2
ACAD
 70
     0
  0
ENDTAB
  0
TABLE
  2
VIEW
  5
75
100
AcDbSymbolTable
 70
     0
  0
ENDTAB
  0
TABLE
  2
UCS
  5
76
100
AcDbSymbolTable
 70
     0
  0
ENDTAB
  0
TABLE
  2
VPORT
  5
77
100
AcDbSymbolTable
  0
VPORT
  5
78
100
AcDbSymbolTableRecord
100
AcDbViewportTableRecord
  2
*ACTIVE
 70
     0
 10
0.0
 20
0.0
 11
1.0
 21
1.0
 12
0.0
 22
0.0
 13
0.0
 23
0.0
 14
1.0
 24
1.0
 15
1.0
 25
1.0
 16
0.0
 26
0.0
 36
1.0
 17
372292.6547879894496873
 27
714219.55468694004230201
 40
42.1032539700390771
 41
1.21515581492600422
 42
50.0
 43
0.0
 44
0.0
 50
0.0
 51
0.0
 71
     0
 72
   100
 73
     1
 74
     1
 75
     0
 76
     0
 77
     0
 78
     0
281
     0
 65
     1
110
0.0
120
0.0
130
0.0
111
1.0
121
0.0
131
0.0
112
0.0
122
1.0
132
0.0
 79
     0
146
0.0
 70
     0
  0
ENDTAB
  0
TABLE
  2
DIMSTYLE
  5
79
100
AcDbSymbolTable
100
AcDbDimStyleTable
 70
     0
  0
ENDTAB
  0
TABLE
  2
LAYER
  5
7a
100
AcDbSymbolTable
 70
    12
  0
LAYER
  5
7b
100
AcDbSymbolTableRecord
100
AcDbLayerTableRecord
  2
0
 70
    64
 62
     1
  6
CONTINUOUS
390
f
  0
LAYER
  5
7c
100
AcDbSymbolTableRecord
100
AcDbLayerTableRecord
  2
Waste
 70
    64
 62
     1
  6
CONTINUOUS
390
f
  0
LAYER
  5
7d
100
AcDbSymbolTableRecord
100
AcDbLayerTableRecord
  2
Support areas
 70
    64
 62
     1
  6
CONTINUOUS
390
f
  0
LAYER
  5
7e
100
AcDbSymbolTableRecord
100
AcDbLayerTableRecord
  2
boundaries
 70
    64
 62
     1
  6
CONTINUOUS
390
f
  0
LAYER
  5
7f
100
AcDbSymbolTableRecord
100
AcDbLayerTableRecord
  2
Wild Areas
 70
    64
 62
     1
  6
CONTINUOUS
390
f
  0
LAYER
  5
80
100
AcDbSymbolTableRecord
100
AcDbLayerTableRecord
  2
Beds
 70
    64
 62
     1
  6
CONTINUOUS
390
f
  0
LAYER
  5
81
100
AcDbSymbolTableRecord
100
AcDbLayerTableRecord
  2
Iron Daisy Patio
 70
    64
 62
     1
  6
CONTINUOUS
390
f
  0
LAYER
  5
82
100
AcDbSymbolTableRecord
100
AcDbLayerTableRecord
  2
slabs
 70
    64
 62
     1
  6
CONTINUOUS
390
f
  0
LAYER
  5
83
100
AcDbSymbolTableRecord
100
AcDbLayerTableRecord
  2
steps_benches
 70
    64
 62
     1
  6
CONTINUOUS
390
f
  0
LAYER
  5
84
100
AcDbSymbolTableRecord
100
AcDbLayerTableRecord
  2
Water
 70
    64
 62
     1
  6
CONTINUOUS
390
f
  0
LAYER
  5
85
100
AcDbSymbolTableRecord
100
AcDbLayerTableRecord
  2
PLanters & Monuments
 70
    64
 62
     1
  6
CONTINUOUS
390
f
  0
LAYER
  5
86
100
AcDbSymbolTableRecord
100
AcDbLayerTableRecord
  2
Trees
 70
    64
 62
     1
  6
CONTINUOUS
390
f
  0
ENDTAB
  0
TABLE
  2
STYLE
  5
87
100
AcDbSymbolTable
 70
     1
  0
STYLE
  5
88
100
AcDbSymbolTableRecord
100
AcDbTextStyleTableRecord
  2
STANDARD
 70
    64
 40
0.0
 41
1.0
 50
0.0
 71
     0
 42
5.0
  3
romans.shx
  4

  0
ENDTAB
  0
ENDSEC
  0
SECTION
  2
BLOCKS
  0
BLOCK
  5
89
330
6d
100
AcDbEntity
  8
0
100
AcDbBlockBegin
  2
*Model_Space
 70
     0
 10
0.0
 20
0.0
 30
0.0
  3
*Model_Space
  1

  0
ENDBLK
  5
8a
100
AcDbEntity
  8
0
100
AcDbBlockEnd
  0
BLOCK
  5
8b
330
6e
100
AcDbEntity
  8
0
100
AcDbBlockBegin
  2
*Paper_Space
 70
     0
 10
0.0
 20
0.0
 30
0.0
  3
*Paper_Space
  1

  0
ENDBLK
  5
8c
100
AcDbEntity
  8
0
100
AcDbBlockEnd
  0
BLOCK
  5
8d
330
6f
100
AcDbEntity
  8
0
100
AcDbBlockBegin
  2
*Paper_Space0
 70
     0
 10
0.0
 20
0.0
 30
0.0
  3
*Paper_Space0
  1

  0
ENDBLK
  5
8e
100
AcDbEntity
  8
0
100
AcDbBlockEnd
  0
BLOCK
  5
8f
330
70
100
AcDbEntity
  8
0
100
AcDbBlockBegin
  2
symbolLayer0
 70
     0
 10
0.0
 20
0.0
 30
0.0
  3
symbolLayer0
  1

  0
HATCH
  5
90
330
70
100
AcDbEntity
  8
0
420
10776920
440
33554432
100
AcDbHatch
 10
0.0
 20
0.0
 30
0.0
210
0.0
220
0.0
230
1.0
  2
SOLID
 70
     1
 71
     0
 91
     1
 92
     3
 72
     1
 73
     1
 93
     2
 10
-0.29999999999999999
 20
0.0
 42
1.0
 10
0.29999999999999999
 20
0.0
 42
1.0
 97
     0
 75
     0
 76
     1
 98
     0
  0
LWPOLYLINE
  5
91
330
70
  8
0
100
AcDbEntity
100
AcDbPolyline
  6
CONTINUOUS
420
1935360
 90
     2
 70
     1
 43
1.99999999999999933
 10
-0.29999999999999999
 20
0.0
 42
1.0
 10
0.29999999999999999
 20
0.0
 42
1.0
  0
ENDBLK
  5
92
100
AcDbEntity
  8
0
100
AcDbBlockEnd
  0
BLOCK
  5
93
330
71
100
AcDbEntity
  8
0
100
AcDbBlockBegin
  2
symbolLayer1
 70
     0
 10
0.0
 20
0.0
 30
0.0
  3
symbolLayer1
  1

  0
HATCH
  5
94
330
71
100
AcDbEntity
  8
0
420
10776920
440
33554432
100
AcDbHatch
 10
0.0
 20
0.0
 30
0.0
210
0.0
220
0.0
230
1.0
  2
SOLID
 70
     1
 71
     0
 91
     1
 92
     3
 72
     1
 73
     1
 93
     2
 10
-1.09999999999999964
 20
0.0
 42
1.0
 10
1.09999999999999964
 20
0.0
 42
1.0
 97
     0
 75
     0
 76
     1
 98
     0
  0
LWPOLYLINE
  5
95
330
71
  8
0
100
AcDbEntity
100
AcDbPolyline
  6
CONTINUOUS
420
1935360
 90
     2
 70
     1
 43
1.99999999999999933
 10
-1.09999999999999964
 20
0.0
 42
1.0
 10
1.09999999999999964
 20
0.0
 42
1.0
  0
ENDBLK
  5
96
100
AcDbEntity
  8
0
100
AcDbBlockEnd
  0
BLOCK
  5
97
330
72
100
AcDbEntity
  8
0
100
AcDbBlockBegin
  2
symbolLayer2
 70
     0
 10
0.0
 20
0.0
 30
0.0
  3
symbolLayer2
  1

  0
ENDBLK
  5
98
100
AcDbEntity
  8
0
100
AcDbBlockEnd
  0
ENDSEC
  0
SECTION
  2
ENTITIES
  0
LWPOLYLINE
  5
99
  8
slabs
100
AcDbEntity
100
AcDbPolyline
  6
CONTINUOUS
420
16722451
 90
     5
 70
   129
 43
260.0
 10
372300.58899999997811392
 20
714239.69909999996889383
 10
372307.59899999998742715
 20
714239.69909999996889383
 10
372307.5989435602677986
 20
714223.23994579655118287
 10
372300.58894356025848538
 20
714223.23994579655118287
 10
372300.58899999997811392
 20
714239.69909999996889383
  0
HATCH
  5
9a
330
6d
100
AcDbEntity
  8
slabs
420
14408667
100
AcDbHatch
 10
0.0
 20
0.0
 30
0.0
210
0.0
220
0.0
230
1.0
  2
SOLID
 70
     1
 71
     0
 91
     1
 92
     2
 72
     0
 73
     1
 93
     5
 10
372300.58899999997811392
 20
714239.69909999996889383
 10
372307.59899999998742715
 20
714239.69909999996889383
 10
372307.5989435602677986
 20
714223.23994579655118287
 10
372300.58894356025848538
 20
714223.23994579655118287
 10
372300.58899999997811392
 20
714239.69909999996889383
 97
     0
 75
     0
 76
     1
 98
     0
  0
LWPOLYLINE
  5
9b
  8
slabs
100
AcDbEntity
100
AcDbPolyline
  6
CONTINUOUS
420
16722451
 90
     6
 70
   129
 43
260.0
 10
372307.59888712054817006
 20
714223.2401151160011068
 10
372315.11688712058821693
 20
714223.2401151160011068
 10
372315.11700000002747402
 20
714237.87029999971855432
 10
372313.27087899844627827
 20
714239.69909999996889383
 10
372307.59899999998742715
 20
714239.69909999996889383
 10
372307.59888712054817006
 20
714223.2401151160011068
  0
HATCH
  5
9c
330
6d
100
AcDbEntity
  8
slabs
420
14408667
100
AcDbHatch
 10
0.0
 20
0.0
 30
0.0
210
0.0
220
0.0
230
1.0
  2
SOLID
 70
     1
 71
     0
 91
     1
 92
     2
 72
     0
 73
     1
 93
     6
 10
372307.59888712054817006
 20
714223.2401151160011068
 10
372315.11688712058821693
 20
714223.2401151160011068
 10
372315.11700000002747402
 20
714237.87029999971855432
 10
372313.27087899844627827
 20
714239.69909999996889383
 10
372307.59899999998742715
 20
714239.69909999996889383
 10
372307.59888712054817006
 20
714223.2401151160011068
 97
     0
 75
     0
 76
     1
 98
     0
  0
LWPOLYLINE
  5
9d
  8
slabs
100
AcDbEntity
100
AcDbPolyline
  6
CONTINUOUS
420
16722451
 90
     5
 70
   129
 43
260.0
 10
372300.58897178014740348
 20
714223.23997401644010097
 10
372315.11688712058821693
 20
714223.2401151160011068
 10
372315.11700000002747402
 20
714219.58200000005308539
 10
372300.58899999997811392
 20
714219.58200000005308539
 10
372300.58897178014740348
 20
714223.23997401644010097
  0
HATCH
  5
9e
330
6d
100
AcDbEntity
  8
slabs
420
14408667
100
AcDbHatch
 10
0.0
 20
0.0
 30
0.0
210
0.0
220
0.0
230
1.0
  2
SOLID
 70
     1
 71
     0
 91
     1
 92
     2
 72
     0
 73
     1
 93
     5
 10
372300.58897178014740348
 20
714223.23997401644010097
 10
372315.11688712058821693
 20
714223.2401151160011068
 10
372315.11700000002747402
 20
714219.58200000005308539
 10
372300.58899999997811392
 20
714219.58200000005308539
 10
372300.58897178014740348
 20
714223.23997401644010097
 97
     0
 75
     0
 76
     1
 98
     0
  0
LWPOLYLINE
  5
9f
  8
boundaries
100
AcDbEntity
100
AcDbPolyline
  6
CONTINUOUS
420
16740608
 90
     6
 70
   129
 43
260.0
 10
372267.14360000001033768
 20
714239.69909999996889383
 10
372282.99319999915314838
 20
714239.69909999996889383
 10
372282.86839764990145341
 20
714219.57566337822936475
 10
372282.89634485298302025
 20
714213.98282016557641327
 10
372267.07378104497911409
 20
714214.02608104143291712
 10
372267.14360000001033768
 20
714239.69909999996889383
  0
HATCH
  5
a0
330
6d
100
AcDbEntity
  8
boundaries
420
10776920
440
33554432
100
AcDbHatch
 10
0.0
 20
0.0
 30
0.0
210
0.0
220
0.0
230
1.0
  2
SOLID
 70
     1
 71
     0
 91
     1
 92
     2
 72
     0
 73
     1
 93
     6
 10
372267.14360000001033768
 20
714239.69909999996889383
 10
372282.99319999915314838
 20
714239.69909999996889383
 10
372282.86839764990145341
 20
714219.57566337822936475
 10
372282.89634485298302025
 20
714213.98282016557641327
 10
372267.07378104497911409
 20
714214.02608104143291712
 10
372267.14360000001033768
 20
714239.69909999996889383
 97
     0
 75
     0
 76
     1
 98
     0
  0
LWPOLYLINE
  5
a1
  8
boundaries
100
AcDbEntity
100
AcDbPolyline
  6
CONTINUOUS
420
16740608
 90
     5
 70
   129
 43
260.0
 10
372282.99319999915314838
 20
714239.69909999996889383
 10
372293.66119999857619405
 20
714239.69909999996889383
 10
372293.57249360292917117
 20
714219.58586037834174931
 10
372282.86839764990145341
 20
714219.58229999721515924
 10
372282.99319999915314838
 20
714239.69909999996889383
  0
HATCH
  5
a2
330
6d
100
AcDbEntity
  8
boundaries
420
10776920
440
33554432
100
AcDbHatch
 10
0.0
 20
0.0
 30
0.0
210
0.0
220
0.0
230
1.0
  2
SOLID
 70
     1
 71
     0
 91
     1
 92
     2
 72
     0
 73
     1
 93
     5
 10
372282.99319999915314838
 20
714239.69909999996889383
 10
372293.66119999857619405
 20
714239.69909999996889383
 10
372293.57249360292917117
 20
714219.58586037834174931
 10
372282.86839764990145341
 20
714219.58229999721515924
 10
372282.99319999915314838
 20
714239.69909999996889383
 97
     0
 75
     0
 76
     1
 98
     0
  0
LWPOLYLINE
  5
a3
  8
boundaries
100
AcDbEntity
100
AcDbPolyline
  6
CONTINUOUS
420
16740608
 90
     5
 70
   129
 43
260.0
 10
372300.58899999764980748
 20
714219.58229999721515924
 10
372300.58899999997811392
 20
714239.69909999996889383
 10
372315.11700000002747402
 20
714239.69909999996889383
 10
372315.11700000002747402
 20
714219.58200000005308539
 10
372300.58899999764980748
 20
714219.58229999721515924
  0
HATCH
  5
a4
330
6d
100
AcDbEntity
  8
boundaries
420
10776920
440
33554432
100
AcDbHatch
 10
0.0
 20
0.0
 30
0.0
210
0.0
220
0.0
230
1.0
  2
SOLID
 70
     1
 71
     0
 91
     1
 92
     2
 72
     0
 73
     1
 93
     5
 10
372300.58899999764980748
 20
714219.58229999721515924
 10
372300.58899999997811392
 20
714239.69909999996889383
 10
372315.11700000002747402
 20
714239.69909999996889383
 10
372315.11700000002747402
 20
714219.58200000005308539
 10
372300.58899999764980748
 20
714219.58229999721515924
 97
     0
 75
     0
 76
     1
 98
     0
  0
LWPOLYLINE
  5
a5
  8
boundaries
100
AcDbEntity
100
AcDbPolyline
  6
CONTINUOUS
420
16740608
 90
     5
 70
   129
 43
260.0
 10
372293.66119999857619405
 20
714239.69909999996889383
 10
372300.58899999997811392
 20
714239.69909999996889383
 10
372300.58899999997811392
 20
714219.58200000005308539
 10
372293.66119999857619405
 20
714219.58229999721515924
 10
372293.66119999857619405
 20
714239.69909999996889383
  0
HATCH
  5
a6
330
6d
100
AcDbEntity
  8
boundaries
420
10776920
440
33554432
100
AcDbHatch
 10
0.0
 20
0.0
 30
0.0
210
0.0
220
0.0
230
1.0
  2
SOLID
 70
     1
 71
     0
 91
     1
 92
     2
 72
     0
 73
     1
 93
     5
 10
372293.66119999857619405
 20
714239.69909999996889383
 10
372300.58899999997811392
 20
714239.69909999996889383
 10
372300.58899999997811392
 20
714219.58200000005308539
 10
372293.66119999857619405
 20
714219.58229999721515924
 10
372293.66119999857619405
 20
714239.69909999996889383
 97
     0
 75
     0
 76
     1
 98
     0
  0
LWPOLYLINE
  5
a7
  8
boundaries
100
AcDbEntity
100
AcDbPolyline
  6
CONTINUOUS
420
16740608
 90
    14
 70
   129
 43
260.0
 10
372282.86839764990145341
 20
714219.58230001095216721
 10
372282.97202315233880654
 20
714198.64497937564738095
 10
372291.88887186086503789
 20
714198.50305995473172516
 10
372293.95922576519660652
 20
714199.83877215103711933
 10
372313.49401663680328056
 20
714200.10591459029819816
 10
372314.86312163807451725
 20
714202.10948288475628942
 10
372316.36579785891808569
 20
714203.6789447155315429
 10
372318.2357949338038452
 20
714203.84590874006971717
 10
372318.13561651908094063
 20
714210.45768411201424897
 10
372317.46776042092824355
 20
714210.09036325803026557
 10
372315.39892919780686498
 20
714210.39937713788822293
 10
372315.12714790040627122
 20
714211.32589703961275518
 10
372315.11700000002747402
 20
714219.58229999721515924
 10
372282.86839764990145341
 20
714219.58230001095216721
  0
HATCH
  5
a8
330
6d
100
AcDbEntity
  8
boundaries
420
10776920
440
33554432
100
AcDbHatch
 10
0.0
 20
0.0
 30
0.0
210
0.0
220
0.0
230
1.0
  2
SOLID
 70
     1
 71
     0
 91
     1
 92
     2
 72
     0
 73
     1
 93
    14
 10
372282.86839764990145341
 20
714219.58230001095216721
 10
372282.97202315233880654
 20
714198.64497937564738095
 10
372291.88887186086503789
 20
714198.50305995473172516
 10
372293.95922576519660652
 20
714199.83877215103711933
 10
372313.49401663680328056
 20
714200.10591459029819816
 10
372314.86312163807451725
 20
714202.10948288475628942
 10
372316.36579785891808569
 20
714203.6789447155315429
 10
372318.2357949338038452
 20
714203.84590874006971717
 10
372318.13561651908094063
 20
714210.45768411201424897
 10
372317.46776042092824355
 20
714210.09036325803026557
 10
372315.39892919780686498
 20
714210.39937713788822293
 10
372315.12714790040627122
 20
714211.32589703961275518
 10
372315.11700000002747402
 20
714219.58229999721515924
 10
372282.86839764990145341
 20
714219.58230001095216721
 97
     0
 75
     0
 76
     1
 98
     0
  0
HATCH
  5
a9
330
6d
100
AcDbEntity
  8
Support areas
420
8882923
100
AcDbHatch
 10
0.0
 20
0.0
 30
0.0
210
0.0
220
0.0
230
1.0
  2
SOLID
 70
     1
 71
     0
 91
     1
 92
     2
 72
     0
 73
     1
 93
     5
 10
372309.64708369300933555
 20
714224.15429999784100801
 10
372309.64533902361290529
 20
714223.2401151160011068
 10
372315.11688712058821693
 20
714223.2401151160011068
 10
372315.11700000002747402
 20
714224.15429999784100801
 10
372309.64708369300933555
 20
714224.15429999784100801
 97
     0
 75
     0
 76
     1
 98
     0
  0
HATCH
  5
aa
330
6d
100
AcDbEntity
  8
Support areas
420
8882923
100
AcDbHatch
 10
0.0
 20
0.0
 30
0.0
210
0.0
220
0.0
230
1.0
  2
SOLID
 70
     1
 71
     0
 91
     1
 92
     2
 72
     0
 73
     1
 93
     5
 10
372313.89716898580081761
 20
714229.64065003511495888
 10
372315.09395303972996771
 20
714229.64069999859202653
 10
372315.11689339025178924
 20
714224.15429999784100801
 10
372313.90962109219981357
 20
714224.15301309642381966
 10
372313.89716898580081761
 20
714229.64065003511495888
 97
     0
 75
     0
 76
     1
 98
     0
  0
HATCH
  5
ab
330
6d
100
AcDbEntity
  8
Support areas
420
8882923
100
AcDbHatch
 10
0.0
 20
0.0
 30
0.0
210
0.0
220
0.0
230
1.0
  2
SOLID
 70
     1
 71
     0
 91
     1
 92
     2
 72
     0
 73
     1
 93
     5
 10
372309.42769999988377094
 20
714239.69909999996889383
 10
372311.25649999978486449
 20
714239.69909999996889383
 10
372311.25649999978486449
 20
714238.78469999984372407
 10
372309.42769999988377094
 20
714238.78469999984372407
 10
372309.42769999988377094
 20
714239.69909999996889383
 97
     0
 75
     0
 76
     1
 98
     0
  0
HATCH
  5
ac
330
6d
100
AcDbEntity
  8
Support areas
420
8882923
100
AcDbHatch
 10
0.0
 20
0.0
 30
0.0
210
0.0
220
0.0
230
1.0
  2
SOLID
 70
     1
 71
     0
 91
     1
 92
     2
 72
     0
 73
     1
 93
     5
 10
372313.89796010626014322
 20
714232.07896676298696548
 10
372315.11700000002747402
 20
714232.07909999892581254
 10
372315.1149669736623764
 20
714233.56875404249876738
 10
372313.89734475448494777
 20
714233.5655258015030995
 10
372313.89796010626014322
 20
714232.07896676298696548
 97
     0
 75
     0
 76
     1
 98
     0
  0
LWPOLYLINE
  5
ad
  8
Water
100
AcDbEntity
100
AcDbPolyline
  6
CONTINUOUS
420
2302755
 90
    19
 70
   129
 43
260.0
 10
372308.63232366408919916
 20
714233.71907111909240484
 10
372308.52675221191020682
 20
714233.78891600645147264
 10
372308.38699744094628841
 20
714233.82244757795706391
 10
372308.27139829518273473
 20
714233.82363118673674762
 10
372308.1725298622623086
 20
714233.78233134013134986
 10
372308.07713630411308259
 20
714233.7205025868024677
 10
372308.01515077584190294
 20
714233.62649518589023501
 10
372307.98720600974047557
 20
714233.50227192940656096
 10
372308.01977957237977535
 20
714233.3811689626891166
 10
372308.04956043523270637
 20
714233.28642382856924087
 10
372308.14784294669516385
 20
714233.19756002840586007
 10
372308.25580968882422894
 20
714233.15571935963816941
 10
372308.40551262762164697
 20
714233.16207258740905672
 10
372308.54000197426648811
 20
714233.19529043743386865
 10
372308.64312418963527307
 20
714233.28087836841586977
 10
372308.6874941730638966
 20
714233.37635809613857418
 10
372308.69249802071135491
 20
714233.4907171503873542
 10
372308.68149855523370206
 20
714233.61069351842161268
 10
372308.63232366408919916
 20
714233.71907111909240484
  0
HATCH
  5
ae
330
6d
100
AcDbEntity
  8
Water
420
3588848
100
AcDbHatch
 10
0.0
 20
0.0
 30
0.0
210
0.0
220
0.0
230
1.0
  2
SOLID
 70
     1
 71
     0
 91
     1
 92
     2
 72
     0
 73
     1
 93
    19
 10
372308.63232366408919916
 20
714233.71907111909240484
 10
372308.52675221191020682
 20
714233.78891600645147264
 10
372308.38699744094628841
 20
714233.82244757795706391
 10
372308.27139829518273473
 20
714233.82363118673674762
 10
372308.1725298622623086
 20
714233.78233134013134986
 10
372308.07713630411308259
 20
714233.7205025868024677
 10
372308.01515077584190294
 20
714233.62649518589023501
 10
372307.98720600974047557
 20
714233.50227192940656096
 10
372308.01977957237977535
 20
714233.3811689626891166
 10
372308.04956043523270637
 20
714233.28642382856924087
 10
372308.14784294669516385
 20
714233.19756002840586007
 10
372308.25580968882422894
 20
714233.15571935963816941
 10
372308.40551262762164697
 20
714233.16207258740905672
 10
372308.54000197426648811
 20
714233.19529043743386865
 10
372308.64312418963527307
 20
714233.28087836841586977
 10
372308.6874941730638966
 20
714233.37635809613857418
 10
372308.69249802071135491
 20
714233.4907171503873542
 10
372308.68149855523370206
 20
714233.61069351842161268
 10
372308.63232366408919916
 20
714233.71907111909240484
 97
     0
 75
     0
 76
     1
 98
     0
  0
LWPOLYLINE
  5
af
  8
Water
100
AcDbEntity
100
AcDbPolyline
  6
CONTINUOUS
420
2302755
 90
     5
 70
   129
 43
260.0
 10
372293.59777111187577248
 20
714228.92431207140907645
 10
372293.60008551029022783
 20
714228.3823692116420716
 10
372293.27529827778926119
 20
714228.37542601663153619
 10
372293.26758361660176888
 20
714228.92401229066308588
 10
372293.59777111187577248
 20
714228.92431207140907645
  0
HATCH
  5
b0
330
6d
100
AcDbEntity
  8
Water
420
3588848
100
AcDbHatch
 10
0.0
 20
0.0
 30
0.0
210
0.0
220
0.0
230
1.0
  2
SOLID
 70
     1
 71
     0
 91
     1
 92
     2
 72
     0
 73
     1
 93
     5
 10
372293.59777111187577248
 20
714228.92431207140907645
 10
372293.60008551029022783
 20
714228.3823692116420716
 10
372293.27529827778926119
 20
714228.37542601663153619
 10
372293.26758361660176888
 20
714228.92401229066308588
 10
372293.59777111187577248
 20
714228.92431207140907645
 97
     0
 75
     0
 76
     1
 98
     0
  0
LWPOLYLINE
  5
b1
  8
Waste
100
AcDbEntity
100
AcDbPolyline
  6
CONTINUOUS
420
814591
 90
     6
 70
   129
 43
460.00000000000011369
 10
372313.89775531797204167
 20
714232.07909999892581254
 10
372315.11695531790610403
 20
714232.07909999892581254
 10
372315.11695531790610403
 20
714230.84902631433214992
 10
372315.10981820622691885
 20
714230.84811322973109782
 10
372313.89775531797204167
 20
714230.8573745156172663
 10
372313.89775531797204167
 20
714232.07909999892581254
  0
HATCH
  5
b2
330
6d
100
AcDbEntity
  8
Waste
420
963275
100
AcDbHatch
 10
0.0
 20
0.0
 30
0.0
210
0.0
220
0.0
230
1.0
  2
SOLID
 70
     1
 71
     0
 91
     1
 92
     2
 72
     0
 73
     1
 93
     6
 10
372313.89775531797204167
 20
714232.07909999892581254
 10
372315.11695531790610403
 20
714232.07909999892581254
 10
372315.11695531790610403
 20
714230.84902631433214992
 10
372315.10981820622691885
 20
714230.84811322973109782
 10
372313.89775531797204167
 20
714230.8573745156172663
 10
372313.89775531797204167
 20
714232.07909999892581254
 97
     0
 75
     0
 76
     1
 98
     0
  0
LWPOLYLINE
  5
b3
  8
Waste
100
AcDbEntity
100
AcDbPolyline
  6
CONTINUOUS
420
814591
 90
     7
 70
   129
 43
460.00000000000011369
 10
372313.89775531797204167
 20
714230.85607010929379612
 10
372315.10981820622691885
 20
714230.84811322973109782
 10
372315.11695531790610403
 20
714230.84811322973109782
 10
372315.11695531790610403
 20
714229.64069999859202653
 10
372315.10786181106232107
 20
714229.63706009904854
 10
372313.89722300315042958
 20
714229.64069999859202653
 10
372313.89775531797204167
 20
714230.85607010929379612
  0
HATCH
  5
b4
330
6d
100
AcDbEntity
  8
Waste
420
963275
100
AcDbHatch
 10
0.0
 20
0.0
 30
0.0
210
0.0
220
0.0
230
1.0
  2
SOLID
 70
     1
 71
     0
 91
     1
 92
     2
 72
     0
 73
     1
 93
     7
 10
372313.89775531797204167
 20
714230.85607010929379612
 10
372315.10981820622691885
 20
714230.84811322973109782
 10
372315.11695531790610403
 20
714230.84811322973109782
 10
372315.11695531790610403
 20
714229.64069999859202653
 10
372315.10786181106232107
 20
714229.63706009904854
 10
372313.89722300315042958
 20
714229.64069999859202653
 10
372313.89775531797204167
 20
714230.85607010929379612
 97
     0
 75
     0
 76
     1
 98
     0
  0
LWPOLYLINE
  5
b5
  8
Waste
100
AcDbEntity
100
AcDbPolyline
  6
CONTINUOUS
420
814591
 90
    10
 70
   129
 43
460.00000000000011369
 10
372310.8821022966876626
 20
714220.92684408999048173
 10
372310.84480802359757945
 20
714219.58230568037834018
 10
372315.11700000002747402
 20
714219.58229999721515924
 10
372315.11688712722389027
 20
714223.23989999771583825
 10
372314.00877628731541336
 20
714223.23989999771583825
 10
372313.95660002983640879
 20
714221.7006560581503436
 10
372313.82302881020586938
 20
714221.35629275790415704
 10
372313.61014967900700867
 20
714221.13089132483582944
 10
372313.14682451105909422
 20
714221.01819060835987329
 10
372310.8821022966876626
 20
714220.92684408999048173
  0
HATCH
  5
b6
330
6d
100
AcDbEntity
  8
Waste
420
15511056
100
AcDbHatch
 10
0.0
 20
0.0
 30
0.0
210
0.0
220
0.0
230
1.0
  2
SOLID
 70
     1
 71
     0
 91
     1
 92
     2
 72
     0
 73
     1
 93
    10
 10
372310.8821022966876626
 20
714220.92684408999048173
 10
372310.84480802359757945
 20
714219.58230568037834018
 10
372315.11700000002747402
 20
714219.58229999721515924
 10
372315.11688712722389027
 20
714223.23989999771583825
 10
372314.00877628731541336
 20
714223.23989999771583825
 10
372313.95660002983640879
 20
714221.7006560581503436
 10
372313.82302881020586938
 20
714221.35629275790415704
 10
372313.61014967900700867
 20
714221.13089132483582944
 10
372313.14682451105909422
 20
714221.01819060835987329
 10
372310.8821022966876626
 20
714220.92684408999048173
 97
     0
 75
     0
 76
     1
 98
     0
  0
LWPOLYLINE
  5
b7
  8
Waste
100
AcDbEntity
100
AcDbPolyline
  6
CONTINUOUS
420
814591
 90
     5
 70
   129
 43
460.00000000000011369
 10
372310.07015219668392092
 20
714217.22325210610870272
 10
372312.16241886821808293
 20
714217.80398359708487988
 10
372312.89706057595321909
 20
714215.39135344326496124
 10
372310.80702245532302186
 20
714214.73017439758405089
 10
372310.07015219668392092
 20
714217.22325210610870272
  0
HATCH
  5
b8
330
6d
100
AcDbEntity
  8
Waste
420
6299616
100
AcDbHatch
 10
0.0
 20
0.0
 30
0.0
210
0.0
220
0.0
230
1.0
  2
SOLID
 70
     1
 71
     0
 91
     1
 92
     2
 72
     0
 73
     1
 93
     5
 10
372310.07015219668392092
 20
714217.22325210610870272
 10
372312.16241886821808293
 20
714217.80398359708487988
 10
372312.89706057595321909
 20
714215.39135344326496124
 10
372310.80702245532302186
 20
714214.73017439758405089
 10
372310.07015219668392092
 20
714217.22325210610870272
 97
     0
 75
     0
 76
     1
 98
     0
  0
LWPOLYLINE
  5
b9
  8
Waste
100
AcDbEntity
100
AcDbPolyline
  6
CONTINUOUS
420
814591
 90
    15
 70
   129
 43
460.00000000000011369
 10
372311.691157903871499
 20
714240.41430529695935547
 10
372311.63733814883744344
 20
714240.21606464614160359
 10
372311.67446150141768157
 20
714240.0219398393528536
 10
372311.79442333616316319
 20
714239.86361659539397806
 10
372311.96664854430127889
 20
714239.77149380266200751
 10
372312.20932009047828615
 20
714239.76169109216425568
 10
372312.42579961160663515
 20
714239.83827941247727722
 10
372312.51509660016745329
 20
714240.01830353552941233
 10
372312.54267442878335714
 20
714240.22229666879866272
 10
372312.49706073425477371
 20
714240.38888173026498407
 10
372312.40075500798411667
 20
714240.49778730911202729
 10
372312.17624495539348572
 20
714240.5902854772284627
 10
372311.96664854430127889
 20
714240.60631392512004822
 10
372311.81351929990341887
 20
714240.53503577969968319
 10
372311.691157903871499
 20
714240.41430529695935547
  0
HATCH
  5
ba
330
6d
100
AcDbEntity
  8
Waste
420
6299616
100
AcDbHatch
 10
0.0
 20
0.0
 30
0.0
210
0.0
220
0.0
230
1.0
  2
SOLID
 70
     1
 71
     0
 91
     1
 92
     2
 72
     0
 73
     1
 93
    15
 10
372311.691157903871499
 20
714240.41430529695935547
 10
372311.63733814883744344
 20
714240.21606464614160359
 10
372311.67446150141768157
 20
714240.0219398393528536
 10
372311.79442333616316319
 20
714239.86361659539397806
 10
372311.96664854430127889
 20
714239.77149380266200751
 10
372312.20932009047828615
 20
714239.76169109216425568
 10
372312.42579961160663515
 20
714239.83827941247727722
 10
372312.51509660016745329
 20
714240.01830353552941233
 10
372312.54267442878335714
 20
714240.22229666879866272
 10
372312.49706073425477371
 20
714240.38888173026498407
 10
372312.40075500798411667
 20
714240.49778730911202729
 10
372312.17624495539348572
 20
714240.5902854772284627
 10
372311.96664854430127889
 20
714240.60631392512004822
 10
372311.81351929990341887
 20
714240.53503577969968319
 10
372311.691157903871499
 20
714240.41430529695935547
 97
     0
 75
     0
 76
     1
 98
     0
  0
LWPOLYLINE
  5
bb
  8
Waste
100
AcDbEntity
100
AcDbPolyline
  6
CONTINUOUS
420
814591
 90
     5
 70
   129
 43
460.00000000000011369
 10
372300.58899999997811392
 20
714223.23997401667293161
 10
372301.80819999991217628
 20
714223.23998585797380656
 10
372301.80819999991217628
 20
714224.45909999788273126
 10
372300.59056436188984662
 20
714224.45909999788273126
 10
372300.58899999997811392
 20
714223.23997401667293161
  0
HATCH
  5
bc
330
6d
100
AcDbEntity
  8
Waste
420
15548994
100
AcDbHatch
 10
0.0
 20
0.0
 30
0.0
210
0.0
220
0.0
230
1.0
  2
SOLID
 70
     1
 71
     0
 91
     1
 92
     2
 72
     0
 73
     1
 93
     5
 10
372300.58899999997811392
 20
714223.23997401667293161
 10
372301.80819999991217628
 20
714223.23998585797380656
 10
372301.80819999991217628
 20
714224.45909999788273126
 10
372300.59056436188984662
 20
714224.45909999788273126
 10
372300.58899999997811392
 20
714223.23997401667293161
 97
     0
 75
     0
 76
     1
 98
     0
  0
LWPOLYLINE
  5
bd
  8
steps_benches
100
AcDbEntity
100
AcDbPolyline
  6
CONTINUOUS
420
2302755
 90
     5
 70
   129
 43
260.0
 10
372308.92487038375111297
 20
714228.72637655085418373
 10
372309.12289999990025535
 20
714228.72629999846685678
 10
372309.12289999990025535
 20
714226.89749999821651727
 10
372308.92487038375111297
 20
714226.89749999821651727
 10
372308.92487038375111297
 20
714228.72637655085418373
  0
HATCH
  5
be
330
6d
100
AcDbEntity
  8
steps_benches
420
16752151
100
AcDbHatch
 10
0.0
 20
0.0
 30
0.0
210
0.0
220
0.0
230
1.0
  2
SOLID
 70
     1
 71
     0
 91
     1
 92
     2
 72
     0
 73
     1
 93
     5
 10
372308.92487038375111297
 20
714228.72637655085418373
 10
372309.12289999990025535
 20
714228.72629999846685678
 10
372309.12289999990025535
 20
714226.89749999821651727
 10
372308.92487038375111297
 20
714226.89749999821651727
 10
372308.92487038375111297
 20
714228.72637655085418373
 97
     0
 75
     0
 76
     1
 98
     0
  0
LWPOLYLINE
  5
bf
  8
steps_benches
100
AcDbEntity
100
AcDbPolyline
  6
CONTINUOUS
420
2302755
 90
     5
 70
   129
 43
260.0
 10
372307.59959971148055047
 20
714225.7899235812947154
 10
372307.2936789125087671
 20
714225.7899235812947154
 10
372307.28882571327267215
 20
714225.30070200911723077
 10
372307.5988999999826774
 20
714225.30070200911723077
 10
372307.59959971148055047
 20
714225.7899235812947154
  0
HATCH
  5
c0
330
6d
100
AcDbEntity
  8
steps_benches
420
16752151
100
AcDbHatch
 10
0.0
 20
0.0
 30
0.0
210
0.0
220
0.0
230
1.0
  2
SOLID
 70
     1
 71
     0
 91
     1
 92
     2
 72
     0
 73
     1
 93
     5
 10
372307.59959971148055047
 20
714225.7899235812947154
 10
372307.2936789125087671
 20
714225.7899235812947154
 10
372307.28882571327267215
 20
714225.30070200911723077
 10
372307.5988999999826774
 20
714225.30070200911723077
 10
372307.59959971148055047
 20
714225.7899235812947154
 97
     0
 75
     0
 76
     1
 98
     0
  0
LWPOLYLINE
  5
c1
  8
steps_benches
100
AcDbEntity
100
AcDbPolyline
  6
CONTINUOUS
420
2302755
 90
     5
 70
   129
 43
260.0
 10
372307.29459999961545691
 20
714239.02323765296023339
 10
372307.5988999999826774
 20
714239.02323765296023339
 10
372307.5988999999826774
 20
714238.24964514002203941
 10
372307.29459999961545691
 20
714238.24964514002203941
 10
372307.29459999961545691
 20
714239.02323765296023339
  0
HATCH
  5
c2
330
6d
100
AcDbEntity
  8
steps_benches
420
16752151
100
AcDbHatch
 10
0.0
 20
0.0
 30
0.0
210
0.0
220
0.0
230
1.0
  2
SOLID
 70
     1
 71
     0
 91
     1
 92
     2
 72
     0
 73
     1
 93
     5
 10
372307.29459999961545691
 20
714239.02323765296023339
 10
372307.5988999999826774
 20
714239.02323765296023339
 10
372307.5988999999826774
 20
714238.24964514002203941
 10
372307.29459999961545691
 20
714238.24964514002203941
 10
372307.29459999961545691
 20
714239.02323765296023339
 97
     0
 75
     0
 76
     1
 98
     0
  0
LWPOLYLINE
  5
c3
  8
steps_benches
100
AcDbEntity
100
AcDbPolyline
  6
CONTINUOUS
420
2302755
 90
     5
 70
   129
 43
260.0
 10
372308.85168179922038689
 20
714229.26115732232574373
 10
372309.11886950489133596
 20
714229.26237062213476747
 10
372309.11765620508231223
 20
714228.97698341903742403
 10
372308.85046849941136315
 20
714228.97577011922840029
 10
372308.85168179922038689
 20
714229.26115732232574373
  0
HATCH
  5
c4
330
6d
100
AcDbEntity
  8
steps_benches
420
16752151
100
AcDbHatch
 10
0.0
 20
0.0
 30
0.0
210
0.0
220
0.0
230
1.0
  2
SOLID
 70
     1
 71
     0
 91
     1
 92
     2
 72
     0
 73
     1
 93
     5
 10
372308.85168179922038689
 20
714229.26115732232574373
 10
372309.11886950489133596
 20
714229.26237062213476747
 10
372309.11765620508231223
 20
714228.97698341903742403
 10
372308.85046849941136315
 20
714228.97577011922840029
 10
372308.85168179922038689
 20
714229.26115732232574373
 97
     0
 75
     0
 76
     1
 98
     0
  0
LWPOLYLINE
  5
c5
  8
steps_benches
100
AcDbEntity
100
AcDbPolyline
  6
CONTINUOUS
420
2302755
 90
    10
 70
   129
 43
260.0
 10
372307.3660273544373922
 20
714228.1125751145882532
 10
372307.26727969228522852
 20
714228.04057161090895534
 10
372307.24876450566807762
 20
714227.92330876213964075
 10
372307.25699347752379254
 20
714227.80398867034818977
 10
372307.37631356925703585
 20
714227.73198516678530723
 10
372307.48329020320670679
 20
714227.75255759642459452
 10
372307.55529370688600466
 20
714227.86159147333819419
 10
372307.56146543577779084
 20
714227.98091156501322985
 10
372307.52443506242707372
 20
714228.07760198425967246
 10
372307.3660273544373922
 20
714228.1125751145882532
  0
HATCH
  5
c6
330
6d
100
AcDbEntity
  8
steps_benches
420
16752151
100
AcDbHatch
 10
0.0
 20
0.0
 30
0.0
210
0.0
220
0.0
230
1.0
  2
SOLID
 70
     1
 71
     0
 91
     1
 92
     2
 72
     0
 73
     1
 93
    10
 10
372307.3660273544373922
 20
714228.1125751145882532
 10
372307.26727969228522852
 20
714228.04057161090895534
 10
372307.24876450566807762
 20
714227.92330876213964075
 10
372307.25699347752379254
 20
714227.80398867034818977
 10
372307.37631356925703585
 20
714227.73198516678530723
 10
372307.48329020320670679
 20
714227.75255759642459452
 10
372307.55529370688600466
 20
714227.86159147333819419
 10
372307.56146543577779084
 20
714227.98091156501322985
 10
372307.52443506242707372
 20
714228.07760198425967246
 10
372307.3660273544373922
 20
714228.1125751145882532
 97
     0
 75
     0
 76
     1
 98
     0
  0
LWPOLYLINE
  5
c7
  8
steps_benches
100
AcDbEntity
100
AcDbPolyline
  6
CONTINUOUS
420
2302755
 90
    11
 70
   129
 43
260.0
 10
372307.40408074704464525
 20
714228.52908481447957456
 10
372307.33207724342355505
 20
714228.48588271229527891
 10
372307.26007373974425718
 20
714228.39742126490455121
 10
372307.23332958127139136
 20
714228.24107079987879843
 10
372307.27858892641961575
 20
714228.1649528102716431
 10
372307.40613799000857398
 20
714228.14232313772663474
 10
372307.49459943734109402
 20
714228.19169696886092424
 10
372307.54808775434503332
 20
714228.28015841613523662
 10
372307.56866018392611295
 20
714228.40359299385454506
 10
372307.54397326841717586
 20
714228.48588271229527891
 10
372307.40408074704464525
 20
714228.52908481447957456
  0
HATCH
  5
c8
330
6d
100
AcDbEntity
  8
steps_benches
420
16752151
100
AcDbHatch
 10
0.0
 20
0.0
 30
0.0
210
0.0
220
0.0
230
1.0
  2
SOLID
 70
     1
 71
     0
 91
     1
 92
     2
 72
     0
 73
     1
 93
    11
 10
372307.40408074704464525
 20
714228.52908481447957456
 10
372307.33207724342355505
 20
714228.48588271229527891
 10
372307.26007373974425718
 20
714228.39742126490455121
 10
372307.23332958127139136
 20
714228.24107079987879843
 10
372307.27858892641961575
 20
714228.1649528102716431
 10
372307.40613799000857398
 20
714228.14232313772663474
 10
372307.49459943734109402
 20
714228.19169696886092424
 10
372307.54808775434503332
 20
714228.28015841613523662
 10
372307.56866018392611295
 20
714228.40359299385454506
 10
372307.54397326841717586
 20
714228.48588271229527891
 10
372307.40408074704464525
 20
714228.52908481447957456
 97
     0
 75
     0
 76
     1
 98
     0
  0
LWPOLYLINE
  5
c9
  8
steps_benches
100
AcDbEntity
100
AcDbPolyline
  6
CONTINUOUS
420
2302755
 90
     5
 70
   129
 43
260.0
 10
372312.52680127922212705
 20
714223.2401151160011068
 10
372312.52680127922212705
 20
714223.5446999977575615
 10
372313.13640127918915823
 20
714223.5446999977575615
 10
372313.13640127918915823
 20
714223.23989999771583825
 10
372312.52680127922212705
 20
714223.2401151160011068
  0
HATCH
  5
ca
330
6d
100
AcDbEntity
  8
steps_benches
420
16752151
100
AcDbHatch
 10
0.0
 20
0.0
 30
0.0
210
0.0
220
0.0
230
1.0
  2
SOLID
 70
     1
 71
     0
 91
     1
 92
     2
 72
     0
 73
     1
 93
     5
 10
372312.52680127922212705
 20
714223.2401151160011068
 10
372312.52680127922212705
 20
714223.5446999977575615
 10
372313.13640127918915823
 20
714223.5446999977575615
 10
372313.13640127918915823
 20
714223.23989999771583825
 10
372312.52680127922212705
 20
714223.2401151160011068
 97
     0
 75
     0
 76
     1
 98
     0
  0
LWPOLYLINE
  5
cb
  8
Wild Areas
100
AcDbEntity
100
AcDbPolyline
  6
CONTINUOUS
420
     0
 90
     8
 70
   129
 43
0.0
 10
372310.84480802359757945
 20
714219.58230568037834018
 10
372310.84480802359757945
 20
714221.80840367253404111
 10
372310.60278491943608969
 20
714222.31563294143415987
 10
372310.27429714775644243
 20
714223.00407387700397521
 10
372310.03729999985080212
 20
714223.2401151160011068
 10
372293.66102380974916741
 20
714223.24121049710083753
 10
372293.67576378479134291
 20
714219.58223759382963181
 10
372310.84480802359757945
 20
714219.58230568037834018
  0
LWPOLYLINE
  5
cc
  8
Wild Areas
100
AcDbEntity
100
AcDbPolyline
  6
CONTINUOUS
420
5091146
 90
     8
 70
   129
 43
360.0
 10
372310.84480802359757945
 20
714219.58230568037834018
 10
372310.84480802359757945
 20
714221.80840367253404111
 10
372310.60278491943608969
 20
714222.31563294143415987
 10
372310.27429714775644243
 20
714223.00407387700397521
 10
372310.03729999985080212
 20
714223.2401151160011068
 10
372293.66102380974916741
 20
714223.24121049710083753
 10
372293.67576378479134291
 20
714219.58223759382963181
 10
372310.84480802359757945
 20
714219.58230568037834018
  0
LWPOLYLINE
  5
cd
  8
Wild Areas
100
AcDbEntity
100
AcDbPolyline
  6
CONTINUOUS
420
     0
 90
     7
 70
   129
 43
0.0
 10
372300.58899999997811392
 20
714223.23994579655118287
 10
372293.66102380974916741
 20
714223.24121049710083753
 10
372293.66136106324847788
 20
714236.80100816336926073
 10
372294.14565709402086213
 20
714236.79974346281960607
 10
372294.14397082646610215
 20
714224.15239983459468931
 10
372300.58921534783439711
 20
714224.15239983459468931
 10
372300.58899999997811392
 20
714223.23994579655118287
  0
LWPOLYLINE
  5
ce
  8
Wild Areas
100
AcDbEntity
100
AcDbPolyline
  6
CONTINUOUS
420
5091146
 90
     7
 70
   129
 43
360.0
 10
372300.58899999997811392
 20
714223.23994579655118287
 10
372293.66102380974916741
 20
714223.24121049710083753
 10
372293.66136106324847788
 20
714236.80100816336926073
 10
372294.14565709402086213
 20
714236.79974346281960607
 10
372294.14397082646610215
 20
714224.15239983459468931
 10
372300.58921534783439711
 20
714224.15239983459468931
 10
372300.58899999997811392
 20
714223.23994579655118287
  0
LWPOLYLINE
  5
cf
  8
Beds
100
AcDbEntity
100
AcDbPolyline
  6
CONTINUOUS
420
10244895
 90
     5
 70
   129
 43
660.00000000000011369
 10
372311.48405829019611701
 20
714229.41103614459279925
 10
372311.48491804284276441
 20
714227.16222929034847766
 10
372310.4088845454971306
 20
714227.16222929034847766
 10
372310.40802479285048321
 20
714229.41103614459279925
 10
372311.48405829019611701
 20
714229.41103614459279925
  0
HATCH
  5
d0
330
6d
100
AcDbEntity
  8
Beds
420
836096
100
AcDbHatch
 10
0.0
 20
0.0
 30
0.0
210
0.0
220
0.0
230
1.0
  2
SOLID
 70
     1
 71
     0
 91
     1
 92
     2
 72
     0
 73
     1
 93
     5
 10
372311.48405829019611701
 20
714229.41103614459279925
 10
372311.48491804284276441
 20
714227.16222929034847766
 10
372310.4088845454971306
 20
714227.16222929034847766
 10
372310.40802479285048321
 20
714229.41103614459279925
 10
372311.48405829019611701
 20
714229.41103614459279925
 97
     0
 75
     0
 76
     1
 98
     0
  0
LWPOLYLINE
  5
d1
  8
Beds
100
AcDbEntity
100
AcDbPolyline
  6
CONTINUOUS
420
10244895
 90
     5
 70
   129
 43
660.00000000000011369
 10
372310.40784603619249538
 20
714233.65930653072427958
 10
372312.65665289043681696
 20
714233.66016628337092698
 10
372312.65665289043681696
 20
714232.58413278602529317
 10
372310.40784603619249538
 20
714232.58327303337864578
 10
372310.40784603619249538
 20
714233.65930653072427958
  0
HATCH
  5
d2
330
6d
100
AcDbEntity
  8
Beds
420
836096
100
AcDbHatch
 10
0.0
 20
0.0
 30
0.0
210
0.0
220
0.0
230
1.0
  2
SOLID
 70
     1
 71
     0
 91
     1
 92
     2
 72
     0
 73
     1
 93
     5
 10
372310.40784603619249538
 20
714233.65930653072427958
 10
372312.65665289043681696
 20
714233.66016628337092698
 10
372312.65665289043681696
 20
714232.58413278602529317
 10
372310.40784603619249538
 20
714232.58327303337864578
 10
372310.40784603619249538
 20
714233.65930653072427958
 97
     0
 75
     0
 76
     1
 98
     0
  0
LWPOLYLINE
  5
d3
  8
Beds
100
AcDbEntity
100
AcDbPolyline
  6
CONTINUOUS
420
10244895
 90
     5
 70
   129
 43
660.00000000000011369
 10
372312.65665289043681696
 20
714231.77230163442436606
 10
372312.65665289043681696
 20
714230.69626813707873225
 10
372310.40784603619249538
 20
714230.69540838443208486
 10
372310.40784603619249538
 20
714231.77144188177771866
 10
372312.65665289043681696
 20
714231.77230163442436606
  0
HATCH
  5
d4
330
6d
100
AcDbEntity
  8
Beds
420
836096
100
AcDbHatch
 10
0.0
 20
0.0
 30
0.0
210
0.0
220
0.0
230
1.0
  2
SOLID
 70
     1
 71
     0
 91
     1
 92
     2
 72
     0
 73
     1
 93
     5
 10
372312.65665289043681696
 20
714231.77230163442436606
 10
372312.65665289043681696
 20
714230.69626813707873225
 10
372310.40784603619249538
 20
714230.69540838443208486
 10
372310.40784603619249538
 20
714231.77144188177771866
 10
372312.65665289043681696
 20
714231.77230163442436606
 97
     0
 75
     0
 76
     1
 98
     0
  0
LWPOLYLINE
  5
d5
  8
Beds
100
AcDbEntity
100
AcDbPolyline
  6
CONTINUOUS
420
10244895
 90
     6
 70
   129
 43
660.00000000000011369
 10
372309.19975423702271655
 20
714232.89139211061410606
 10
372308.28535423707216978
 20
714232.89139211061410606
 10
372308.28414093726314604
 20
714229.75239462393801659
 10
372309.19854093721369281
 20
714229.75239462393801659
 10
372309.19938599091256037
 20
714232.62221565283834934
 10
372309.19975423702271655
 20
714232.89139211061410606
  0
HATCH
  5
d6
330
6d
100
AcDbEntity
  8
Beds
420
836096
100
AcDbHatch
 10
0.0
 20
0.0
 30
0.0
210
0.0
220
0.0
230
1.0
  2
SOLID
 70
     1
 71
     0
 91
     1
 92
     2
 72
     0
 73
     1
 93
     6
 10
372309.19975423702271655
 20
714232.89139211061410606
 10
372308.28535423707216978
 20
714232.89139211061410606
 10
372308.28414093726314604
 20
714229.75239462393801659
 10
372309.19854093721369281
 20
714229.75239462393801659
 10
372309.19938599091256037
 20
714232.62221565283834934
 10
372309.19975423702271655
 20
714232.89139211061410606
 97
     0
 75
     0
 76
     1
 98
     0
  0
LWPOLYLINE
  5
d7
  8
Beds
100
AcDbEntity
100
AcDbPolyline
  6
CONTINUOUS
420
10244895
 90
     5
 70
   129
 43
660.00000000000011369
 10
372310.40784603619249538
 20
714234.66066650208085775
 10
372312.65665289043681696
 20
714234.66152625472750515
 10
372312.65665289043681696
 20
714235.73755975207313895
 10
372310.40784603619249538
 20
714235.73669999942649156
 10
372310.40784603619249538
 20
714234.66066650208085775
  0
HATCH
  5
d8
330
6d
100
AcDbEntity
  8
Beds
420
836096
100
AcDbHatch
 10
0.0
 20
0.0
 30
0.0
210
0.0
220
0.0
230
1.0
  2
SOLID
 70
     1
 71
     0
 91
     1
 92
     2
 72
     0
 73
     1
 93
     5
 10
372310.40784603619249538
 20
714234.66066650208085775
 10
372312.65665289043681696
 20
714234.66152625472750515
 10
372312.65665289043681696
 20
714235.73755975207313895
 10
372310.40784603619249538
 20
714235.73669999942649156
 10
372310.40784603619249538
 20
714234.66066650208085775
 97
     0
 75
     0
 76
     1
 98
     0
  0
LWPOLYLINE
  5
d9
  8
Beds
100
AcDbEntity
100
AcDbPolyline
  6
CONTINUOUS
420
11952149
 90
     5
 70
   129
 43
860.00000000000011369
 10
372307.77387253468623385
 20
714235.77687341615092009
 10
372308.99307253462029621
 20
714235.77687341615092009
 10
372308.99421000317670405
 20
714234.03452102770097554
 10
372307.77501000324264169
 20
714234.03452102770097554
 10
372307.77387253468623385
 20
714235.77687341615092009
  0
HATCH
  5
da
330
6d
100
AcDbEntity
  8
Beds
420
14291897
100
AcDbHatch
 10
0.0
 20
0.0
 30
0.0
210
0.0
220
0.0
230
1.0
  2
SOLID
 70
     1
 71
     0
 91
     1
 92
     2
 72
     0
 73
     1
 93
     5
 10
372307.77387253468623385
 20
714235.77687341615092009
 10
372308.99307253462029621
 20
714235.77687341615092009
 10
372308.99421000317670405
 20
714234.03452102770097554
 10
372307.77501000324264169
 20
714234.03452102770097554
 10
372307.77387253468623385
 20
714235.77687341615092009
 97
     0
 75
     0
 76
     1
 98
     0
  0
LWPOLYLINE
  5
db
  8
Beds
100
AcDbEntity
100
AcDbPolyline
  6
CONTINUOUS
420
10244895
 90
     5
 70
   129
 43
660.00000000000011369
 10
372314.60929999960353598
 20
714237.26069999963510782
 10
372315.02207590255420655
 20
714237.25914386694785208
 10
372315.02363203529966995
 20
714236.15469365380704403
 10
372314.61085613234899938
 20
714236.15624978649429977
 10
372314.60929999960353598
 20
714237.26069999963510782
  0
HATCH
  5
dc
330
6d
100
AcDbEntity
  8
Beds
420
836096
100
AcDbHatch
 10
0.0
 20
0.0
 30
0.0
210
0.0
220
0.0
230
1.0
  2
SOLID
 70
     1
 71
     0
 91
     1
 92
     2
 72
     0
 73
     1
 93
     5
 10
372314.60929999960353598
 20
714237.26069999963510782
 10
372315.02207590255420655
 20
714237.25914386694785208
 10
372315.02363203529966995
 20
714236.15469365380704403
 10
372314.61085613234899938
 20
714236.15624978649429977
 10
372314.60929999960353598
 20
714237.26069999963510782
 97
     0
 75
     0
 76
     1
 98
     0
  0
LWPOLYLINE
  5
dd
  8
Beds
100
AcDbEntity
100
AcDbPolyline
  6
CONTINUOUS
420
10244895
 90
     5
 70
   129
 43
660.00000000000011369
 10
372314.19772650493541732
 20
714235.73669999942649156
 10
372315.11791764956433326
 20
714235.73576588812284172
 10
372315.11326122243190184
 20
714233.5792348989052698
 10
372314.20986076106783003
 20
714233.58031735592521727
 10
372314.19772650493541732
 20
714235.73669999942649156
  0
HATCH
  5
de
330
6d
100
AcDbEntity
  8
Beds
420
836096
100
AcDbHatch
 10
0.0
 20
0.0
 30
0.0
210
0.0
220
0.0
230
1.0
  2
SOLID
 70
     1
 71
     0
 91
     1
 92
     2
 72
     0
 73
     1
 93
     5
 10
372314.19772650493541732
 20
714235.73669999942649156
 10
372315.11791764956433326
 20
714235.73576588812284172
 10
372315.11326122243190184
 20
714233.5792348989052698
 10
372314.20986076106783003
 20
714233.58031735592521727
 10
372314.19772650493541732
 20
714235.73669999942649156
 97
     0
 75
     0
 76
     1
 98
     0
  0
LWPOLYLINE
  5
df
  8
Beds
100
AcDbEntity
100
AcDbPolyline
  6
CONTINUOUS
420
11952149
 90
     5
 70
   129
 43
860.00000000000011369
 10
372307.59914356010267511
 20
714223.24037155555561185
 10
372307.60059641394764185
 20
714224.15599641180597246
 10
372309.64703543757786974
 20
714224.15429999784100801
 10
372309.64533902361290529
 20
714223.2401151160011068
 10
372307.59914356010267511
 20
714223.24037155555561185
  0
HATCH
  5
e0
330
6d
100
AcDbEntity
  8
Beds
420
14291897
100
AcDbHatch
 10
0.0
 20
0.0
 30
0.0
210
0.0
220
0.0
230
1.0
  2
SOLID
 70
     1
 71
     0
 91
     1
 92
     2
 72
     0
 73
     1
 93
     5
 10
372307.59914356010267511
 20
714223.24037155555561185
 10
372307.60059641394764185
 20
714224.15599641180597246
 10
372309.64703543757786974
 20
714224.15429999784100801
 10
372309.64533902361290529
 20
714223.2401151160011068
 10
372307.59914356010267511
 20
714223.24037155555561185
 97
     0
 75
     0
 76
     1
 98
     0
  0
LWPOLYLINE
  5
e1
  8
Beds
100
AcDbEntity
100
AcDbPolyline
  6
CONTINUOUS
420
11952149
 90
     5
 70
   129
 43
860.00000000000011369
 10
372307.5993999995989725
 20
714230.25029999867547303
 10
372307.29459999961545691
 20
714230.25029999867547303
 10
372307.29459999961545691
 20
714228.56527602660935372
 10
372307.5988999999826774
 20
714228.56527602660935372
 10
372307.5993999995989725
 20
714230.25029999867547303
  0
HATCH
  5
e2
330
6d
100
AcDbEntity
  8
Beds
420
14291897
100
AcDbHatch
 10
0.0
 20
0.0
 30
0.0
210
0.0
220
0.0
230
1.0
  2
SOLID
 70
     1
 71
     0
 91
     1
 92
     2
 72
     0
 73
     1
 93
     5
 10
372307.5993999995989725
 20
714230.25029999867547303
 10
372307.29459999961545691
 20
714230.25029999867547303
 10
372307.29459999961545691
 20
714228.56527602660935372
 10
372307.5988999999826774
 20
714228.56527602660935372
 10
372307.5993999995989725
 20
714230.25029999867547303
 97
     0
 75
     0
 76
     1
 98
     0
  0
LWPOLYLINE
  5
e3
  8
Beds
100
AcDbEntity
100
AcDbPolyline
  6
CONTINUOUS
420
10244895
 90
     5
 70
   129
 43
660.00000000000011369
 10
372303.1259624904487282
 20
714229.43153876496944577
 10
372303.1259624904487282
 20
714228.51713876484427601
 10
372305.04270325944526121
 20
714228.51918389904312789
 10
372305.04270325944526121
 20
714229.43358389916829765
 10
372303.1259624904487282
 20
714229.43153876496944577
  0
HATCH
  5
e4
330
6d
100
AcDbEntity
  8
Beds
420
836096
100
AcDbHatch
 10
0.0
 20
0.0
 30
0.0
210
0.0
220
0.0
230
1.0
  2
SOLID
 70
     1
 71
     0
 91
     1
 92
     2
 72
     0
 73
     1
 93
     5
 10
372303.1259624904487282
 20
714229.43153876496944577
 10
372303.1259624904487282
 20
714228.51713876484427601
 10
372305.04270325944526121
 20
714228.51918389904312789
 10
372305.04270325944526121
 20
714229.43358389916829765
 10
372303.1259624904487282
 20
714229.43153876496944577
 97
     0
 75
     0
 76
     1
 98
     0
  0
LWPOLYLINE
  5
e5
  8
Beds
100
AcDbEntity
100
AcDbPolyline
  6
CONTINUOUS
420
10244895
 90
     5
 70
   129
 43
660.00000000000011369
 10
372303.33219999982975423
 20
714233.14575804956257343
 10
372305.24894076882628724
 20
714233.14780318376142532
 10
372305.24894076882628724
 20
714232.23340318363625556
 10
372303.33219999982975423
 20
714232.23135804943740368
 10
372303.33219999982975423
 20
714233.14575804956257343
  0
HATCH
  5
e6
330
6d
100
AcDbEntity
  8
Beds
420
836096
100
AcDbHatch
 10
0.0
 20
0.0
 30
0.0
210
0.0
220
0.0
230
1.0
  2
SOLID
 70
     1
 71
     0
 91
     1
 92
     2
 72
     0
 73
     1
 93
     5
 10
372303.33219999982975423
 20
714233.14575804956257343
 10
372305.24894076882628724
 20
714233.14780318376142532
 10
372305.24894076882628724
 20
714232.23340318363625556
 10
372303.33219999982975423
 20
714232.23135804943740368
 10
372303.33219999982975423
 20
714233.14575804956257343
 97
     0
 75
     0
 76
     1
 98
     0
  0
LWPOLYLINE
  5
e7
  8
Beds
100
AcDbEntity
100
AcDbPolyline
  6
CONTINUOUS
420
10244895
 90
     5
 70
   129
 43
660.00000000000011369
 10
372303.33219999982975423
 20
714230.51421227667015046
 10
372305.24894076882628724
 20
714230.51625741086900234
 10
372305.24894076882628724
 20
714231.4306574109941721
 10
372303.33219999982975423
 20
714231.42861227679532021
 10
372303.33219999982975423
 20
714230.51421227667015046
  0
HATCH
  5
e8
330
6d
100
AcDbEntity
  8
Beds
420
836096
100
AcDbHatch
 10
0.0
 20
0.0
 30
0.0
210
0.0
220
0.0
230
1.0
  2
SOLID
 70
     1
 71
     0
 91
     1
 92
     2
 72
     0
 73
     1
 93
     5
 10
372303.33219999982975423
 20
714230.51421227667015046
 10
372305.24894076882628724
 20
714230.51625741086900234
 10
372305.24894076882628724
 20
714231.4306574109941721
 10
372303.33219999982975423
 20
714231.42861227679532021
 10
372303.33219999982975423
 20
714230.51421227667015046
 97
     0
 75
     0
 76
     1
 98
     0
  0
LWPOLYLINE
  5
e9
  8
Beds
100
AcDbEntity
100
AcDbPolyline
  6
CONTINUOUS
420
10244895
 90
     5
 70
   129
 43
660.00000000000011369
 10
372303.33303232461912557
 20
714234.97564184339717031
 10
372305.16183232452021912
 20
714234.97564184339717031
 10
372305.16183232452021912
 20
714234.06124184327200055
 10
372303.32748500630259514
 20
714234.06124184327200055
 10
372303.33303232461912557
 20
714234.97564184339717031
  0
HATCH
  5
ea
330
6d
100
AcDbEntity
  8
Beds
420
836096
100
AcDbHatch
 10
0.0
 20
0.0
 30
0.0
210
0.0
220
0.0
230
1.0
  2
SOLID
 70
     1
 71
     0
 91
     1
 92
     2
 72
     0
 73
     1
 93
     5
 10
372303.33303232461912557
 20
714234.97564184339717031
 10
372305.16183232452021912
 20
714234.97564184339717031
 10
372305.16183232452021912
 20
714234.06124184327200055
 10
372303.32748500630259514
 20
714234.06124184327200055
 10
372303.33303232461912557
 20
714234.97564184339717031
 97
     0
 75
     0
 76
     1
 98
     0
  0
LWPOLYLINE
  5
eb
  8
Beds
100
AcDbEntity
100
AcDbPolyline
  6
CONTINUOUS
420
10244895
 90
     5
 70
   129
 43
660.00000000000011369
 10
372304.32924274017568678
 20
714236.80273409257642925
 10
372306.15804274007678032
 20
714236.80273409257642925
 10
372306.15915670100366697
 20
714235.88669798511546105
 10
372304.32924274017568678
 20
714235.88833409245125949
 10
372304.32924274017568678
 20
714236.80273409257642925
  0
HATCH
  5
ec
330
6d
100
AcDbEntity
  8
Beds
420
836096
100
AcDbHatch
 10
0.0
 20
0.0
 30
0.0
210
0.0
220
0.0
230
1.0
  2
SOLID
 70
     1
 71
     0
 91
     1
 92
     2
 72
     0
 73
     1
 93
     5
 10
372304.32924274017568678
 20
714236.80273409257642925
 10
372306.15804274007678032
 20
714236.80273409257642925
 10
372306.15915670100366697
 20
714235.88669798511546105
 10
372304.32924274017568678
 20
714235.88833409245125949
 10
372304.32924274017568678
 20
714236.80273409257642925
 97
     0
 75
     0
 76
     1
 98
     0
  0
LWPOLYLINE
  5
ed
  8
Beds
100
AcDbEntity
100
AcDbPolyline
  6
CONTINUOUS
420
10244895
 90
     5
 70
   129
 43
660.00000000000011369
 10
372304.246599999780301
 20
714239.08949999988544732
 10
372304.246599999780301
 20
714238.00685575895477086
 10
372306.50345176213886589
 20
714238.01009122503455728
 10
372306.49991224787663668
 20
714239.09273546596523374
 10
372304.246599999780301
 20
714239.08949999988544732
  0
HATCH
  5
ee
330
6d
100
AcDbEntity
  8
Beds
420
836096
100
AcDbHatch
 10
0.0
 20
0.0
 30
0.0
210
0.0
220
0.0
230
1.0
  2
SOLID
 70
     1
 71
     0
 91
     1
 92
     2
 72
     0
 73
     1
 93
     5
 10
372304.246599999780301
 20
714239.08949999988544732
 10
372304.246599999780301
 20
714238.00685575895477086
 10
372306.50345176213886589
 20
714238.01009122503455728
 10
372306.49991224787663668
 20
714239.09273546596523374
 10
372304.246599999780301
 20
714239.08949999988544732
 97
     0
 75
     0
 76
     1
 98
     0
  0
LWPOLYLINE
  5
ef
  8
Beds
100
AcDbEntity
100
AcDbPolyline
  6
CONTINUOUS
420
10244895
 90
     5
 70
   129
 43
660.00000000000011369
 10
372301.50339999992866069
 20
714238.47989999980200082
 10
372302.72239999991143122
 20
714238.47989999980200082
 10
372302.72239999991143122
 20
714235.96570235933177173
 10
372301.50339999992866069
 20
714235.96570235933177173
 10
372301.50339999992866069
 20
714238.47989999980200082
  0
HATCH
  5
f0
330
6d
100
AcDbEntity
  8
Beds
420
836096
100
AcDbHatch
 10
0.0
 20
0.0
 30
0.0
210
0.0
220
0.0
230
1.0
  2
SOLID
 70
     1
 71
     0
 91
     1
 92
     2
 72
     0
 73
     1
 93
     5
 10
372301.50339999992866069
 20
714238.47989999980200082
 10
372302.72239999991143122
 20
714238.47989999980200082
 10
372302.72239999991143122
 20
714235.96570235933177173
 10
372301.50339999992866069
 20
714235.96570235933177173
 10
372301.50339999992866069
 20
714238.47989999980200082
 97
     0
 75
     0
 76
     1
 98
     0
  0
LWPOLYLINE
  5
f1
  8
Beds
100
AcDbEntity
100
AcDbPolyline
  6
CONTINUOUS
420
10244895
 90
     5
 70
   129
 43
660.00000000000011369
 10
372301.50339999992866069
 20
714231.9023723010905087
 10
372302.41779999987920746
 20
714231.9023723010905087
 10
372302.41370973153971136
 20
714229.97540586092509329
 10
372301.49930973158916458
 20
714229.97540586092509329
 10
372301.50339999992866069
 20
714231.9023723010905087
  0
HATCH
  5
f2
330
6d
100
AcDbEntity
  8
Beds
420
836096
100
AcDbHatch
 10
0.0
 20
0.0
 30
0.0
210
0.0
220
0.0
230
1.0
  2
SOLID
 70
     1
 71
     0
 91
     1
 92
     2
 72
     0
 73
     1
 93
     5
 10
372301.50339999992866069
 20
714231.9023723010905087
 10
372302.41779999987920746
 20
714231.9023723010905087
 10
372302.41370973153971136
 20
714229.97540586092509329
 10
372301.49930973158916458
 20
714229.97540586092509329
 10
372301.50339999992866069
 20
714231.9023723010905087
 97
     0
 75
     0
 76
     1
 98
     0
  0
LWPOLYLINE
  5
f3
  8
Beds
100
AcDbEntity
100
AcDbPolyline
  6
CONTINUOUS
420
10244895
 90
     5
 70
   129
 43
660.00000000000011369
 10
372301.50237743288744241
 20
714234.90929321083240211
 10
372302.41677743283798918
 20
714234.90929321083240211
 10
372302.41779999987920746
 20
714232.9934999990509823
 10
372301.50339999992866069
 20
714232.9934999990509823
 10
372301.50237743288744241
 20
714234.90929321083240211
  0
HATCH
  5
f4
330
6d
100
AcDbEntity
  8
Beds
420
836096
100
AcDbHatch
 10
0.0
 20
0.0
 30
0.0
210
0.0
220
0.0
230
1.0
  2
SOLID
 70
     1
 71
     0
 91
     1
 92
     2
 72
     0
 73
     1
 93
     5
 10
372301.50237743288744241
 20
714234.90929321083240211
 10
372302.41677743283798918
 20
714234.90929321083240211
 10
372302.41779999987920746
 20
714232.9934999990509823
 10
372301.50339999992866069
 20
714232.9934999990509823
 10
372301.50237743288744241
 20
714234.90929321083240211
 97
     0
 75
     0
 76
     1
 98
     0
  0
INSERT
  5
f5
100
AcDbEntity
100
AcDbBlockReference
  8
Trees
  2
symbolLayer1
 50
0.0
 10
372307.5960482808877714
 20
714226.68991344352252781
  0
INSERT
  5
f6
100
AcDbEntity
100
AcDbBlockReference
  8
Trees
  2
symbolLayer0
 50
0.0
 10
372311.57335882709594443
 20
714222.92732692044228315
  0
INSERT
  5
f7
100
AcDbEntity
100
AcDbBlockReference
  8
PLanters & Monuments
  2
symbolLayer2
 50
0.0
 10
372308.38306667772121727
 20
714236.08173075458034873
  0
LWPOLYLINE
  5
f8
  8
Iron Daisy Patio
100
AcDbEntity
100
AcDbPolyline
  6
CONTINUOUS
420
2302755
 90
    13
 70
   129
 43
260.0
 10
372298.07608223083661869
 20
714240.00127913895994425
 10
372298.07617487490642816
 20
714239.39177178300451487
 10
372298.38088223082013428
 20
714239.39167913887649775
 10
372298.38142681983299553
 20
714239.57462781621143222
 10
372299.90571272798115388
 20
714239.58162270265165716
 10
372299.90488223073771223
 20
714239.39167913887649775
 10
372300.20968223072122782
 20
714239.39167913887649775
 10
372300.20968223072122782
 20
714240.00127913895994425
 10
372299.90488223073771223
 20
714240.00127913895994425
 10
372299.89552017772803083
 20
714239.77588072058279067
 10
372298.38088223082013428
 20
714239.78487414726987481
 10
372298.38088223082013428
 20
714240.00127913895994425
 10
372298.07608223083661869
 20
714240.00127913895994425
  0
HATCH
  5
f9
330
6d
100
AcDbEntity
  8
Iron Daisy Patio
420
11600068
100
AcDbHatch
 10
0.0
 20
0.0
 30
0.0
210
0.0
220
0.0
230
1.0
  2
SOLID
 70
     1
 71
     0
 91
     1
 92
     2
 72
     0
 73
     1
 93
    13
 10
372298.07608223083661869
 20
714240.00127913895994425
 10
372298.07617487490642816
 20
714239.39177178300451487
 10
372298.38088223082013428
 20
714239.39167913887649775
 10
372298.38142681983299553
 20
714239.57462781621143222
 10
372299.90571272798115388
 20
714239.58162270265165716
 10
372299.90488223073771223
 20
714239.39167913887649775
 10
372300.20968223072122782
 20
714239.39167913887649775
 10
372300.20968223072122782
 20
714240.00127913895994425
 10
372299.90488223073771223
 20
714240.00127913895994425
 10
372299.89552017772803083
 20
714239.77588072058279067
 10
372298.38088223082013428
 20
714239.78487414726987481
 10
372298.38088223082013428
 20
714240.00127913895994425
 10
372298.07608223083661869
 20
714240.00127913895994425
 97
     0
 75
     0
 76
     1
 98
     0
  0
LWPOLYLINE
  5
fa
  8
Iron Daisy Patio
100
AcDbEntity
100
AcDbPolyline
  6
CONTINUOUS
420
2302755
 90
     5
 70
   129
 43
260.0
 10
372297.75720313348574564
 20
714233.25000717444345355
 10
372299.27892979385796934
 20
714233.2477338348980993
 10
372299.27892979385796934
 20
714231.4189338346477598
 10
372297.75492979394039139
 20
714231.4189338346477598
 10
372297.75720313348574564
 20
714233.25000717444345355
  0
HATCH
  5
fb
330
6d
100
AcDbEntity
  8
Iron Daisy Patio
420
11600068
100
AcDbHatch
 10
0.0
 20
0.0
 30
0.0
210
0.0
220
0.0
230
1.0
  2
SOLID
 70
     1
 71
     0
 91
     1
 92
     2
 72
     0
 73
     1
 93
     5
 10
372297.75720313348574564
 20
714233.25000717444345355
 10
372299.27892979385796934
 20
714233.2477338348980993
 10
372299.27892979385796934
 20
714231.4189338346477598
 10
372297.75492979394039139
 20
714231.4189338346477598
 10
372297.75720313348574564
 20
714233.25000717444345355
 97
     0
 75
     0
 76
     1
 98
     0
  0
LWPOLYLINE
  5
fc
  8
Iron Daisy Patio
100
AcDbEntity
100
AcDbPolyline
  6
CONTINUOUS
420
2302755
 90
     5
 70
   129
 43
260.0
 10
372295.00521454721456394
 20
714227.06612693914212286
 10
372296.52694120758678764
 20
714227.06385359959676862
 10
372296.52694120758678764
 20
714225.23505359934642911
 10
372295.00294120766920969
 20
714225.23505359934642911
 10
372295.00521454721456394
 20
714227.06612693914212286
  0
HATCH
  5
fd
330
6d
100
AcDbEntity
  8
Iron Daisy Patio
420
11600068
100
AcDbHatch
 10
0.0
 20
0.0
 30
0.0
210
0.0
220
0.0
230
1.0
  2
SOLID
 70
     1
 71
     0
 91
     1
 92
     2
 72
     0
 73
     1
 93
     5
 10
372295.00521454721456394
 20
714227.06612693914212286
 10
372296.52694120758678764
 20
714227.06385359959676862
 10
372296.52694120758678764
 20
714225.23505359934642911
 10
372295.00294120766920969
 20
714225.23505359934642911
 10
372295.00521454721456394
 20
714227.06612693914212286
 97
     0
 75
     0
 76
     1
 98
     0
  0
LWPOLYLINE
  5
fe
  8
Iron Daisy Patio
100
AcDbEntity
100
AcDbPolyline
  6
CONTINUOUS
420
2302755
 90
     5
 70
   129
 43
260.0
 10
372297.83274791826261207
 20
714227.12008749961387366
 10
372299.35447457863483578
 20
714227.11781416006851941
 10
372299.35447457863483578
 20
714225.28901415981817991
 10
372297.83047457871725783
 20
714225.28901415981817991
 10
372297.83274791826261207
 20
714227.12008749961387366
  0
HATCH
  5
ff
330
6d
100
AcDbEntity
  8
Iron Daisy Patio
420
11600068
100
AcDbHatch
 10
0.0
 20
0.0
 30
0.0
210
0.0
220
0.0
230
1.0
  2
SOLID
 70
     1
 71
     0
 91
     1
 92
     2
 72
     0
 73
     1
 93
     5
 10
372297.83274791826261207
 20
714227.12008749961387366
 10
372299.35447457863483578
 20
714227.11781416006851941
 10
372299.35447457863483578
 20
714225.28901415981817991
 10
372297.83047457871725783
 20
714225.28901415981817991
 10
372297.83274791826261207
 20
714227.12008749961387366
 97
     0
 75
     0
 76
     1
 98
     0
  0
LWPOLYLINE
  5
100
  8
Iron Daisy Patio
100
AcDbEntity
100
AcDbPolyline
  6
CONTINUOUS
420
2302755
 90
     5
 70
   129
 43
260.0
 10
372294.98363032296765596
 20
714230.12029466452077031
 10
372296.50535698333987966
 20
714230.11802132497541606
 10
372296.50535698333987966
 20
714228.28922132472507656
 10
372294.98135698342230171
 20
714228.28922132472507656
 10
372294.98363032296765596
 20
714230.12029466452077031
  0
HATCH
  5
101
330
6d
100
AcDbEntity
  8
Iron Daisy Patio
420
11600068
100
AcDbHatch
 10
0.0
 20
0.0
 30
0.0
210
0.0
220
0.0
230
1.0
  2
SOLID
 70
     1
 71
     0
 91
     1
 92
     2
 72
     0
 73
     1
 93
     5
 10
372294.98363032296765596
 20
714230.12029466452077031
 10
372296.50535698333987966
 20
714230.11802132497541606
 10
372296.50535698333987966
 20
714228.28922132472507656
 10
372294.98135698342230171
 20
714228.28922132472507656
 10
372294.98363032296765596
 20
714230.12029466452077031
 97
     0
 75
     0
 76
     1
 98
     0
  0
LWPOLYLINE
  5
102
  8
Iron Daisy Patio
100
AcDbEntity
100
AcDbPolyline
  6
CONTINUOUS
420
2302755
 90
     5
 70
   129
 43
260.0
 10
372294.99442243506200612
 20
714233.26079928665421903
 10
372296.51614909543422982
 20
714233.25852594710886478
 10
372296.51614909543422982
 20
714231.42972594685852528
 10
372294.99214909551665187
 20
714231.42972594685852528
 10
372294.99442243506200612
 20
714233.26079928665421903
  0
HATCH
  5
103
330
6d
100
AcDbEntity
  8
Iron Daisy Patio
420
11600068
100
AcDbHatch
 10
0.0
 20
0.0
 30
0.0
210
0.0
220
0.0
230
1.0
  2
SOLID
 70
     1
 71
     0
 91
     1
 92
     2
 72
     0
 73
     1
 93
     5
 10
372294.99442243506200612
 20
714233.26079928665421903
 10
372296.51614909543422982
 20
714233.25852594710886478
 10
372296.51614909543422982
 20
714231.42972594685852528
 10
372294.99214909551665187
 20
714231.42972594685852528
 10
372294.99442243506200612
 20
714233.26079928665421903
 97
     0
 75
     0
 76
     1
 98
     0
  0
LWPOLYLINE
  5
104
  8
Iron Daisy Patio
100
AcDbEntity
100
AcDbPolyline
  6
CONTINUOUS
420
2302755
 90
     5
 70
   129
 43
260.0
 10
372297.78957946988521144
 20
714230.18504733720328659
 10
372299.31130613025743514
 20
714230.18277399765793234
 10
372299.31130613025743514
 20
714228.35397399740759283
 10
372297.78730613033985719
 20
714228.35397399740759283
 10
372297.78957946988521144
 20
714230.18504733720328659
  0
HATCH
  5
105
330
6d
100
AcDbEntity
  8
Iron Daisy Patio
420
11600068
100
AcDbHatch
 10
0.0
 20
0.0
 30
0.0
210
0.0
220
0.0
230
1.0
  2
SOLID
 70
     1
 71
     0
 91
     1
 92
     2
 72
     0
 73
     1
 93
     5
 10
372297.78957946988521144
 20
714230.18504733720328659
 10
372299.31130613025743514
 20
714230.18277399765793234
 10
372299.31130613025743514
 20
714228.35397399740759283
 10
372297.78730613033985719
 20
714228.35397399740759283
 10
372297.78957946988521144
 20
714230.18504733720328659
 97
     0
 75
     0
 76
     1
 98
     0
  0
ENDSEC
0
SECTION
2
OBJECTS
0
DICTIONARY
5
C
330
0
100
AcDbDictionary
281
   1
3
ACAD_GROUP
350
D
3
ACAD_LAYOUT
350
1A
3
ACAD_MLEADERSTYLE
350
43
3
ACAD_MLINESTYLE
350
17
3
ACAD_PLOTSETTINGS
350
19
3
ACAD_PLOTSTYLENAME
350
E
3
ACAD_TABLESTYLE
350
42
3
ACAD_VISUALSTYLE
350
2A
0
DICTIONARY
5
D
102
{ACAD_REACTORS
330
C
102
}
330
C
100
AcDbDictionary
281
   1
0
DICTIONARY
5
1A
102
{ACAD_REACTORS
330
C
102
}
330
C
100
AcDbDictionary
281
   1
3
Layout1
350
1E
3
Layout2
350
26
3
Model
350
22
0
DICTIONARY
5
43
102
{ACAD_REACTORS
330
C
102
}
330
C
100
AcDbDictionary
281
   1
0
DICTIONARY
5
17
102
{ACAD_REACTORS
330
C
102
}
330
C
100
AcDbDictionary
281
   1
3
Standard
350
18
0
DICTIONARY
5
19
102
{ACAD_REACTORS
330
C
102
}
330
C
100
AcDbDictionary
281
   1
0
ACDBDICTIONARYWDFLT
5
E
102
{ACAD_REACTORS
330
C
102
}
330
C
100
AcDbDictionary
281
   1
3
Normal
350
F
100
AcDbDictionaryWithDefault
340
F
0
DICTIONARY
5
42
102
{ACAD_REACTORS
330
C
102
}
330
C
100
AcDbDictionary
281
   1
0
DICTIONARY
5
2A
102
{ACAD_REACTORS
330
C
102
}
330
C
100
AcDbDictionary
281
   1
3
2dWireframe
350
2F
3
3D Hidden
350
31
3
3dWireframe
350
30
3
Basic
350
32
3
Brighten
350
36
3
ColorChange
350
3A
3
Conceptual
350
34
3
Dim
350
35
3
Facepattern
350
39
3
Flat
350
2B
3
FlatWithEdges
350
2C
3
Gouraud
350
2D
3
GouraudWithEdges
350
2E
3
Linepattern
350
38
3
Realistic
350
33
3
Thicken
350
37
0
LAYOUT
5
1E
102
{ACAD_REACTORS
330
1A
102
}
330
1A
100
AcDbPlotSettings
1

2
none_device
4

6

40
0.0
41
0.0
42
0.0
43
0.0
44
0.0
45
0.0
46
0.0
47
0.0
48
0.0
49
0.0
140
0.0
141
0.0
142
1.0
143
1.0
70
 688
72
   0
73
   0
74
   5
7

75
  16
76
   0
77
   2
78
 300
147
1.0
148
0.0
149
0.0
100
AcDbLayout
1
Layout1
70
   1
71
   1
10
0.0
20
0.0
11
12.0
21
9.0
12
0.0
22
0.0
32
0.0
14
1.000000000000000E+20
24
1.000000000000000E+20
34
1.000000000000000E+20
15
-1.000000000000000E+20
25
-1.000000000000000E+20
35
-1.000000000000000E+20
146
0.0
13
0.0
23
0.0
33
0.0
16
1.0
26
0.0
36
0.0
17
0.0
27
1.0
37
0.0
76
   0
330
1B
0
LAYOUT
5
26
102
{ACAD_REACTORS
330
1A
102
}
330
1A
100
AcDbPlotSettings
1

2
none_device
4

6

40
0.0
41
0.0
42
0.0
43
0.0
44
0.0
45
0.0
46
0.0
47
0.0
48
0.0
49
0.0
140
0.0
141
0.0
142
1.0
143
1.0
70
 688
72
   0
73
   0
74
   5
7

75
  16
76
   0
77
   2
78
 300
147
1.0
148
0.0
149
0.0
100
AcDbLayout
1
Layout2
70
   1
71
   2
10
0.0
20
0.0
11
0.0
21
0.0
12
0.0
22
0.0
32
0.0
14
0.0
24
0.0
34
0.0
15
0.0
25
0.0
35
0.0
146
0.0
13
0.0
23
0.0
33
0.0
16
1.0
26
0.0
36
0.0
17
0.0
27
1.0
37
0.0
76
   0
330
23
0
LAYOUT
5
22
102
{ACAD_REACTORS
330
1A
102
}
330
1A
100
AcDbPlotSettings
1

2
none_device
4

6

40
0.0
41
0.0
42
0.0
43
0.0
44
0.0
45
0.0
46
0.0
47
0.0
48
0.0
49
0.0
140
0.0
141
0.0
142
1.0
143
1.0
70
1712
72
   0
73
   0
74
   0
7

75
   0
76
   0
77
   2
78
 300
147
1.0
148
0.0
149
0.0
100
AcDbLayout
1
Model
70
   1
71
   0
10
0.0
20
0.0
11
12.0
21
9.0
12
0.0
22
0.0
32
0.0
14
30.0
24
49.75
34
0.0
15
130.5
25
163.1318914119703
35
0.0
146
0.0
13
0.0
23
0.0
33
0.0
16
1.0
26
0.0
36
0.0
17
0.0
27
1.0
37
0.0
76
   0
330
1F
331
29
0
MLINESTYLE
5
18
102
{ACAD_REACTORS
330
17
102
}
330
17
100
AcDbMlineStyle
2
Standard
70
   0
3

62
 256
51
90.0
52
90.0
71
   2
49
0.5
62
 256
6
BYLAYER
49
-0.5
62
 256
6
BYLAYER
0
ACDBPLACEHOLDER
5
F
102
{ACAD_REACTORS
330
E
102
}
330
E
0
VISUALSTYLE
5
2F
102
{ACAD_REACTORS
330
2A
102
}
330
2A
100
AcDbVisualStyle
2
2dWireframe
70
   4
71
   0
72
   2
73
   0
90
      0
40
-0.6
41
-30.0
62
   5
63
   7
421
16777215
74
   1
91
      4
64
   7
65
 257
75
   1
175
   1
42
1.0
92
      0
66
 257
43
1.0
76
   1
77
   6
78
   2
67
   7
79
   5
170
   0
171
   0
290
   0
174
   0
93
      1
44
0.0
173
   0
291
   0
45
0.0
1001
ACAD
1000
AcDbSavedByObjectVersion
1070
   0
0
VISUALSTYLE
5
31
102
{ACAD_REACTORS
330
2A
102
}
330
2A
100
AcDbVisualStyle
2
3D Hidden
70
   6
71
   1
72
   2
73
   2
90
      0
40
-0.6
41
-30.0
62
   5
63
   7
421
16777215
74
   2
91
      2
64
   7
65
 257
75
   2
175
   1
42
40.0
92
      0
66
 257
43
1.0
76
   1
77
   6
78
   2
67
   7
79
   3
170
   0
171
   0
290
   0
174
   0
93
      1
44
0.0
173
   0
291
   0
45
0.0
1001
ACAD
1000
AcDbSavedByObjectVersion
1070
   0
0
VISUALSTYLE
5
30
102
{ACAD_REACTORS
330
2A
102
}
330
2A
100
AcDbVisualStyle
2
3dWireframe
70
   5
71
   0
72
   2
73
   0
90
      0
40
-0.6
41
-30.0
62
   5
63
   7
421
16777215
74
   1
91
      4
64
   7
65
 257
75
   1
175
   1
42
1.0
92
      0
66
 257
43
1.0
76
   1
77
   6
78
   2
67
   7
79
   5
170
   0
171
   0
290
   0
174
   0
93
      1
44
0.0
173
   0
291
   0
45
0.0
1001
ACAD
1000
AcDbSavedByObjectVersion
1070
   0
0
VISUALSTYLE
5
32
102
{ACAD_REACTORS
330
2A
102
}
330
2A
100
AcDbVisualStyle
2
Basic
70
   7
71
   1
72
   0
73
   1
90
      0
40
-0.6
41
-30.0
62
   5
63
   7
421
16777215
74
   0
91
      4
64
   7
65
 257
75
   1
175
   1
42
1.0
92
      8
66
   7
43
1.0
76
   1
77
   6
78
   2
67
   7
79
   5
170
   0
171
   0
290
   0
174
   0
93
      1
44
0.0
173
   0
291
   1
45
0.0
1001
ACAD
1000
AcDbSavedByObjectVersion
1070
   0
0
VISUALSTYLE
5
36
102
{ACAD_REACTORS
330
2A
102
}
330
2A
100
AcDbVisualStyle
2
Brighten
70
  12
71
   2
72
   2
73
   0
90
      0
40
-0.6
41
-30.0
62
   5
63
   7
421
16777215
74
   1
91
      4
64
   7
65
 257
75
   1
175
   1
42
1.0
92
      8
66
   7
43
1.0
76
   1
77
   6
78
   2
67
   7
79
   5
170
   0
171
   0
290
   0
174
   0
93
      1
44
50.0
173
   0
291
   1
45
0.0
1001
ACAD
1000
AcDbSavedByObjectVersion
1070
   0
0
VISUALSTYLE
5
3A
102
{ACAD_REACTORS
330
2A
102
}
330
2A
100
AcDbVisualStyle
2
ColorChange
70
  16
71
   2
72
   2
73
   3
90
      0
40
-0.6
41
-30.0
62
   5
63
   8
421
8421504
74
   1
91
      4
64
   7
65
 257
75
   1
175
   1
42
1.0
92
      8
66
   8
424
8421504
43
1.0
76
   1
77
   6
78
   2
67
   7
79
   5
170
   0
171
   0
290
   0
174
   0
93
      1
44
0.0
173
   0
291
   1
45
0.0
1001
ACAD
1000
AcDbSavedByObjectVersion
1070
   0
0
VISUALSTYLE
5
34
102
{ACAD_REACTORS
330
2A
102
}
330
2A
100
AcDbVisualStyle
2
Conceptual
70
   9
71
   3
72
   2
73
   0
90
      0
40
-0.6
41
-30.0
62
   5
63
   7
421
16777215
74
   2
91
      2
64
   7
65
 257
75
   1
175
   1
42
40.0
92
      8
66
   7
43
1.0
76
   1
77
   6
78
   2
67
   7
79
   3
170
   0
171
   0
290
   0
174
   0
93
      1
44
0.0
173
   0
291
   0
45
0.0
1001
ACAD
1000
AcDbSavedByObjectVersion
1070
   0
0
VISUALSTYLE
5
35
102
{ACAD_REACTORS
330
2A
102
}
330
2A
100
AcDbVisualStyle
2
Dim
70
  11
71
   2
72
   2
73
   0
90
      0
40
-0.6
41
-30.0
62
   5
63
   7
421
16777215
74
   1
91
      4
64
   7
65
 257
75
   1
175
   1
42
1.0
92
      8
66
   7
43
1.0
76
   1
77
   6
78
   2
67
   7
79
   5
170
   0
171
   0
290
   0
174
   0
93
      1
44
-50.0
173
   0
291
   1
45
0.0
1001
ACAD
1000
AcDbSavedByObjectVersion
1070
   0
0
VISUALSTYLE
5
39
102
{ACAD_REACTORS
330
2A
102
}
330
2A
100
AcDbVisualStyle
2
Facepattern
70
  15
71
   2
72
   2
73
   0
90
      0
40
-0.6
41
-30.0
62
   5
63
   7
421
16777215
74
   1
91
      4
64
   7
65
 257
75
   1
175
   1
42
1.0
92
      8
66
   7
43
1.0
76
   1
77
   6
78
   2
67
   7
79
   5
170
   0
171
   0
290
   0
174
   0
93
      1
44
0.0
173
   0
291
   1
45
0.0
1001
ACAD
1000
AcDbSavedByObjectVersion
1070
   0
0
VISUALSTYLE
5
2B
102
{ACAD_REACTORS
330
2A
102
}
330
2A
100
AcDbVisualStyle
2
Flat
70
   0
71
   2
72
   1
73
   1
90
      2
40
-0.6
41
30.0
62
   5
63
   7
421
16777215
74
   0
91
      4
64
   7
65
 257
75
   1
175
   1
42
1.0
92
      8
66
   7
43
1.0
76
   1
77
   6
78
   2
67
   7
79
   5
170
   0
171
   0
290
   0
174
   0
93
     13
44
0.0
173
   0
291
   1
45
0.0
1001
ACAD
1000
AcDbSavedByObjectVersion
1070
   0
0
VISUALSTYLE
5
2C
102
{ACAD_REACTORS
330
2A
102
}
330
2A
100
AcDbVisualStyle
2
FlatWithEdges
70
   1
71
   2
72
   1
73
   1
90
      2
40
-0.6
41
30.0
62
   5
63
   7
421
16777215
74
   1
91
      4
64
   7
65
 257
75
   1
175
   1
42
1.0
92
      0
66
 257
43
1.0
76
   1
77
   6
78
   2
67
   7
79
   5
170
   0
171
   0
290
   0
174
   0
93
     13
44
0.0
173
   0
291
   1
45
0.0
1001
ACAD
1000
AcDbSavedByObjectVersion
1070
   0
0
VISUALSTYLE
5
2D
102
{ACAD_REACTORS
330
2A
102
}
330
2A
100
AcDbVisualStyle
2
Gouraud
70
   2
71
   2
72
   2
73
   1
90
      2
40
-0.6
41
30.0
62
   5
63
   7
421
16777215
74
   0
91
      4
64
   7
65
 257
75
   1
175
   1
42
1.0
92
      0
66
   7
43
1.0
76
   1
77
   6
78
   2
67
   7
79
   5
170
   0
171
   0
290
   0
174
   0
93
     13
44
0.0
173
   0
291
   1
45
0.0
1001
ACAD
1000
AcDbSavedByObjectVersion
1070
   0
0
VISUALSTYLE
5
2E
102
{ACAD_REACTORS
330
2A
102
}
330
2A
100
AcDbVisualStyle
2
GouraudWithEdges
70
   3
71
   2
72
   2
73
   1
90
      2
40
-0.6
41
30.0
62
   5
63
   7
421
16777215
74
   1
91
      4
64
   7
65
 257
75
   1
175
   1
42
1.0
92
      0
66
 257
43
1.0
76
   1
77
   6
78
   2
67
   7
79
   5
170
   0
171
   0
290
   0
174
   0
93
     13
44
0.0
173
   0
291
   1
45
0.0
1001
ACAD
1000
AcDbSavedByObjectVersion
1070
   0
0
VISUALSTYLE
5
38
102
{ACAD_REACTORS
330
2A
102
}
330
2A
100
AcDbVisualStyle
2
Linepattern
70
  14
71
   2
72
   2
73
   0
90
      0
40
-0.6
41
-30.0
62
   5
63
   7
421
16777215
74
   1
91
      4
64
   7
65
 257
75
   7
175
   7
42
1.0
92
      8
66
   7
43
1.0
76
   1
77
   6
78
   2
67
   7
79
   5
170
   0
171
   0
290
   0
174
   0
93
      1
44
0.0
173
   0
291
   1
45
0.0
1001
ACAD
1000
AcDbSavedByObjectVersion
1070
   0
0
VISUALSTYLE
5
33
102
{ACAD_REACTORS
330
2A
102
}
330
2A
100
AcDbVisualStyle
2
Realistic
70
   8
71
   2
72
   2
73
   0
90
      0
40
-0.6
41
-30.0
62
   5
63
   7
421
16777215
74
   1
91
      0
64
   7
65
 257
75
   1
175
   1
42
1.0
92
      8
66
   8
424
7895160
43
1.0
76
   1
77
   6
78
   2
67
   7
79
   5
170
   0
171
   0
290
   0
174
   0
93
     13
44
0.0
173
   0
291
   0
45
0.0
1001
ACAD
1000
AcDbSavedByObjectVersion
1070
   0
0
VISUALSTYLE
5
37
102
{ACAD_REACTORS
330
2A
102
}
330
2A
100
AcDbVisualStyle
2
Thicken
70
  13
71
   2
72
   2
73
   0
90
      0
40
-0.6
41
-30.0
62
   5
63
   7
421
16777215
74
   1
91
      4
64
   7
65
 257
75
   1
175
   1
42
1.0
92
     12
66
   7
43
1.0
76
   1
77
   6
78
   2
67
   7
79
   5
170
   0
171
   0
290
   0
174
   0
93
      1
44
0.0
173
   0
291
   1
45
0.0
1001
ACAD
1000
AcDbSavedByObjectVersion
1070
   0
0
ENDSEC
  0
EOF
