<?xml version="1.0" encoding="UTF-8" standalone="no"?>
<!-- Created with Inkscape (http://www.inkscape.org/) -->

<svg
   xmlns:dc="http://purl.org/dc/elements/1.1/"
   xmlns:cc="http://creativecommons.org/ns#"
   xmlns:rdf="http://www.w3.org/1999/02/22-rdf-syntax-ns#"
   xmlns:svg="http://www.w3.org/2000/svg"
   xmlns="http://www.w3.org/2000/svg"
   xmlns:sodipodi="http://sodipodi.sourceforge.net/DTD/sodipodi-0.dtd"
   xmlns:inkscape="http://www.inkscape.org/namespaces/inkscape"
   width="36in"
   height="20in"
   viewBox="0 0 914.40001 508.00001"
   version="1.1"
   id="svg8"
   inkscape:version="0.92.3 (2405546, 2018-03-11)"
   sodipodi:docname="blm_stencil.svg">
  <defs
     id="defs2" />
  <sodipodi:namedview
     id="base"
     pagecolor="#ffffff"
     bordercolor="#666666"
     borderopacity="1.0"
     inkscape:pageopacity="0.0"
     inkscape:pageshadow="2"
     inkscape:zoom="0.175"
     inkscape:cx="1892.6715"
     inkscape:cy="525.9234"
     inkscape:document-units="mm"
     inkscape:current-layer="layer1"
     showgrid="false"
     units="in"
     inkscape:window-width="1280"
     inkscape:window-height="998"
     inkscape:window-x="1280"
     inkscape:window-y="0"
     inkscape:window-maximized="1"
     showguides="true"
     inkscape:guide-bbox="true"
     inkscape:snap-global="true"
     inkscape:snap-page="false" />
  <metadata
     id="metadata5">
    <rdf:RDF>
      <cc:Work
         rdf:about="">
        <dc:format>image/svg+xml</dc:format>
        <dc:type
           rdf:resource="http://purl.org/dc/dcmitype/StillImage" />
        <dc:title></dc:title>
      </cc:Work>
    </rdf:RDF>
  </metadata>
  <g
     inkscape:label="Layer 1"
     inkscape:groupmode="layer"
     id="layer1"
     transform="translate(0,211.00002)">
    <g
       id="g1001"
       transform="translate(36.348656,-53.4539)"
       style="stroke-width:1.27;stroke-miterlimit:4;stroke-dasharray:none">
      <path
         transform="matrix(0.26458333,0,0,0.26458333,0,-109.40002)"
         id="path946"
         d="M 0,0 V 1536 H 936.93164 V 1317.8066 L 777.14258,1003.1426 772.0918,554.57227 H 910 V 0 Z"
         style="fill:none;stroke:#000000;stroke-width:4.80000006;stroke-linecap:butt;stroke-linejoin:miter;stroke-opacity:1;stroke-miterlimit:4;stroke-dasharray:none"
         inkscape:connector-curvature="0" />
      <path
         d="M 65.719817,-66.693413 H 87.38402 V 29.757955 H 65.332938 Q 63.01177,29.324252 63.01177,27.676279 v -92.114516 q 0,-1.691384 2.708047,-2.255176 z m 25.145963,0 h 13.34668 q 21.47082,0 29.40147,5.724636 10.83213,6.418561 10.83213,19.949557 0,12.923791 -11.41239,19.775976 10.1067,3.469467 13.92699,10.928831 2.70801,4.9439934 2.70801,11.10230511 V 1.3083132 q 0,19.6025018 -21.08395,26.3679658 -7.39872,2.081676 -14.89415,2.081676 H 90.86578 V 10.849351 h 19.72992 q 14.50725,0 14.50725,-10.40840738 v -1.04084126 q 0,-5.89809906 -5.22259,-8.32673016 -3.82024,-1.9082062 -12.95986,-1.9082062 H 90.86578 v -18.735139 h 13.54012 q 11.79928,0 13.927,-3.642918 1.54746,-2.515385 1.54746,-5.551167 0,-5.377695 -3.86862,-7.285904 -3.19159,-1.734734 -11.79928,-1.734734 H 90.86578 Z"
         style="font-style:normal;font-variant:normal;font-weight:normal;font-stretch:normal;font-size:medium;line-height:1.25;font-family:'New Stencil tfb';-inkscape-font-specification:'New Stencil tfb';font-variant-ligatures:normal;font-variant-caps:normal;font-variant-numeric:normal;font-feature-settings:normal;text-align:center;letter-spacing:0px;word-spacing:0px;writing-mode:lr-tb;text-anchor:middle;fill:none;fill-opacity:1;stroke:#000000;stroke-width:1.27;stroke-miterlimit:4;stroke-dasharray:none;stroke-opacity:1"
         id="path43"
         inkscape:connector-curvature="0" />
      <path
         d="m 164.12759,-66.693413 h 19.72992 q 2.32117,0.433465 2.32117,2.081692 v 94.369676 h -21.6642 q -2.70805,-0.563785 -2.70805,-2.255153 v -92.114523 q 0.48332,-2.081692 2.32116,-2.081692 z m 25.53284,76.848872 h 43.32847 q 2.51461,0.563791 2.51461,2.255154 v 15.092189 q 0,1.691368 -2.70805,2.255153 h -43.13503 z"
         style="font-style:normal;font-variant:normal;font-weight:normal;font-stretch:normal;font-size:medium;line-height:1.25;font-family:'New Stencil tfb';-inkscape-font-specification:'New Stencil tfb';font-variant-ligatures:normal;font-variant-caps:normal;font-variant-numeric:normal;font-feature-settings:normal;text-align:center;letter-spacing:0px;word-spacing:0px;writing-mode:lr-tb;text-anchor:middle;fill:none;fill-opacity:1;stroke:#000000;stroke-width:1.27;stroke-miterlimit:4;stroke-dasharray:none;stroke-opacity:1"
         id="path45"
         inkscape:connector-curvature="0" />
      <path
         d="m 66.381887,44.412321 h 23.71393 q 2.789873,0.52128 2.789873,2.50203 V 160.33969 H 66.846888 q -3.254874,-0.67762 -3.254874,-2.71052 V 46.914351 q 0.580924,-2.50203 2.789873,-2.50203 z m 30.688611,92.366599 h 52.077672 q 3.02238,0.67762 3.02238,2.71053 v 18.13972 q 0,2.0329 -3.25488,2.71052 H 97.070498 Z"
         style="font-style:normal;font-variant:normal;font-weight:normal;font-stretch:normal;font-size:medium;line-height:1.25;font-family:'New Stencil tfb';-inkscape-font-specification:'New Stencil tfb';font-variant-ligatures:normal;font-variant-caps:normal;font-variant-numeric:normal;font-feature-settings:normal;text-align:center;letter-spacing:0px;word-spacing:0px;writing-mode:lr-tb;text-anchor:middle;fill:none;fill-opacity:1;stroke:#000000;stroke-width:1.27;stroke-miterlimit:4;stroke-dasharray:none;stroke-opacity:1"
         id="path53"
         inkscape:connector-curvature="0" />
      <path
         d="m 169.60722,44.412321 h 22.78401 q 3.25486,0.677636 3.25486,2.710535 V 157.83766 q -0.58093,2.50203 -2.78986,2.50203 H 169.1423 q -2.78988,-0.52128 -2.78988,-2.50203 V 47.122856 q 0,-2.032899 3.2548,-2.710535 z"
         style="font-style:normal;font-variant:normal;font-weight:normal;font-stretch:normal;font-size:medium;line-height:1.25;font-family:'New Stencil tfb';-inkscape-font-specification:'New Stencil tfb';font-variant-ligatures:normal;font-variant-caps:normal;font-variant-numeric:normal;font-feature-settings:normal;text-align:center;letter-spacing:0px;word-spacing:0px;writing-mode:lr-tb;text-anchor:middle;fill:none;fill-opacity:1;stroke:#000000;stroke-width:1.27;stroke-miterlimit:4;stroke-dasharray:none;stroke-opacity:1"
         id="path55"
         inkscape:connector-curvature="0" />
      <path
         d="m 65.474902,174.99386 h 16.221386 v 77.44537 q 0,1.39059 -2.226436,1.85413 H 65.633943 q -2.226436,-0.46354 -2.226436,-1.99676 v -75.30598 q 0.51686,-1.99676 2.067395,-1.99676 z m 19.083983,0 h 2.38552 q 2.027657,0 3.021638,4.99188 12.563627,38.33046 14.153947,44.78424 h 0.15921 q 0,-0.92706 15.10815,-48.77774 0.83494,-0.99838 1.74936,-0.99838 h 2.38552 v 40.79075 q 0,1.17665 -11.92751,37.22512 -0.79516,1.28363 -2.06744,1.28363 H 98.713051 q -2.584299,0 -3.180679,-3.99351 -9.860073,-29.77296 -10.973312,-34.22999 z m 41.825765,0 h 16.22138 q 1.9084,0.35658 1.9084,1.7115 v 75.73387 q -0.51685,1.85413 -2.06744,1.85413 h -13.99494 q -2.0674,-0.35658 -2.0674,-1.56888 z"
         style="font-style:normal;font-variant:normal;font-weight:normal;font-stretch:normal;font-size:medium;line-height:1.25;font-family:'New Stencil tfb';-inkscape-font-specification:'New Stencil tfb';font-variant-ligatures:normal;font-variant-caps:normal;font-variant-numeric:normal;font-feature-settings:normal;text-align:center;letter-spacing:0px;word-spacing:0px;writing-mode:lr-tb;text-anchor:middle;fill:none;fill-opacity:1;stroke:#000000;stroke-width:1.27;stroke-miterlimit:4;stroke-dasharray:none;stroke-opacity:1"
         id="path63"
         inkscape:connector-curvature="0" />
      <path
         d="m 183.75585,174.99386 h 15.58527 q -10.33719,33.01769 -14.15398,44.21374 l 0.15921,0.28527 q -4.771,15.26087 -5.88424,17.97075 -5.24807,15.11825 -5.88419,16.25924 -0.83494,0.57051 -1.43132,0.57051 h -16.22139 q -1.90839,-0.35658 -1.90839,-1.7115 v -0.28527 q 1.59032,-4.77793 21.31046,-58.76149 l 6.52035,-17.54287 q 0,-0.53485 1.9084,-0.99838 z m 18.60687,0 q 2.10722,0 3.33972,4.99188 25.44529,69.35139 26.24045,72.31086 v 0.28527 q -0.39738,1.7115 -1.9084,1.7115 h -16.06234 q -1.94813,0 -3.02164,-4.84925 -0.31799,-0.64181 -5.08903,-14.40513 h -22.58274 q 3.65779,-11.1604 4.93003,-15.68875 h 12.72267 l -6.52035,-19.53962 q 7.63359,-24.42453 7.95163,-24.81675 z"
         style="font-style:normal;font-variant:normal;font-weight:normal;font-stretch:normal;font-size:medium;line-height:1.25;font-family:'New Stencil tfb';-inkscape-font-specification:'New Stencil tfb';font-variant-ligatures:normal;font-variant-caps:normal;font-variant-numeric:normal;font-feature-settings:normal;text-align:center;letter-spacing:0px;word-spacing:0px;writing-mode:lr-tb;text-anchor:middle;fill:none;fill-opacity:1;stroke:#000000;stroke-width:1.27;stroke-miterlimit:4;stroke-dasharray:none;stroke-opacity:1"
         id="path65"
         inkscape:connector-curvature="0" />
    </g>
    <g
       id="g1017"
       transform="translate(275.25913,-57.78673)"
       style="stroke-width:1.27;stroke-miterlimit:4;stroke-dasharray:none">
      <path
         transform="matrix(0.26458333,0,0,0.26458333,0,-109.40002)"
         id="path948"
         d="m 1691.9492,0 v 530.28516 l -39.3672,42.85742 v 408.57226 l 115.9903,71.42776 V 1536 H 2304 V 0 Z"
         style="fill:none;stroke:#000000;stroke-width:4.80000006;stroke-linecap:butt;stroke-linejoin:miter;stroke-opacity:1;stroke-miterlimit:4;stroke-dasharray:none"
         inkscape:connector-curvature="0" />
      <path
         d="m 457.61017,-66.693413 h 19.53648 q 2.51462,0.563792 2.51462,2.255176 V -4.4163142 Q 456.15942,16.270397 455.09557,16.920924 v -81.185728 q 0.62865,-2.428609 2.5146,-2.428609 z m 60.54378,0 h 22.82481 q 2.5146,0.563792 2.5146,2.255176 v 0.173668 q 0,1.301076 -6.1898,6.765528 -0.96715,1.214334 -15.86128,15.786181 -2.65967,3.209262 -18.76279,17.173847 -16.68338,14.7452581 -19.53647,16.8269406 V -32.345294 q 11.21894,-11.622741 33.85035,-34.000959 0.62866,-0.346875 1.16058,-0.346875 z m -11.60583,43.195002 q 40.04011,49.7869 40.04011,50.133849 v 1.040841 q 0,1.647997 -2.5146,2.081676 h -22.63135 q -1.88597,0 -4.44891,-3.989886 l -27.0803,-34.5212208 v -0.173481 q 5.75459,-5.3343092 16.63505,-14.5717782 z M 479.66127,-0.07947743 V 27.329331 q 0,2.08168 -3.09488,2.428624 h -18.37595 q -3.09487,-0.346963 -3.09487,-2.775573 v -5.030727 q 0,-0.997475 3.86862,-3.816419 0.48334,-0.650526 20.69708,-18.21471343 z"
         style="font-style:normal;font-variant:normal;font-weight:normal;font-stretch:normal;font-size:medium;line-height:1.25;font-family:'New Stencil tfb';-inkscape-font-specification:'New Stencil tfb';font-variant-ligatures:normal;font-variant-caps:normal;font-variant-numeric:normal;font-feature-settings:normal;text-align:center;letter-spacing:0px;word-spacing:0px;writing-mode:lr-tb;text-anchor:middle;fill:none;fill-opacity:1;stroke:#000000;stroke-width:1.27;stroke-miterlimit:4;stroke-dasharray:none;stroke-opacity:1"
         id="path51"
         inkscape:connector-curvature="0" />
      <path
         d="m 493.23263,44.620827 h 0.69742 V 66.09658 h -0.23274 q -13.94938,0 -16.04182,7.71459 -0.23274,1.824399 -0.23274,2.293529 0,6.932704 10.22955,9.799618 6.2191,1.563766 6.27719,1.876523 v 25.02029 q -17.14609,-3.33604 -26.50381,-7.08908 l -6.04411,-3.33604 Q 448.82713,93.514655 448.82713,79.023736 v -3.544545 q 0,-18.400343 20.92407,-27.105319 10.86883,-3.753045 23.48143,-3.753045 z m 4.88224,0 h 0.93 q 31.79289,0 40.91811,19.390731 3.02238,6.567824 3.02238,9.799612 -1.10435,2.293529 -3.02238,2.293529 -4.35914,0.625508 -17.43668,0.625508 -8.36962,0 -8.36962,-1.459516 l -3.7198,-5.004059 Q 504.97331,66.09658 498.11487,66.09658 Z m 0,43.99402 h 0.23276 q 18.59919,3.544545 28.36374,7.50609 19.29662,8.809223 19.29662,27.522323 v 3.54454 q 0,13.18778 -10.92699,22.72676 -13.42628,10.42513 -36.96587,10.42513 v -22.30976 q 12.38008,0 17.66925,-5.83808 1.62744,-3.23178 1.62744,-5.62956 0,-9.43473 -19.29669,-12.71864 z m -33.47849,36.487923 q 8.36963,0 8.36963,2.08503 3.66171,6.93271 9.53213,8.7571 6.39342,2.08503 11.39191,2.08503 v 22.30976 h -0.92992 q -33.30415,0 -45.33543,-20.85024 -3.95238,-7.66246 -3.95238,-10.84212 v -0.41702 q 0,-2.71055 6.04476,-2.71055 10.75265,-0.41701 14.8793,-0.41701 z"
         style="font-style:normal;font-variant:normal;font-weight:normal;font-stretch:normal;font-size:medium;line-height:1.25;font-family:'New Stencil tfb';-inkscape-font-specification:'New Stencil tfb';font-variant-ligatures:normal;font-variant-caps:normal;font-variant-numeric:normal;font-feature-settings:normal;text-align:center;letter-spacing:0px;word-spacing:0px;writing-mode:lr-tb;text-anchor:middle;fill:none;fill-opacity:1;stroke:#000000;stroke-width:1.27;stroke-miterlimit:4;stroke-dasharray:none;stroke-opacity:1"
         id="path61"
         inkscape:connector-curvature="0" />
      <path
         d="m 474.15047,174.99386 h 18.1298 v 77.44537 q 0,1.56887 -2.54457,1.85413 h -15.26718 q -2.22644,-0.46354 -2.22644,-1.85413 v -75.73387 q 0.39738,-1.7115 1.90839,-1.7115 z m 20.99239,0 h 18.60686 q 15.26719,0 23.53689,8.98538 5.24813,6.20418 5.24813,15.26087 0,11.69525 -9.06492,18.96912 -4.01558,2.81685 -6.52035,3.42301 v 0.28525 q 18.44786,28.38238 19.24302,30.09387 v 0.42788 q -0.51686,1.85413 -2.06744,1.85413 h -17.49362 q -2.18674,0 -3.6578,-3.423 -14.11416,-22.78434 -15.42619,-25.24462 h -12.40458 v -16.11663 h 14.31299 q 10.29736,0 12.0865,-5.41974 0.63613,-1.88978 0.63613,-3.13775 v -1.56888 q 0,-6.06156 -6.36132,-7.84438 -3.2602,-0.5705 -7.31551,-0.5705 h -13.35879 z"
         style="font-style:normal;font-variant:normal;font-weight:normal;font-stretch:normal;font-size:medium;line-height:1.25;font-family:'New Stencil tfb';-inkscape-font-specification:'New Stencil tfb';font-variant-ligatures:normal;font-variant-caps:normal;font-variant-numeric:normal;font-feature-settings:normal;text-align:center;letter-spacing:0px;word-spacing:0px;writing-mode:lr-tb;text-anchor:middle;fill:none;fill-opacity:1;stroke:#000000;stroke-width:1.27;stroke-miterlimit:4;stroke-dasharray:none;stroke-opacity:1"
         id="path73"
         inkscape:connector-curvature="0" />
    </g>
    <flowRoot
       xml:space="preserve"
       id="flowRoot23"
       style="font-style:normal;font-variant:normal;font-weight:normal;font-stretch:normal;font-size:18.66666603px;line-height:1.25;font-family:sans-serif;-inkscape-font-specification:'sans-serif, Normal';font-variant-ligatures:normal;font-variant-caps:normal;font-variant-numeric:normal;font-feature-settings:normal;text-align:center;letter-spacing:0px;word-spacing:0px;writing-mode:lr-tb;text-anchor:middle;fill:#000000;fill-opacity:1;stroke:none"
       transform="matrix(0.26458333,0,0,0.26458333,0,-109.40002)"><flowRegion
         id="flowRegion25"><rect
           id="rect27"
           width="2084.9548"
           height="202.0305"
           x="-92.934036"
           y="214.72047" /></flowRegion><flowPara
         id="flowPara29"></flowPara></flowRoot>    <flowRoot
       transform="matrix(4.7892995,0,0,4.7892995,1342.4661,1323.911)"
       style="font-style:normal;font-variant:normal;font-weight:normal;font-stretch:normal;font-size:18.66666603px;line-height:1.25;font-family:sans-serif;-inkscape-font-specification:'sans-serif, Normal';font-variant-ligatures:normal;font-variant-caps:normal;font-variant-numeric:normal;font-feature-settings:normal;text-align:center;letter-spacing:0px;word-spacing:0px;writing-mode:lr-tb;text-anchor:middle;fill:#000000;fill-opacity:1;stroke:none"
       id="flowRoot41"
       xml:space="preserve"><flowRegion
         id="flowRegion33"><rect
           y="-106.05174"
           x="-805.71429"
           height="711.42859"
           width="1051.4286"
           id="rect31" /></flowRegion><flowPara
         style="font-style:normal;font-variant:normal;font-weight:normal;font-stretch:normal;font-family:'New Stencil tfb';-inkscape-font-specification:'New Stencil tfb'"
         id="flowPara35">BLACK</flowPara><flowPara
         style="font-style:normal;font-variant:normal;font-weight:normal;font-stretch:normal;font-family:'New Stencil tfb';-inkscape-font-specification:'New Stencil tfb'"
         id="flowPara37">LIVES</flowPara><flowPara
         style="font-style:normal;font-variant:normal;font-weight:normal;font-stretch:normal;font-family:'New Stencil tfb';-inkscape-font-specification:'New Stencil tfb'"
         id="flowPara39">MATTER</flowPara></flowRoot>    <g
       id="g1011"
       transform="translate(149.10791,-57.63641)"
       style="stroke-width:1.27;stroke-miterlimit:4;stroke-dasharray:none">
      <path
         d="m 282.9907,-66.693413 h 18.95622 q -12.57302,40.159221 -17.21535,53.776897 l 0.19363,0.346963 q -5.8029,18.561669 -7.15693,21.8576629 -6.38318,18.3881881 -7.15689,19.7759731 -1.01552,0.693891 -1.74091,0.693891 h -19.72991 q -2.32117,-0.433704 -2.32117,-2.081676 v -0.346962 q 1.9343,-5.811361 25.91973,-71.471089 l 7.93064,-21.337335 q 0,-0.650533 2.32117,-1.214325 z m 22.63137,0 q 2.56299,0 4.06206,6.071594 30.94888,84.351572 31.91601,87.95115 v 0.346962 q -0.48332,2.081676 -2.32116,2.081676 h -19.53647 q -2.3695,0 -3.67519,-5.898095 -0.38677,-0.780628 -6.18975,-17.5208145 H 282.4104 q 4.44895,-13.5743048 5.99635,-19.0820895 h 15.47446 l -7.93064,-23.765866 q 9.28466,-29.707467 9.6715,-30.184517 z"
         style="font-style:normal;font-variant:normal;font-weight:normal;font-stretch:normal;font-size:medium;line-height:1.25;font-family:'New Stencil tfb';-inkscape-font-specification:'New Stencil tfb';font-variant-ligatures:normal;font-variant-caps:normal;font-variant-numeric:normal;font-feature-settings:normal;text-align:center;letter-spacing:0px;word-spacing:0px;writing-mode:lr-tb;text-anchor:middle;fill:none;fill-opacity:1;stroke:#000000;stroke-width:1.27;stroke-miterlimit:4;stroke-dasharray:none;stroke-opacity:1"
         id="path47"
         inkscape:connector-curvature="0" />
      <path
         d="m 398.46874,-66.693413 h 0.19366 q 30.75549,0 40.81386,20.990418 2.12773,4.119984 2.12773,5.898096 0,2.602079 -7.35037,2.602079 -2.85311,0.173671 -6.57663,0.173671 h -4.06202 q -5.17427,0 -6.18979,-2.94904 -6.5283,-7.285914 -17.02187,-7.285914 h -1.93435 z m -3.48175,0.173676 v 19.429117 q -0.0478,0.303575 -4.25544,1.214326 -13.54013,5.377708 -13.73357,27.061871 0,20.4265042 12.37954,26.888391 3.82025,1.7347332 5.60947,1.7347332 V 29.584674 Q 385.07368,28.630569 378.73882,25.941732 364.57005,19.91353 357.4615,5.1249185 353.20599,-5.4569651 353.20599,-15.691906 v -6.418511 q 0,-15.699351 8.51096,-28.102746 7.20528,-9.931404 19.92336,-13.877965 8.17242,-2.428609 13.34668,-2.428609 z M 426.12931,-1.2936 q 16.05478,0.43370363 16.05478,1.56126147 0.7737,0.91073533 0.7737,1.56126233 v 0.1734809 q 0,1.9515809 -5.60947,10.9288283 -12.86314,16.826922 -35.97809,16.826922 h -2.90149 V 10.329132 q 0.67705,0 1.74091,0.17348 12.6697,0 18.95616,-10.23493627 1.45074,-1.56126153 6.9635,-1.56126153 z"
         style="font-style:normal;font-variant:normal;font-weight:normal;font-stretch:normal;font-size:medium;line-height:1.25;font-family:'New Stencil tfb';-inkscape-font-specification:'New Stencil tfb';font-variant-ligatures:normal;font-variant-caps:normal;font-variant-numeric:normal;font-feature-settings:normal;text-align:center;letter-spacing:0px;word-spacing:0px;writing-mode:lr-tb;text-anchor:middle;fill:none;fill-opacity:1;stroke:#000000;stroke-width:1.27;stroke-miterlimit:4;stroke-dasharray:none;stroke-opacity:1"
         id="path49"
         inkscape:connector-curvature="0" />
      <path
         d="m 213.08278,44.412321 h 24.64386 q 3.02238,0 4.64982,8.131597 21.38905,65.365532 21.38905,67.346292 v 40.44948 h -9.76456 q -2.96428,0 -4.64981,-7.08908 Q 210.2929,48.53025 210.2929,47.539858 v -0.625507 q 0.58157,-2.50203 2.78988,-2.50203 z m 81.13885,0 h 24.41136 q 2.78987,0.52128 2.78987,2.50203 v 0.417024 q 0,0.573386 -39.29068,107.170275 -1.62743,5.83805 -4.4173,5.83805 h -9.76455 v -39.82396 q 0,-1.72014 19.99405,-63.384747 3.42922,-12.301648 4.88231,-12.301648 0.7556,-0.417024 1.39494,-0.417024 z"
         style="font-style:normal;font-variant:normal;font-weight:normal;font-stretch:normal;font-size:medium;line-height:1.25;font-family:'New Stencil tfb';-inkscape-font-specification:'New Stencil tfb';font-variant-ligatures:normal;font-variant-caps:normal;font-variant-numeric:normal;font-feature-settings:normal;text-align:center;letter-spacing:0px;word-spacing:0px;writing-mode:lr-tb;text-anchor:middle;fill:none;fill-opacity:1;stroke:#000000;stroke-width:1.27;stroke-miterlimit:4;stroke-dasharray:none;stroke-opacity:1"
         id="path57"
         inkscape:connector-curvature="0" />
      <path
         d="m 337.40653,44.412321 h 26.03885 V 160.33969 h -26.2713 q -2.26677,0 -3.02237,-2.91903 V 47.748365 q 0.63935,-3.336044 3.25482,-3.336044 z m 30.22368,0 h 56.72741 q 3.02238,0.677636 3.02238,2.710535 v 18.139717 q 0,2.032895 -3.25488,2.710529 h -56.49491 z m 0,45.662042 h 56.95991 q 3.02238,0.677635 3.02238,2.710535 v 17.931212 q -0.75561,2.71052 -3.02238,2.71052 h -56.95991 z m 0,46.913047 h 59.98229 q 3.0223,0.67763 3.0223,2.71054 v 18.13971 q -0.58093,2.50203 -2.78988,2.50203 h -60.21471 z"
         style="font-style:normal;font-variant:normal;font-weight:normal;font-stretch:normal;font-size:medium;line-height:1.25;font-family:'New Stencil tfb';-inkscape-font-specification:'New Stencil tfb';font-variant-ligatures:normal;font-variant-caps:normal;font-variant-numeric:normal;font-feature-settings:normal;text-align:center;letter-spacing:0px;word-spacing:0px;writing-mode:lr-tb;text-anchor:middle;fill:none;fill-opacity:1;stroke:#000000;stroke-width:1.27;stroke-miterlimit:4;stroke-dasharray:none;stroke-opacity:1"
         id="path59"
         inkscape:connector-curvature="0" />
      <path
         d="m 243.35354,174.99386 h 65.04458 q 1.55059,0 2.06744,1.99676 v 11.98049 q 0,0.74878 -0.79516,1.42625 h -67.4301 q -0.47708,0 -0.79516,-1.28363 v -12.40837 q 0.39739,-1.7115 1.9084,-1.7115 z m 22.42371,17.97075 h 20.19717 v 59.33199 q -0.51685,1.99676 -2.22643,1.99676 h -15.42623 q -2.54451,-0.28527 -2.54451,-2.282 z"
         style="font-style:normal;font-variant:normal;font-weight:normal;font-stretch:normal;font-size:medium;line-height:1.25;font-family:'New Stencil tfb';-inkscape-font-specification:'New Stencil tfb';font-variant-ligatures:normal;font-variant-caps:normal;font-variant-numeric:normal;font-feature-settings:normal;text-align:center;letter-spacing:0px;word-spacing:0px;writing-mode:lr-tb;text-anchor:middle;fill:none;fill-opacity:1;stroke:#000000;stroke-width:1.27;stroke-miterlimit:4;stroke-dasharray:none;stroke-opacity:1"
         id="path67"
         inkscape:connector-curvature="0" />
      <path
         d="m 321.91591,174.99386 h 65.04458 q 1.55059,0 2.06744,1.99676 v 11.98049 q 0,0.74878 -0.79516,1.42625 h -67.43005 q -0.47713,0 -0.79521,-1.28363 v -12.40837 q 0.39739,-1.7115 1.9084,-1.7115 z m 22.4237,17.97075 h 20.19723 v 59.33199 q -0.51687,1.99676 -2.22648,1.99676 h -15.42623 q -2.54452,-0.28527 -2.54452,-2.282 z"
         style="font-style:normal;font-variant:normal;font-weight:normal;font-stretch:normal;font-size:medium;line-height:1.25;font-family:'New Stencil tfb';-inkscape-font-specification:'New Stencil tfb';font-variant-ligatures:normal;font-variant-caps:normal;font-variant-numeric:normal;font-feature-settings:normal;text-align:center;letter-spacing:0px;word-spacing:0px;writing-mode:lr-tb;text-anchor:middle;fill:none;fill-opacity:1;stroke:#000000;stroke-width:1.27;stroke-miterlimit:4;stroke-dasharray:none;stroke-opacity:1"
         id="path69"
         inkscape:connector-curvature="0" />
      <path
         d="m 399.92168,174.99386 h 17.81175 v 79.2995 h -17.97074 q -1.55059,0 -2.06744,-1.99676 v -75.02074 q 0.43733,-2.282 2.22643,-2.282 z m 20.67434,0 h 38.80408 q 2.06744,0.46353 2.06744,1.85413 v 12.40837 q 0,1.3906 -2.22648,1.85413 h -38.64504 z m 0,31.23488 h 38.96312 q 2.06744,0.46353 2.06744,1.85412 v 12.26575 q -0.51685,1.85412 -2.06744,1.85412 h -38.96312 z m 0,32.09062 h 41.03056 q 2.06745,0.46352 2.06745,1.85412 v 12.40838 q -0.39739,1.7115 -1.90841,1.7115 h -41.1896 z"
         style="font-style:normal;font-variant:normal;font-weight:normal;font-stretch:normal;font-size:medium;line-height:1.25;font-family:'New Stencil tfb';-inkscape-font-specification:'New Stencil tfb';font-variant-ligatures:normal;font-variant-caps:normal;font-variant-numeric:normal;font-feature-settings:normal;text-align:center;letter-spacing:0px;word-spacing:0px;writing-mode:lr-tb;text-anchor:middle;fill:none;fill-opacity:1;stroke:#000000;stroke-width:1.27;stroke-miterlimit:4;stroke-dasharray:none;stroke-opacity:1"
         id="path71"
         inkscape:connector-curvature="0" />
      <path
         transform="matrix(0.26458333,0,0,0.26458333,0,-109.40002)"
         id="path942"
         d="M 910,0 V 554.57227 H 772.0918 l 5.05078,448.57033 159.78906,314.664 V 1536 H 1768.5723 V 1053.1426 L 1652.582,981.71484 V 573.14258 l 39.3672,-42.85742 V 0 Z"
         style="fill:none;stroke:#000000;stroke-width:4.80000006;stroke-linecap:butt;stroke-linejoin:miter;stroke-opacity:1;stroke-miterlimit:4;stroke-dasharray:none"
         inkscape:connector-curvature="0" />
    </g>
  </g>
</svg>
