<?xml version="1.0" encoding="UTF-8" standalone="no"?>
<!-- Created with Inkscape (http://www.inkscape.org/) -->

<svg
   xmlns:dc="http://purl.org/dc/elements/1.1/"
   xmlns:cc="http://creativecommons.org/ns#"
   xmlns:rdf="http://www.w3.org/1999/02/22-rdf-syntax-ns#"
   xmlns:svg="http://www.w3.org/2000/svg"
   xmlns="http://www.w3.org/2000/svg"
   xmlns:sodipodi="http://sodipodi.sourceforge.net/DTD/sodipodi-0.dtd"
   xmlns:inkscape="http://www.inkscape.org/namespaces/inkscape"
   width="60in"
   height="36in"
   viewBox="0 0 1524 914.4"
   version="1.1"
   id="svg842"
   inkscape:version="0.92.4 (5da689c313, 2019-01-14)"
   sodipodi:docname="Radical_Ecology_flag_one.svg">
  <defs
     id="defs836" />
  <sodipodi:namedview
     id="base"
     pagecolor="#ffffff"
     bordercolor="#666666"
     borderopacity="1.0"
     inkscape:pageopacity="0.0"
     inkscape:pageshadow="2"
     inkscape:zoom="0.088388348"
     inkscape:cx="-1629.9615"
     inkscape:cy="99.720351"
     inkscape:document-units="in"
     inkscape:current-layer="layer1"
     showgrid="false"
     units="in"
     inkscape:snap-page="true"
     showguides="false"
     inkscape:snap-global="true"
     inkscape:window-width="2560"
     inkscape:window-height="1383"
     inkscape:window-x="0"
     inkscape:window-y="31"
     inkscape:window-maximized="1" />
  <metadata
     id="metadata839">
    <rdf:RDF>
      <cc:Work
         rdf:about="">
        <dc:format>image/svg+xml</dc:format>
        <dc:type
           rdf:resource="http://purl.org/dc/dcmitype/StillImage" />
        <dc:title></dc:title>
      </cc:Work>
    </rdf:RDF>
  </metadata>
  <g
     inkscape:label="Layer 1"
     inkscape:groupmode="layer"
     id="layer1"
     transform="translate(0,617.4)">
    <rect
       style="opacity:1;fill:#1a1a1a;fill-opacity:1;stroke-width:2.02785134;stroke-opacity:0"
       id="rect1401"
       width="1524"
       height="914.40002"
       x="0"
       y="-617.40002" />
    <ellipse
       style="opacity:1;fill:#ffffff;fill-opacity:0;stroke-width:2.3812499;stroke-opacity:0"
       id="path1407"
       cx="-449.54733"
       cy="-553.45166"
       rx="21.916101"
       ry="139.51469" />
    <ellipse
       style="opacity:1;fill:#c83737;fill-opacity:0;stroke-width:2.70761776;stroke-opacity:0"
       id="path1409"
       cx="323.61069"
       cy="-354.77933"
       rx="152.5582"
       ry="109.40428" />
    <g
       id="g1434"
       transform="matrix(0.96645181,0,0,0.96645181,85.624071,-2.6417744)">
      <ellipse
         ry="388.5246"
         rx="387.5639"
         cy="-161.87575"
         cx="751.45868"
         id="path1413"
         style="opacity:1;fill:#ffffff;fill-opacity:1;stroke-width:2.3812499;stroke-opacity:0" />
      <g
         transform="matrix(1.1581333,0,0,1.1581333,355.25503,-549.24217)"
         id="g821">
        <path
           style="fill:#000000"
           d="m 329.3299,674.40629 c -50.42163,-2.66955 -99.28237,-16.56055 -145,-41.22318 -14.46439,-7.8029 -39.25795,-24.34041 -53,-35.35144 -14.28714,-11.4478 -40.754858,-37.91158 -51.883768,-51.87605 -67.36364,-84.52734 -91.7554,-194.76261 -65.92412,-297.93499 11.47614,-45.83669 33.29267,-89.54821 63.91755,-128.065 C 94.096112,99.006748 121.68869,73.129827 144.8299,56.755496 223.2609,1.2590462 325.54304,-17.566661 420.06304,6.0970092 544.29147,37.198369 641.33718,134.33632 672.18202,258.45562 c 11.20496,45.08865 12.97925,94.14049 5.08213,140.5 -9.139,53.64981 -33.85812,108.06834 -69.04462,152 -11.43392,14.27568 -35.94128,38.81735 -49.88963,49.95949 -12.82742,10.24672 -35.00914,25.15743 -48.35401,32.5039 -34.83074,19.17465 -76.4185,32.85238 -117.00667,38.48212 -9.30054,1.29002 -47.33387,3.91491 -49.13932,3.39138 -0.275,-0.0797 -6.8,-0.47854 -14.5,-0.88622 z m 53,-9.94503 c 75.7548,-8.68625 142.77853,-40.46704 195.07318,-92.4983 26.04716,-25.91597 45.55457,-52.86201 61.98171,-85.61679 17.2131,-34.32193 27.20136,-68.4693 32.58227,-111.39055 1.83833,-14.66363 1.59007,-55.99261 -0.43305,-72.09244 C 659.30447,205.54175 608.93968,121.08526 530.21536,65.886576 482.99954,32.780524 429.96757,12.8411 371.8299,6.3354262 c -25.45055,-2.847947 -65.73757,-1.235448 -93,3.7223498 C 144.83959,34.42453 40.270492,139.77215 16.882232,273.95562 c -3.54786,20.35486 -4.49389,32.62249 -4.43415,57.5 0.0645,26.85713 1.37007,40.19334 6.36333,65 16.92973,84.10739 66.08691,159.16953 136.537498,208.49033 51.26971,35.89272 109.09175,56.30584 172.48099,60.89155 8.92631,0.64575 44.75668,-0.25904 54.5,-1.37624 z m -24.31049,-55.39862 11.15525,-1.23418 c 10.78354,-1.19305 11.21355,-1.16615 12.90524,0.80728 2.56701,2.99453 2.30728,5.23598 -0.5,4.31494 -4.08852,-1.34139 -10.91666,-1.7284 -11.96681,-0.67825 -0.61875,0.61875 -0.76171,2.84073 -0.3566,5.54223 l 0.67623,4.50941 4.19859,-0.18423 c 3.59333,-0.15766 4.19859,0.1041 4.19859,1.81578 0,1.58333 -0.83333,2.10417 -4,2.5 l -4,0.5 0.36,7 c 0.198,3.85 0.56205,7.3375 0.80902,7.75 0.24696,0.4125 2.41293,0.75 4.81327,0.75 3.25143,0 5.15955,-0.66919 7.48322,-2.62443 3.77946,-3.18021 4.60835,-2.64442 3.07881,1.99013 -1.28243,3.88581 -1.87766,4.11062 -13.54432,5.11552 -3.85,0.33162 -8.19466,0.83535 -9.6548,1.1194 -1.46014,0.28406 -2.9677,0.0102 -3.35014,-0.60861 -0.38243,-0.61879 0.0509,-1.67071 0.96287,-2.33759 1.51402,-1.10708 1.5509,-2.54112 0.42415,-16.49247 -1.05524,-13.0658 -1.50136,-15.42301 -3.07874,-16.2672 -1.01457,-0.54298 -2.28537,-0.71487 -2.82401,-0.38198 -0.56667,0.35023 -0.97933,-0.84536 -0.97933,-2.83739 z m -50.93951,37.66077 c -4.44186,-0.40007 -5.19569,-1.23805 -2.85856,-3.17769 1.96773,-1.63308 3.34095,-24.5027 1.59742,-26.60352 -1.39452,-1.6803 -1.2057,-1.7369 5.01114,-1.50208 5.27514,0.19925 7.1087,1.44819 4.78854,3.26175 -1.1969,0.93556 -1.82346,4.13088 -2.46879,12.5903 -0.7783,10.20232 -0.69406,11.42794 0.84197,12.25 2.57993,1.38074 6.12792,1.0993 8.68044,-0.68855 2.89405,-2.02707 3.56211,-1.37937 2.03477,1.97277 -1.1176,2.45287 -1.60643,2.61751 -7.28745,2.45452 -3.34921,-0.0961 -8.00198,-0.34696 -10.33948,-0.5575 z m -17.25,-2.46324 c -5.25428,-1.14575 -7.06685,-2.45793 -4.66722,-3.37876 1.01936,-0.39116 1.66722,-1.75284 1.66722,-3.50419 0,-2.34426 -0.54563,-3.0058 -3.00468,-3.64301 -3.67452,-0.95216 -3.96585,-2.66503 -0.52641,-3.09501 2.64489,-0.33065 2.84237,-1.12479 1.65669,-6.66203 -0.6176,-2.88424 -0.75953,-2.74674 -4.48726,4.34714 -2.9677,5.64754 -3.71049,8.02055 -3.2427,10.35949 0.60133,3.00666 0.57423,3.02861 -3.01834,2.44562 -4.78696,-0.77682 -5.11064,-1.26287 -2.61564,-3.92774 1.15659,-1.23533 4.6371,-7.33371 7.73448,-13.55195 8.41883,-16.90148 10.33042,-16.41432 12.97226,3.30589 1.29404,9.65949 2.23086,13.53299 3.64573,15.07419 3.1237,3.40261 1.67882,3.92968 -6.11413,2.23036 z m 110.01507,-3.54283 c -1.93021,-0.97577 -4.51306,-3.54622 -5.78951,-5.76172 -1.91241,-3.31931 -2.24965,-5.15047 -1.98179,-10.76056 0.39618,-8.29738 2.81101,-11.26208 10.89715,-13.37845 5.12763,-1.34204 5.43466,-1.31056 7.10908,0.72898 2.55397,3.11088 2.30499,5.31845 -0.5,4.43317 -7.58172,-2.39286 -10.13649,-1.59292 -11.26078,3.52593 -0.83647,3.80842 1.16752,13.30545 3.38562,16.04469 2.39915,2.96283 6.61949,2.76489 9.99469,-0.46876 3.27145,-3.13425 4.13047,-3.27481 4.13047,-0.67589 0,2.37147 -5.3933,6.60271 -9.5,7.4531 -1.95293,0.4044 -4.21633,0.006 -6.48493,-1.14049 z m -147.56641,-5.81318 c -4.24719,-2.0961 -6.44866,-6.29093 -6.44866,-12.28773 0,-6.36001 1.30512,-9.81323 5.2575,-13.91081 3.55699,-3.68766 7.44616,-4.18855 14.2425,-1.83428 3.55865,1.23272 4.03424,1.78275 4.31037,4.98494 0.37644,4.36572 -0.96194,4.59959 -3.76826,0.65848 -4.47423,-6.28349 -9.78318,-4.03751 -12.56018,5.31365 -1.94314,6.54327 -1.87094,9.92635 0.26807,12.56175 1.92818,2.37564 4.09728,2.7735 9,1.65079 2.62534,-0.60119 3.25,-0.43591 3.25,0.85997 0,3.36579 -8.30339,4.59325 -13.55134,2.00324 z m 174.96653,-0.83643 c -8.21953,-3.6681 -11.90903,-16.63089 -6.90656,-24.26562 2.57593,-3.93138 7.44953,-6.3386 12.84137,-6.34275 4.15516,-0.003 5.32234,0.4686 8.14692,3.29318 5.46628,5.46628 6.83819,13.31366 3.52432,20.1592 -3.20634,6.62342 -11.36694,9.9403 -17.60605,7.15599 z m 10.58481,-4.61211 c 4.43128,-4.43128 1.18323,-19.83924 -4.64968,-22.05691 -2.22571,-0.84621 -3.22094,-0.68495 -5.29556,0.85805 -2.0164,1.4997 -2.62064,2.92028 -2.86738,6.74125 -0.7427,11.50112 7.01519,20.25504 12.81262,14.45761 z m -208.25,-1.73288 c -3.93584,-1.61476 -4.72999,-2.95383 -2.30392,-3.8848 2.17943,-0.83633 8.80441,-21.53612 7.96414,-24.88401 -0.62489,-2.48978 -0.48833,-2.65788 1.61651,-1.98983 8.00062,2.5393 11.07892,4.93936 7.27481,5.67196 -2.11197,0.40673 -9.70803,22.78161 -8.23928,24.26956 2.77839,2.81472 -0.43074,3.23014 -6.31226,0.81712 z m 225.84883,-1.00163 c -0.31981,-0.31981 -0.12612,-1.13015 0.43043,-1.80075 1.37781,-1.66015 -6.66966,-24.46474 -8.63331,-24.46474 -3.17711,0 -1.05646,-2.87443 3.52546,-4.7786 4.96244,-2.06229 6.91845,-1.93829 5.04441,0.31979 -0.71459,0.86102 0.17951,4.57896 3.00794,12.50795 2.21363,6.2055 4.2065,11.46445 4.4286,11.68656 0.91552,0.91551 8.50092,-3.85559 9.09232,-5.71893 0.35205,-1.10922 1.05977,-2.01677 1.57271,-2.01677 1.41002,0 1.11804,6.71061 -0.31739,7.29436 -0.6875,0.27959 -4.92193,2.09331 -9.40985,4.03048 -4.48792,1.93717 -8.42151,3.26047 -8.74132,2.94065 z m -247.52751,-8.42038 c -4.40579,-1.27842 -12.07132,-6.5403 -12.07132,-8.28616 0,-0.73974 0.61253,-1.58002 1.36117,-1.8673 1.93353,-0.74197 8.84551,-18.46511 8.1078,-20.7894 -1.71364,-5.39923 15.11348,0.7064 19.27999,6.99563 2.92481,4.41492 2.92519,10.359 0.001,16.08169 -3.64973,7.14267 -9.56162,9.93068 -16.67868,7.86554 z m 7.31991,-5.71339 c 2.78048,-2.39895 5.56167,-9.08318 5.58681,-13.42717 0.0216,-3.72582 -3.35851,-8.70455 -5.90953,-8.70455 -1.52034,0 -3.56816,3.59258 -6.99752,12.27603 -3.66846,9.28888 -3.75472,10.51643 -0.82099,11.68349 2.66935,1.06189 5.53859,0.41771 8.14123,-1.8278 z m 264.43283,-4.12521 c -3.54148,-2.91919 -6.82406,-9.83107 -6.82406,-14.36892 0,-6.84391 7.99629,-14.63759 15.01812,-14.63759 7.44112,0 13.98188,8.03116 13.98188,17.16784 0,11.86638 -13.43869,19.04065 -22.17594,11.83867 z m 13.95343,-2.56321 c 3.21772,-2.25378 3.04022,-9.17023 -0.39743,-15.48633 -2.99816,-5.50862 -6.92114,-7.80813 -10.26641,-6.01779 -4.66662,2.49749 -5.21043,7.16336 -1.71088,14.67917 3.58502,7.69937 7.80414,10.02631 12.37472,6.82495 z M 182.8299,605.35065 c -5.07312,-3.32509 -6.09678,-4.89503 -3.19174,-4.89503 2.82641,0 3.89994,-4.7449 1.48748,-6.57451 -0.98766,-0.74904 -2.13324,-1.37619 -2.54574,-1.39369 -0.4125,-0.0175 -0.75,-0.74255 -0.75,-1.61126 0,-1.21768 0.65536,-1.43551 2.86121,-0.95102 2.68312,0.58931 2.89905,0.39524 3.46918,-3.11804 0.33438,-2.06055 0.36572,-3.98871 0.0696,-4.28479 -0.29608,-0.29608 -3.18327,2.19822 -6.41598,5.5429 -4.53707,4.69421 -5.74914,6.57265 -5.31422,8.23582 0.70291,2.68791 -0.0512,2.70002 -4.30802,0.0692 -3.36026,-2.0768 -3.67139,-3.91461 -0.66268,-3.91461 0.86959,0 5.93229,-4.275 11.25046,-9.5 5.31817,-5.225 10.15004,-9.5 10.73748,-9.5 3.02047,0 3.24451,2.71874 1.20061,14.5695 -1.17914,6.83677 -1.81605,13.74504 -1.49178,16.1805 0.68192,5.12154 -0.112,5.26367 -6.39586,1.14503 z m 326.29034,-13.85954 c -6.42349,-3.9166 -9.41804,-15.02029 -5.8905,-21.8418 0.86157,-1.6661 3.61832,-4.41404 6.1261,-6.10651 4.34895,-2.93508 4.67312,-3.00286 7.01683,-1.4672 3.8493,2.52216 3.13181,4.30095 -1.65778,4.10996 -7.02942,-0.28032 -9.64718,5.11574 -6.33194,13.05218 2.35077,5.62758 6.25022,9.21788 10.0116,9.21788 4.31168,0 6.11086,-2.22201 4.55828,-5.62953 -0.64411,-1.41367 -2.06027,-2.80283 -3.14702,-3.08702 -2.9173,-0.76289 -2.39265,-2.49748 1.52244,-5.03345 4.30811,-2.79055 5.83326,-2.87019 5.00526,-0.26136 -0.44233,1.39365 0.15742,2.71948 2.00454,4.43133 2.30846,2.13941 2.48711,2.73059 1.43882,4.76137 -4.52973,8.77513 -13.53226,12.19811 -20.65663,7.85415 z m -352.57776,-3.12087 -3.71258,-3.06023 0.0153,-9.67719 c 0.008,-5.32246 0.36616,-10.22947 0.79496,-10.90446 0.42881,-0.67499 2.51661,-1.16195 4.63956,-1.08214 4.70865,0.17701 7.55018,-2.74582 7.55018,-7.7662 0,-3.21057 -2.01183,-5.4244 -4.92946,-5.4244 -0.58353,0 -4.49255,5.15248 -8.68672,11.44995 -6.18297,9.28361 -7.50467,11.93241 -6.98574,14 0.90628,3.61088 -0.78057,3.25657 -7.05721,-1.48234 -5.83164,-4.40294 -6.61232,-5.96761 -2.97749,-5.96761 3.4254,0 17.17391,-20.72311 16.23374,-24.46907 -0.54033,-2.15282 -0.29624,-2.52915 1.63383,-2.51901 3.45516,0.0182 13.80705,6.18971 17.00047,10.13528 5.82375,7.19544 3.81079,16.08728 -3.93372,17.37645 -2.08874,0.3477 -4.3602,0.80799 -5.0477,1.02288 -1.60076,0.50033 -1.68827,11.89782 -0.12576,16.38001 1.67022,4.7912 -0.0633,5.57239 -4.41166,1.98808 z m 386.80249,-14.96212 c 1.05621,-3.3278 -3.79676,-8.56562 -11.55717,-12.4737 -3.79938,-1.91334 -8.08171,-3.4788 -9.51627,-3.4788 -3.35307,0 -2.9245,-0.96115 2.40298,-5.38902 4.77137,-3.96567 6.39727,-4.49314 5.94923,-1.93005 -0.17411,0.99599 1.09072,2.6259 3.10404,4 5.38911,3.67809 5.99841,3.08663 4.04954,-3.93093 -0.5929,-2.13492 -1.66722,-3.75 -2.49442,-3.75 -2.27128,0 -1.71383,-1.90965 1.297,-4.44309 3.4257,-2.88254 4.84243,-3.04334 4.43579,-0.50346 -0.17282,1.0794 0.43848,5.65297 1.35845,10.16347 1.79447,8.79809 5.26588,14.78308 8.57445,14.78308 2.88495,0 2.28558,1.23854 -2.55915,5.28824 -5.08055,4.24681 -5.95578,4.53557 -5.04447,1.66426 z M 467.1387,110.50888 c -3.57155,-1.62149 -4.35721,-2.54228 -5.31402,-6.22803 -0.61755,-2.37887 -1.5415,-5.900222 -2.05322,-7.825222 -2.09502,-7.881031 -1.53087,-9.239717 5.55844,-13.386787 6.82271,-3.991116 7.23094,-4.48227 5.31667,-6.396546 -0.65084,-0.650834 -0.88954,-1.47713 -0.53046,-1.836214 0.89698,-0.896974 11.21379,2.904075 11.21379,4.131524 0,0.543413 -3.13696,2.636407 -6.97103,4.651099 -3.83406,2.014692 -7.12201,4.116059 -7.30656,4.669704 -0.53937,1.618095 3.71495,18.422672 5.26152,20.783032 1.28218,1.95687 1.10797,3.41902 -0.4006,3.36223 -0.32083,-0.0121 -2.46937,-0.87823 -4.77453,-1.92479 z m -250.73877,-5.93994 c -0.30141,-0.48768 0.12204,-1.44278 0.94098,-2.12245 0.81894,-0.67966 1.48899,-1.71892 1.48899,-2.30946 0,-0.590542 -2.27031,-8.204305 -5.04514,-16.919471 -4.33843,-13.626126 -5.38901,-15.976495 -7.5,-16.779093 -1.35017,-0.513335 -2.45486,-1.374896 -2.45486,-1.914581 0,-0.539684 3.67397,-2.141851 8.16438,-3.560371 8.37627,-2.646064 11.48081,-2.29593 8.25398,0.930896 -1.61361,1.613614 -1.44162,2.567357 3.04502,16.885714 2.61537,8.346527 5.27663,15.730021 5.9139,16.407765 2.02035,2.148659 11.4791,-1.532871 14.01939,-5.45663 1.15683,-1.786846 2.55333,-3.093319 3.10333,-2.903272 1.3833,0.477984 0.7946,7.777782 -0.74426,9.228731 -1.02293,0.9645 -26.23939,9.398912 -28.10002,9.398912 -0.29573,0 -0.78429,-0.39901 -1.08569,-0.88669 z m 230.98736,-1.5296 c -6.01144,-2.2653 -8.39795,-4.583712 -4.71835,-4.583712 1.61585,0 2.72952,-1.89516 5.72952,-9.75 2.0481,-5.3625 4.33621,-11.275062 5.08469,-13.139027 0.99362,-2.47443 1.06587,-3.744491 0.26772,-4.706195 -2.35306,-2.835273 0.25585,-3.186863 6.24145,-0.841127 7.4633,2.924848 7.73809,3.167676 4.81025,4.250755 -3.14637,1.16392 -12.659,25.653694 -10.8237,27.865096 2.28255,2.75031 -0.63171,3.15008 -6.59158,0.90421 z m -17.47791,-5.406352 c -5.79769,-1.81877 -7.435,-3.589621 -4.12037,-4.456416 1.49453,-0.390827 2.04089,-1.354238 2.04089,-3.598732 0,-2.618267 -0.4735,-3.187724 -3.24847,-3.906791 -1.92794,-0.499579 -3.3919,-1.586525 -3.6013,-2.673852 -0.29992,-1.557361 0.11222,-1.739078 2.74847,-1.211829 l 3.1013,0.62026 v -4.975 c 0,-2.73625 -0.3375,-4.969188 -0.75,-4.962084 -0.4125,0.0071 -2.94335,3.384103 -5.62411,7.504444 -3.98595,6.126411 -4.76494,8.037382 -4.275,10.487084 0.68177,3.408847 -0.67548,3.82417 -6.20167,1.897731 -3.71581,-1.295341 -4.00149,-2.556684 -0.89922,-3.970351 1.2375,-0.563914 6.00263,-6.854267 10.58919,-13.978561 6.80393,-10.568556 8.77215,-12.953263 10.69098,-12.953263 1.29349,0 2.6779,0.52765 3.07647,1.172555 0.39858,0.644905 1.30053,7.84621 2.00435,16.002899 0.86711,10.049119 1.78088,15.545933 2.83434,17.049946 0.85507,1.22079 1.55467,2.56948 1.55467,2.99711 0,1.22756 -4.02884,0.80311 -9.92052,-1.04515 z M 251.31291,94.428135 c -0.36036,-0.583064 -0.12411,-1.700027 0.52498,-2.482139 0.92257,-1.111619 0.49115,-4.354404 -1.97639,-14.855905 -2.72234,-11.585838 -3.45513,-13.511956 -5.32684,-14.001419 -3.29069,-0.860535 -1.07147,-2.337426 5.9863,-3.983892 6.68588,-1.55971 8.14436,-1.229757 5.8365,1.320397 -1.30956,1.447041 -1.11428,3.144019 1.72428,14.983992 2.46147,10.267102 3.61086,13.4593 4.97462,13.815931 3.69665,0.966695 1.70832,3.102138 -3.97646,4.270683 -3.1625,0.650072 -6.05641,1.364317 -6.4309,1.587209 -0.3745,0.222893 -0.97574,-0.07179 -1.33609,-0.654857 z m 29.12168,-8.222507 c -0.79278,-1.2375 -4.4517,-7.425 -8.13093,-13.75 -3.67923,-6.325 -7.20346,-11.85032 -7.83163,-12.278488 -0.62817,-0.428168 -1.81713,-1.207435 -2.64213,-1.731704 -2.35566,-1.496969 0.26942,-2.678575 7.72443,-3.47694 7.24405,-0.775771 8.33766,-0.343944 5.9133,2.334942 -1.59443,1.761828 -1.40694,2.343142 3.54974,11.006086 3.21148,5.612804 5.49728,8.663141 5.91699,7.896059 0.37615,-0.687475 1.26759,-5.412415 1.98098,-10.499865 1.23499,-8.80722 1.20423,-9.31779 -0.64262,-10.668239 -2.58022,-1.886709 -1.71127,-2.525852 4.42157,-3.252196 5.19355,-0.615099 6.51659,0.279344 3.7767,2.553252 -0.79336,0.658433 -2.28218,7.0561 -3.57736,15.372445 -2.67847,17.198433 -3.21623,18.744648 -6.51924,18.744648 -1.49716,0 -3.07603,-0.901681 -3.9398,-2.25 z m 96.89531,0.354137 c -4.70836,-2.1799 -8.90887,-6.407627 -10.53587,-10.604137 -1.85125,-4.774903 -1.47981,-14.545802 0.74408,-19.573203 9.32766,-21.086486 41.16997,-14.416268 41.26983,8.645064 0.0431,9.950551 -5.09278,18.880899 -12.69592,22.075912 -4.61538,1.939489 -14.00589,1.667687 -18.78212,-0.543636 z m 15.10048,-5.613708 c 5.76258,-5.762578 7.9772,-18.135394 4.60898,-25.749807 -1.70059,-3.844474 -2.68977,-4.804242 -5.96181,-5.784569 -3.28078,-0.982946 -4.43896,-0.908482 -7.07547,0.454912 -9.14893,4.731091 -11.2411,28.347358 -2.86963,32.391991 3.98802,1.926785 8.59368,1.391726 11.29793,-1.312527 z m -90.60048,3.61656 c 0,-0.491156 0.72091,-1.169651 1.60203,-1.507767 1.4101,-0.541107 1.51795,-2.2611 0.90021,-14.356989 -0.62062,-12.152559 -0.93736,-13.928117 -2.73806,-15.349144 -1.11993,-0.8838 -1.63753,-1.852027 -1.15021,-2.151614 0.48732,-0.299587 5.88533,-0.867775 11.99559,-1.26264 10.88225,-0.703247 11.14293,-0.670287 12.74073,1.610885 2.07325,2.959984 0.56463,4.962751 -2.36168,3.135239 -1.07881,-0.673727 -3.99258,-1.224959 -6.47504,-1.224959 h -4.51357 v 4.5 4.5 h 4.03138 c 2.77392,0 4.22301,0.49936 4.64572,1.600925 0.75578,1.969534 -1.27386,3.36342 -4.9271,3.383762 -2.68117,0.01493 -2.74962,0.159222 -2.73469,5.765313 0.008,3.1625 0.40867,6.371056 0.88944,7.130124 1.20124,1.89659 9.14707,0.653552 12.45497,-1.948444 3.06663,-2.412205 4.27075,-1.019963 2.434,2.814264 -1.05058,2.193096 -2.23328,2.891722 -5.80651,3.429933 -6.66919,1.004533 -20.98721,0.957536 -20.98721,-0.06889 z"
           id="path817"
           inkscape:connector-curvature="0"
           sodipodi:nodetypes="sssssssssssssscssssssssssssssscsscscccsccscsssscccscccccccsscsscccccscssscccsssccccssssssssccsscccsscscsccsssscscssccsccsccsccsccscsccsccscccscssssssssssscssssssscccsccsssscscccscsscssccsccccccssscssccccccccssscscsccsscccscsccscscccccssssscsccscscsssccsscssssssscscsssscscscsscccsscssscccsssscscscscsscssccssscsscsscccsscsscccssscscsss" />
        <g
           id="g852"
           transform="translate(1898.5294,-12.40043)">
          <path
             sodipodi:nodetypes="cccccccccccccccccccccccccssccccccccccccccccccsccccsccscsscccccccscsccccccsccscccccccscscccscccccssccccccccccsccccccscsccccsccccccssscscccscscccccccscssccccccscccccccccccsccccscccccsccscsccsccccccccccscccccscccccsccccscccsccccccsccssccccssscsccssccccscccscccccccccccccccccccccccccccccccccccscccccccccccccccccsccscccccsccccsccccccscccccscccccccscccsccccccccccccccsccccccscccccccccsccccccccccccccscccccsccsccccccccccccccccccccccccccccccssscssccccccccccccccscccccccccccc"
             inkscape:connector-curvature="0"
             id="path819"
             d="m -1562.3867,383.9043 -0.029,0.041 c 0.3951,0.19662 0.445,3.81787 0.1035,8.23047 -0.508,6.56471 -1.378,9.81708 -4.2656,15.92383 l -3.6309,7.67383 -2.8691,-3.96094 c -1.5785,-2.17905 -4.0869,-4.42474 -5.5742,-4.99023 -3.7221,-1.41513 -6.2286,1.6884 -6.2286,7.71289 v 0 c 0,2.41407 -0.3375,4.33743 -0.75,4.27343 -0.4125,-0.064 -3.1125,-0.80398 -6,-1.64453 l -5.25,-1.52734 v -10.60547 c 0,-10.43863 0.053,-10.65655 3.0508,-13.85547 0.9247,-0.98656 1.8582,-1.84409 2.6114,-2.4414 l -12.938,4.34434 c 0.1585,0.15642 1.2593,2.93402 1.2524,3.57362 -0.011,0.97518 -0.5954,3.99208 -1.2988,6.70508 -1.5031,5.79733 -3.7319,7.12523 -6.0118,3.64572 -0.7215,-1.10123 -0.044,-4.51226 0.076,-4.86093 l -10.8088,1.60779 -1.5814,0.74759 c 1.5952,0.22096 4.8026,1.75422 7.9994,6.39499 4.6438,6.74151 5.3739,8.39508 4.7442,10.75 -0.9284,3.47091 -2.3648,3.20211 -3.3575,-0.62891 -0.9217,-3.55698 -6.0609,-8.08789 -9.1738,-8.08789 -2.6254,0 -7.5684,4.18682 -7.5684,6.41016 0,1.63509 6.3145,8.43444 9.4258,10.15039 1.1269,0.62165 1.6194,1.55442 1.1895,2.25 -1.1604,1.87762 -8.6627,1.27225 -13.916,-1.12305 -3.3543,-1.52937 -4.3152,-2.05102 -3.9317,-2.86914 l -8.3203,8.24024 -0.01,0.008 c 1.1243,-0.9078 2.1225,-0.39944 6.9668,2.23242 3.3501,1.82005 10.0597,4.58681 14.9102,6.14648 6.7314,2.16448 9.1938,3.4536 10.4004,5.44532 0.8693,1.43519 3.4746,5.54742 5.791,9.13867 2.3164,3.59126 5.9411,10.79126 8.0547,16 3.4919,8.60555 3.8805,10.48661 4.2441,20.60742 l 0.4004,11.13867 -3.6738,1.21289 c -2.3349,0.77059 -3.4889,1.69117 -3.168,2.52735 0.3942,1.02722 -1.9458,1.38721 -10.6816,1.64843 -10.8104,0.32324 -11.3476,0.44792 -15.9942,3.67383 -2.6445,1.83593 -5.5078,4.80587 -6.3632,6.59961 -1.4543,3.04974 -1.4145,3.57854 0.6113,8.1582 1.1915,2.69359 2.4199,6.75158 2.7305,9.01758 0.5026,3.6669 0.1865,4.54783 -2.8731,8.00391 -9.5924,10.83573 -10.4753,13.63194 -6.2598,19.84375 1.9874,2.9287 2.288,4.04347 1.379,5.13867 -0.9406,1.13335 -0.6997,1.40039 1.2734,1.40039 2.9838,0 5.8193,2.94026 13.5176,14.02149 5.6534,8.13786 5.8644,8.65752 4.6523,11.5 -1.5702,3.68199 -1.6764,5.47851 -0.3242,5.47851 0.5695,0 1.858,-1.92033 2.8633,-4.26562 2.8886,-6.73892 4.4106,-7.49979 8.5996,-4.30469 1.9263,1.46926 3.5019,2.91459 3.5019,3.21094 0,0.29635 -1.0125,1.43045 -2.25,2.52148 l -2.25,1.98438 3.1895,-0.53711 c 2.9914,-0.50299 3.2087,-0.3357 3.5,2.67773 l 0.3105,3.21289 1.8047,-2.66016 c 0.993,-1.46236 1.8569,-3.71236 1.92,-5 0.142,-2.8994 4.5203,-7.83984 6.9472,-7.83984 1.1842,0 2.7961,1.96373 4.7188,5.75 2.8474,5.60721 9.1093,12.7911 9.1093,10.45117 0,-0.64463 -1.35,-3.36527 -3,-6.04687 -5.0328,-8.17933 -3.5297,-12.94587 5.2383,-16.60938 3.6313,-1.51725 3.7475,-1.49715 5.3555,0.95703 0.904,1.37955 3.8665,3.94809 6.584,5.70899 l 4.9414,3.20312 -6.4863,3.26954 c -7.5507,3.80656 -8.9441,5.3164 -4.9043,5.3164 2.8199,0 7.2775,-1.91774 12.4453,-5.35351 2.6634,-1.77075 2.6915,-1.76232 6.75,1.90429 3.2651,2.94979 4.0761,4.36496 4.0761,7.12305 0,1.99203 0.4119,3.18812 0.9786,2.83789 0.6261,-1.53869 2.4781,-1.02616 2.2109,-2.90625 l 0.5195,-3.20117 c 0.4419,-2.72318 -0.106,-3.87872 -3.6582,-7.73242 -4.1316,-4.4822 -4.1586,-4.5643 -2.6133,-7.55274 2.0562,-3.97608 1.9947,-9.98402 -0.125,-12.32617 -1.602,-1.77028 -1.4899,-2.02278 2.2168,-5.07813 2.1456,-1.76858 4.3664,-3.21484 4.9356,-3.21484 0.5693,0 1.2601,2.72058 1.5351,6.04688 0.5821,7.04126 2.9056,11.17348 6.7618,12.02343 1.5056,0.33185 3.0543,0.67623 3.4414,0.76563 0.3872,0.0894 -0.4355,2.86406 -1.8282,6.16406 -4.05,9.59665 -3.9794,10.495 0.4454,5.74219 2.1795,-2.34099 4.5326,-6.18406 5.2285,-8.54102 1.1234,-3.80488 1.8914,-4.58185 6.8574,-6.92578 3.0762,-1.45198 7.3719,-4.27684 9.5449,-6.27734 3.5708,-3.28722 4.1963,-3.52397 6.5,-2.46289 l 2.5488,1.17383 -3.5,2.62695 c -8.0491,6.03907 -12,10.74934 -12,14.30859 0,3.20149 2.2578,7.85547 3.8125,7.85547 0.3851,0 0.5437,-1.97814 0.3516,-4.39453 -0.4725,-5.93985 0.622,-7.537 7.8809,-11.49609 l 6.2148,-3.38868 -0.4473,6.17774 c -0.5356,7.40482 -2.8624,10.40499 -8.164,10.52344 -1.8975,0.0424 -3.2115,0.46605 -2.9199,0.9414 0.8136,1.32593 7.6586,0.0833 10.7695,-1.95508 4.1578,-2.72428 5.7814,-7.40925 4.4297,-12.77734 -1.023,-4.06251 -0.9021,-4.65008 1.7363,-8.46094 1.5594,-2.2523 3.1171,-4.11191 3.4609,-4.13281 0.9038,-0.0549 1.875,5.4918 1.875,10.70899 0,3.87819 0.2047,4.328 1.4942,3.25781 0.8224,-0.68259 2.0142,-2.97311 2.6484,-5.08985 0.6342,-2.11675 1.5376,-3.61171 2.0059,-3.32226 1.6789,1.03758 0.8057,8.45448 -1.6485,14.0039 -3.044,6.8829 -3.0697,7.21788 -0.3535,4.8086 1.1812,-1.04775 3.6446,-5.1668 5.4746,-9.1543 1.8299,-3.9875 3.7896,-7.25 4.3536,-7.25 0.5638,0 1.7449,0.85344 2.625,1.89844 5.0673,6.01745 8.3877,9.10156 9.8007,9.10156 2.487,0 1.958,-0.93364 -3.0078,-5.30469 -4.2496,-3.74064 -4.5693,-4.34611 -4.1055,-7.80468 0.2766,-2.06245 1.6749,-5.28788 3.1075,-7.16602 2.988,-3.91747 3.2571,-6.34904 1.0488,-9.50195 -1.0863,-1.55087 -2.5782,-2.22266 -4.9355,-2.22266 -1.858,0 -4.5162,-0.43245 -5.9063,-0.96094 l -2.5273,-0.96093 2.4628,-5.56836 c 2.6849,-6.07111 3.1346,-10.43973 1.2657,-12.3086 -0.9297,-0.92971 -0.7089,-1.81169 0.9922,-3.94922 5.6094,-7.04874 6.8942,-12.72929 3.6797,-16.28125 -2.5411,-2.80777 -12.8016,-5.64507 -26.9336,-7.44726 -6.5772,-0.83876 -12.404,-1.52344 -12.9493,-1.52344 -0.5453,0 -0.4529,-0.54117 0.2071,-1.20117 1.8589,-1.8589 1.4338,-3.37209 -1.2989,-4.61719 -2.1623,-0.98518 -2.5,-1.78956 -2.5,-5.94922 0,-6.73687 2.5839,-26.65139 4.3125,-33.23242 0.7945,-3.025 2.0103,-9.63962 2.7012,-14.69922 1.1873,-8.69613 1.408,-9.25331 4.043,-10.17187 1.5331,-0.53443 3.3083,-1.94239 3.9433,-3.12891 0.635,-1.18652 2.8658,-3.92117 4.959,-6.07812 3.5478,-3.65574 4.1929,-3.92188 9.4903,-3.92188 6.8533,0 7.91,-0.52128 17.8398,-8.76953 5.8112,-4.82714 7.3974,-5.99551 8.6406,-5.50391 -1.9911,-2.94629 -4.0053,-5.19207 -4.2363,-5.44726 0.108,2.30477 -3.431,5.33381 -10.7051,9.15625 -6.2826,3.3014 -9.8501,4.02394 -14.2168,2.8789 -1.4766,-0.3872 -1.6396,-1.289 -1.125,-6.21289 0.5674,-5.42843 0.4443,-5.88612 -2.1562,-7.93164 -1.5177,-1.19384 -3.3933,-2.16992 -4.166,-2.16992 -2.4562,0 -9.217,3.92935 -10.3262,6.00195 -0.5877,1.0982 -1.4098,1.99805 -1.8262,1.99805 -0.4164,0 -1.5285,-4.8375 -2.4726,-10.75 -0.9441,-5.9125 -2.0078,-11.8299 -2.3633,-13.14844 -0.3575,-1.32579 -0.4319,-1.89242 0.123,-2.00195 -4.2261,-0.76523 -5.8008,-0.11328 -5.8008,-0.11328 l -0.2363,0.17969 c 0.064,0.0227 0.1247,0.0466 0.1641,0.0859 1.2438,1.24337 2.2885,33.92636 1.164,36.39454 -1.6935,3.71686 -3.3496,3.52659 -3.3496,-0.38477 0,-4.02927 -3.9892,-8.28656 -7.707,-8.22656 -3.1068,0.0502 -6.7481,2.27631 -8.2988,5.07422 -1.202,2.16861 -1.3258,1.74237 -1.3438,-4.60938 -0.029,-10.22079 1.9515,-17.27542 6.1074,-21.75 1.7464,-1.88026 3.7895,-3.43279 4.8047,-3.69531 -0.014,-0.003 -0.026,-0.005 -0.039,-0.008 -5.1775,-1.17055 -14.6778,6.93359 -14.6778,6.93359 l -0.057,0.0703 c 0.901,0.0544 0.8795,0.59892 0.5391,2.06055 -3.767,16.17234 -4.006,18.3387 -2.8614,25.85937 1.6583,10.89665 1.4357,16.0184 -0.8574,19.7793 -1.0898,1.7875 -2.2055,3.25 -2.4805,3.25 -0.275,0 0.3907,-1.4625 1.4805,-3.25 3.3494,-5.49343 1.7814,-15.18621 -2.8594,-17.66992 -2.5274,-1.35258 -8.6816,-1.40271 -11.1347,-0.0898 -4.076,2.18141 -3.7278,11.8214 0.6132,16.98046 1.7879,2.12479 2.1181,3.0293 1.1075,3.0293 -2.5477,0 -8.1183,-13.69727 -8.541,-21 -0.3369,-5.81883 0,-7.28387 3.2128,-13.97266 2.4789,-5.15834 3.5916,-8.87382 3.6016,-12 0.016,-6.55329 1.0575,-11.85162 2.2793,-11.75976 z m -34.5547,39.35547 c 0.3452,-0.004 0.7817,0.0748 1.3105,0.24218 10.2482,3.2438 11.8744,5.0274 15.2383,16.69336 2.1918,7.60073 1.5882,8.83056 -2.0156,4.09961 -1.6213,-2.12839 -5.7666,-6.94339 -9.2109,-10.69922 -5.7117,-6.22843 -7.7389,-10.30982 -5.3223,-10.33593 z m 78.3555,12.01558 c 0.3383,-0.0629 0.021,0.76496 -0.8067,2.02734 -0.9453,1.44271 -1.9076,2.62305 -2.1386,2.62305 -0.7234,0 1.6053,-3.8549 2.7597,-4.56836 0.076,-0.0467 0.1372,-0.073 0.1856,-0.082 z m -82.795,81.57227 -3.8281,2.10156 c -2.1052,1.15635 -7.3869,5.50279 -11.7363,9.6582 -6.8234,6.51905 -8.0066,7.30018 -8.6367,5.6875 -1.3309,-3.40641 -0.8059,-9.15263 1.0215,-11.17187 1.9289,-2.13147 10.2411,-4.72769 18.1796,-5.67774 z m 96,1.80664 7,0.66992 c 22.9764,2.19701 28.0959,5.78512 21.9082,15.35156 -1.9335,2.98921 -3.4122,2.76582 -6.3632,-0.96094 -1.3502,-1.70518 -5.1752,-4.33685 -8.5,-5.84765 -3.3248,-1.51079 -7.845,-4.20246 -10.045,-5.98047 z m -68.2285,7.27148 c 2.8637,0 2.931,0.10986 2.2539,3.71875 -0.3836,2.04521 -1.2269,5.01424 -1.873,6.59766 l -1.1758,2.8789 -2.2559,-4.01367 c -1.9139,-3.40538 -2.077,-4.40526 -1.0781,-6.59765 0.8788,-1.92881 1.9262,-2.58399 4.1289,-2.58399 z m -29.0332,2.78906 -2.7324,5.02149 c -1.5032,2.76199 -5.3286,7.94494 -8.5,11.51758 -5.7313,6.45651 -5.773,6.48143 -6.8867,4.03711 -0.6162,-1.35253 -1.1192,-3.01211 -1.1192,-3.6875 0,-1.81846 14.1153,-15.3587 16.8692,-16.18164 z m 36.4531,2.0625 c 0.1452,-0.0457 0.2302,0.16852 0.25,0.64844 0.045,1.1 1.221,3.99212 2.6133,6.42774 l 2.5313,4.42773 -3.793,5.4707 c -2.0863,3.00848 -4.0988,6.19136 -4.4726,7.07227 -0.4473,1.05385 -0.704,0.54026 -0.75,-1.5 -0.039,-1.70542 -0.5682,-4.52668 -1.1758,-6.26953 -0.8911,-2.55625 -0.7821,-3.84963 0.5664,-6.69141 0.9194,-1.93751 2.2857,-5.19124 3.0351,-7.23047 0.545,-1.48282 0.9534,-2.27923 1.1953,-2.35547 z m 20.9473,0.14844 c 2.5861,0 2.6267,0.1019 2.0352,5.0957 -0.3319,2.80309 -1.4315,6.51348 -2.4434,8.2461 -2.0742,3.55155 -4.3509,4.42304 -6.0879,2.33008 -0.9182,-1.10634 -0.6296,-2.57928 1.3321,-6.79297 1.3774,-2.95914 2.5156,-6.16641 2.5156,-7.12891 0.01,-1.22216 0.8051,-1.75 2.6484,-1.75 z m 42.1211,0 c 1.5391,0 15.6265,8.54034 15.9922,9.69531 0.2084,0.65796 -1.4324,2.12046 -3.6465,3.25 -2.214,1.12953 -4.2197,2.05469 -4.457,2.05469 -0.2373,0 -0.7426,-1.23441 -1.1211,-2.74219 -0.3784,-1.50779 -2.2252,-4.88279 -4.1055,-7.5 -1.8803,-2.61722 -3.0787,-4.75781 -2.6621,-4.75781 z m -57.084,0.52539 c 0.3119,-0.0378 0.7509,0.0337 1.3242,0.1836 1.1,0.28766 1.9687,1.0329 1.9297,1.65625 -0.039,0.62335 -0.4398,2.03476 -0.8906,3.13476 -0.7615,1.85832 -0.8982,1.79927 -1.9297,-0.8164 -1.1613,-2.94492 -1.3693,-4.04496 -0.4336,-4.15821 z m 34.584,1.65039 c 0.1248,-0.0581 0.3422,0.39797 0.7402,1.32422 1.6905,3.93413 0.9949,9.55508 -2,16.16016 -1.65,3.639 -3,7.90263 -3,9.47656 0,2.98094 -0.5983,3.40416 -2.8222,1.99414 -1.0493,-0.6653 -0.4827,-3.30368 2.75,-12.80273 2.2394,-6.58015 4.1036,-13.05842 4.1426,-14.39649 0.033,-1.12671 0.065,-1.69776 0.1894,-1.75586 z m 12.3066,3.40039 5.2188,6.44922 c 5.1617,6.37928 11.11,16.46377 10.1895,17.27344 -0.2618,0.23024 -1.6371,0.69711 -3.0586,1.03711 -3.4555,0.82653 -6.8913,-2.7996 -10.7832,-11.38281 -2.3108,-5.09633 -2.8106,-7.29451 -2.2657,-9.95899 z m -81.455,0.93946 4.9218,14.48437 c 4.6901,13.79889 4.8419,14.56832 3.1739,16.23633 -1.668,1.668 -1.9886,1.59262 -6.752,-1.61523 -2.7502,-1.85212 -5.6083,-4.10057 -6.3515,-4.9961 -2.026,-2.44114 -0.942,-11.11604 2.2636,-18.11719 z m 11.4746,4.27148 c 0.3285,-0.0122 0.8359,0.63645 1.6523,2.02539 1.5094,2.56806 1.5477,3.11909 0.291,4.16211 -1.1866,0.98476 -1.5601,0.74724 -2.0761,-1.30859 -0.3462,-1.38004 -0.4792,-3.25158 -0.293,-4.16016 0.095,-0.46522 0.2287,-0.71144 0.4258,-0.71875 z m 46.1953,1.66211 c 0.2141,0.21406 -0.1622,3.91174 -0.8359,8.21875 -1.2309,7.86844 -2.8531,12.84717 -2.9161,8.94922 -0.017,-1.03508 -0.9009,-3.29029 -1.9648,-5.01172 l -1.9336,-3.12891 3.6309,-4.70898 c 1.997,-2.58957 3.8055,-4.53243 4.0195,-4.31836 z m 55.3965,3.18945 c 0.087,0.003 0.1552,0.0263 0.1992,0.0703 0.3429,0.34288 0.6174,2.23619 0.6074,4.20703 -0.024,5.51299 -0.9938,6.31407 -4.7597,3.92968 -1.774,-1.12325 -3.2247,-2.39546 -3.2247,-2.82617 0,-1.13494 5.8648,-5.42863 7.1778,-5.38086 z m -35.6407,1.76367 c 0.4044,0.008 0.5161,0.67301 0.5801,2.22461 0.065,1.57984 0,3.32305 -0.1504,3.87305 -0.1487,0.55 -0.7652,3.57249 -1.3691,6.7168 -1.0864,5.65657 -1.1241,5.70357 -3.5977,4.47656 -3.4925,-1.73239 -3.7233,-5.78622 -0.6289,-11.06641 1.382,-2.3583 3.2136,-4.86907 4.0703,-5.58007 0.5049,-0.41897 0.8532,-0.64948 1.0957,-0.64454 z m -36.9414,0.28516 c 0.3462,-0.0277 0.6758,0.12256 1.0293,0.41602 0.7555,0.62696 1.375,1.47519 1.375,1.88476 0,0.40957 -1.8299,1.95555 -4.0664,3.43555 -3.9867,2.63831 -4.0436,2.64573 -2.8457,0.38281 2.2969,-4.33864 3.4694,-6.03605 4.5078,-6.11914 z m -74.5117,1.7461 c 0.3488,-0.0288 0.5826,0.0661 0.6582,0.29296 0.1894,0.56832 1.6313,2.76044 3.2051,4.8711 l 2.8613,3.83594 -2.1504,3.73632 c -1.1825,2.0546 -3.1215,3.98088 -4.3105,4.2793 -1.189,0.29842 -2.8138,0.79164 -3.6113,1.09766 -1.3625,0.52283 -2.1932,-0.85376 -4.1328,-6.85352 -0.8708,-2.69384 1.74,-8.03345 4.9589,-10.14258 1.0376,-0.67985 1.9402,-1.06918 2.5215,-1.11718 z m 50.9219,0.72265 c 0.7985,-0.11944 0.9941,1.00518 0.9941,3.65235 0,2.09488 -0.5857,4.60812 -1.3007,5.58593 -1.21,1.65471 -1.3831,1.59588 -2.5,-0.85547 -1.6366,-3.59193 -1.5127,-4.94663 0.6289,-6.88476 1.0026,-0.90734 1.6986,-1.42639 2.1777,-1.49805 z m -30.3027,0.94336 c 0.2548,-0.034 0.2624,0.51964 0.2734,1.62891 0.012,1.22637 0.7316,4.00157 1.5977,6.16601 0.866,2.16445 1.4285,5.1951 1.25,6.73438 l -0.3243,2.79883 -4.1836,-4.90625 c -4.4277,-5.19305 -4.4358,-5.45143 -0.3671,-10.52149 0.9982,-1.2437 1.4991,-1.86644 1.7539,-1.90039 z m 92.2968,2.61133 3.4766,4.55273 c 1.9119,2.50387 4.0442,4.74322 4.7383,4.97461 1.0028,0.33437 1.012,0.9674 0.045,3.08985 -1.2841,2.81829 -2.3522,3.11081 -6.0098,1.64062 -2.0184,-0.81127 -2.25,-1.59143 -2.25,-7.58008 z m -31.7363,0.89258 c 0.728,-0.0484 1.1913,0.37748 1.6426,1.2207 0.5449,1.01808 0.7367,2.82475 0.4258,4.01367 -0.6755,2.58312 -3.0161,2.77176 -6.2539,0.50391 -2.2939,-1.60668 -2.3087,-1.70245 -0.4727,-3.07422 2.349,-1.75509 3.7223,-2.60181 4.6582,-2.66406 z m 59.6328,3.39648 c 0.396,0 1.4076,0.5625 2.2461,1.25 1.3552,1.11108 1.2839,1.83197 -0.6426,6.49805 -1.192,2.88723 -2.355,5.06502 -2.5839,4.83789 -0.7086,-0.70313 0.2169,-12.58594 0.9804,-12.58594 z m -82.0508,0.26953 c 0.4053,0.10846 -0.023,2.03138 -1.5312,5.19531 -0.9269,1.94367 -2.0519,3.53516 -2.5,3.53516 -1.0927,0 -1.1446,0.16597 1.6894,-5.41992 1.2079,-2.38085 2.0267,-3.3949 2.3418,-3.31055 z m 7.1231,3.56055 2.5625,2.01562 c 1.4094,1.10864 3.886,2.30676 5.5039,2.66211 4.0279,0.88469 4.7136,2.46808 2.0137,4.6543 -2.5041,2.0277 -2.7065,2.03925 -8.7989,0.57422 -4.7535,-1.14306 -4.8503,-1.36422 -2.7656,-6.35352 z m 84.5566,0.28711 c 0.4655,-0.0173 1.0474,0.14658 1.8575,0.30859 1.6571,0.33144 4.0728,1.29708 5.3691,2.14649 2.2346,1.46411 2.3213,1.91901 1.6719,8.73633 -0.7441,7.81236 -0.8961,8.3563 -1.8828,6.75976 -0.3619,-0.58553 -3.1243,-2.23216 -6.1387,-3.6582 -4.0312,-1.90709 -5.3552,-3.03161 -5.0059,-4.25196 2.3756,-8.30136 2.7324,-9.98901 4.1289,-10.04101 z m -18.6855,0.31055 c 0.1027,0.0119 0.1601,0.0394 0.1601,0.084 0,0.17853 0.2736,1.03627 0.6075,1.90625 0.7362,1.91875 -0.4834,1.991 -2.8809,0.17187 -1.6783,-1.27335 -1.6649,-1.37424 0.25,-1.875 0.8346,-0.21825 1.555,-0.3229 1.8633,-0.2871 z m -119.6582,1.38476 c 0.85,0.0349 4.6313,2.44864 10.7109,6.85352 0.2158,0.15641 -0.1773,0.9703 -0.873,1.80859 -1.7901,2.15695 -2.3427,1.9453 -4.4864,-1.72461 -1.0441,-1.7875 -2.7173,-3.83796 -3.7168,-4.55664 -0.9995,-0.71869 -1.8164,-1.7321 -1.8164,-2.25 0,-0.0933 0.06,-0.13585 0.1817,-0.13086 z m 112.3906,2.39649 c 0.9355,0.19596 6.8973,3.36472 8.3398,4.46679 0.2269,0.17331 -0.1009,1.44299 -0.7285,2.82032 -1.3654,2.99688 -1.7436,3.00839 -5.955,0.1914 -2.6687,-1.78651 -3.1597,-2.64582 -2.668,-4.68555 0.3312,-1.37387 0.7335,-2.63003 0.8945,-2.79101 0.015,-0.0149 0.055,-0.015 0.1172,-0.002 z m -96.0723,1.83007 c 0.55,0.0177 2.236,1.04512 3.7481,2.28321 l 2.75,2.25195 -5.0176,3.74609 c -4.0286,3.0076 -5.1342,3.44563 -5.6035,2.22266 -0.7062,-1.84018 2.7125,-10.54931 4.123,-10.50391 z m -17.1953,0.11133 c 0.9078,-0.0715 2.0113,1.39093 3.1367,4.33789 0.9429,2.46892 3.1236,5.59165 4.8457,6.93946 3.0808,2.41101 3.1022,2.48448 1.2676,4.51171 -2.4772,2.73731 -3.4282,2.61311 -7.8281,-1.01367 -3.8844,-3.20186 -4.4162,-5.22788 -3.1016,-11.80078 0.387,-1.9347 0.9736,-2.91898 1.6797,-2.97461 z m 96.0352,2.20508 c 0.1181,0.007 0.2425,0.0383 0.3769,0.0898 0.795,0.3051 1.8039,0.55469 2.2422,0.55469 1.2342,0 3.3371,5.78358 2.7031,7.43555 -0.3109,0.81003 -2.4478,2.43394 -4.748,3.60742 l -4.1816,2.13281 0.666,-2.83789 c 0.3657,-1.56113 0.9368,-4.77498 1.2695,-7.14258 0.3935,-2.80127 0.8449,-3.88848 1.6719,-3.83984 z m -56.7988,0.0469 c 1.3298,0.0938 3.3486,2.68992 3.7519,5.51954 0.2805,1.96747 0.807,4.31203 1.1699,5.20898 0.4894,1.20977 -0.1692,1.91977 -2.5508,2.75 -1.7658,0.61555 -3.4819,1.12009 -3.8124,1.12109 -0.6457,0.002 -0.2851,-11.66349 0.4257,-13.77539 0.205,-0.60888 0.5724,-0.8555 1.0157,-0.82422 z m 43.5918,0.0313 c 1.7918,0.006 4.1653,0.68264 5.6171,1.82617 1.291,1.01687 1.7141,8.36591 0.6426,11.1582 -0.8476,2.20885 -5.0005,1.97414 -7.3926,-0.41797 -2.0942,-2.09412 -2.7826,-9.21948 -1.1406,-11.80859 0.3319,-0.52323 1.1983,-0.76135 2.2735,-0.75781 z m -93.4922,0.32031 c 0.7496,0.0939 1.1175,0.97306 1.5039,3.13672 0.3545,1.98499 0.5771,3.68625 0.4941,3.78125 -0.083,0.095 -1.162,-1.24865 -2.3965,-2.98633 -2.0692,-2.91257 -2.1079,-3.20753 -0.4941,-3.78125 0.3498,-0.12437 0.6427,-0.1817 0.8926,-0.15039 z m 39.8593,6.25195 2.2891,2.59766 c 1.7944,2.03618 2.0374,2.89915 1.127,3.99609 -1.3251,1.59663 -7.219,1.74975 -10.8946,0.2832 -2.4351,-0.97159 -2.3911,-1.03942 2.5,-3.93164 z m 23,0.99414 c 0.825,0 1.5,0.17643 1.5,0.39258 0,0.21616 -0.675,0.65216 -1.5,0.96875 -0.825,0.31658 -1.5,0.14015 -1.5,-0.39258 0,-0.53274 0.675,-0.96875 1.5,-0.96875 z m 8,2.33008 c 0.7355,0.029 1.3943,0.21216 2.1075,0.53711 3.355,1.52864 4.7813,4.97846 3.4765,8.41015 -0.5691,1.49693 -1.3844,2.70139 -1.8105,2.67579 -1.6879,-0.10144 -9.8768,-4.85392 -11.5469,-6.70118 -1.7277,-1.91085 -1.6549,-2.00928 2.8418,-3.72656 2.2659,-0.86535 3.7059,-1.24368 4.9316,-1.19531 z m -44.1289,5.02148 c 0.8794,-0.0155 1.9164,0.34639 3.7305,1.07227 2.1666,0.86688 5.6166,1.61481 7.668,1.66211 3.5516,0.0819 3.5985,0.12527 0.9843,0.91211 -1.5099,0.45447 -4.4444,2.17136 -6.5214,3.8164 l -3.7754,2.99219 -3.7285,-3.41797 c -2.0505,-1.87918 -3.7286,-3.58277 -3.7286,-3.78711 0,-0.20434 1.1605,-1.13236 2.5801,-2.0625 1.1887,-0.77884 1.9117,-1.17199 2.791,-1.1875 z m -18.2754,1.62696 2.418,1.76172 c 1.3297,0.96805 2.2919,2.18163 2.1387,2.69726 -0.6475,2.17865 -2.5018,1.43329 -3.4903,-1.40234 z"
             style="fill:#000000" />
          <path
             style="fill:#007c00"
             d="m -1673.662,440.85284 c -6.0067,-1.8421 -9.3755,-3.454 -10.5928,-5.0684 -1.2887,-1.7091 -2.36,-2.1848 -3.8531,-1.7109 -1.745,0.5539 -2.5866,-0.2869 -5.388,-5.3827 -3.2088,-5.8368 -4.0297,-6.4356 -8.3747,-6.1088 -1.1091,0.083 -4.2576,-1.4418 -6.9968,-3.3893 -5.3494,-3.8033 -7.3411,-4.185 -12.4837,-2.3923 -2.7661,0.9643 -3.8448,0.8529 -6.7167,-0.6937 -2.7855,-1.5002 -3.9594,-1.6395 -6.3167,-0.7497 -2.535,0.9569 -3.2321,0.7809 -5.5998,-1.4134 -1.4874,-1.3785 -4.6541,-3.3421 -7.0372,-4.3636 -3.524,-1.5105 -4.3328,-2.3428 -4.3328,-4.4585 0,-5.7438 -3.4047,-8.3461 -7.8869,-6.0282 -3.8941,2.0136 -9.9988,0.5316 -12.6131,-3.0622 -4.3475,-5.9763 -8.7124,-10.2523 -12.1127,-11.8659 -1.9612,-0.9306 -4.4257,-2.5519 -5.4766,-3.6028 -1.0508,-1.0509 -3.1482,-1.9132 -4.6607,-1.9163 -5.7097,-0.012 -10.0938,-2.0094 -13.3041,-6.0627 -1.7456,-2.204 -4.91,-4.8931 -7.0321,-5.9757 -5.5697,-2.8414 -10.2667,-7.2641 -14.0544,-13.2336 -1.8225,-2.8723 -3.9023,-5.678 -4.6218,-6.2348 -0.7196,-0.5569 -1.896,-3.0028 -2.6142,-5.4354 -1.1505,-3.8965 -1.7692,-4.5529 -5.1982,-5.515 -4.5391,-1.2735 -8.3817,-6.9103 -8.4087,-12.3349 -0.011,-2.2551 -0.8407,-4.0617 -2.6233,-5.7137 l -2.6069,-2.41596 2.9352,-4.7863 c 1.799,-2.9336 3.7752,-4.9099 5.1052,-5.1056 1.3185,-0.194 2.4094,-1.2732 2.7801,-2.75 0.3355,-1.3369 1.2097,-2.4307 1.9426,-2.4307 2.325,0 2.4289,-1.55162 0.4521,-6.75408 -2.1424,-5.63838 -1.7441,-6.52786 3.5041,-7.8255 3.6352,-0.89882 10.4944,-5.08043 10.4944,-6.39778 0,-0.52375 -0.9381,-1.45433 -2.0846,-2.06795 -3.2164,-1.72137 -4.9243,-7.08095 -4.8349,-15.17257 0.1266,-11.45541 1.6271,-15.69164 6.7805,-19.14284 3.1144,-2.08571 6.1157,-3.10339 10.5,-3.56033 7.2864,-0.75942 8.639,-1.45565 8.639,-4.44684 0,-1.23742 0.6607,-3.12336 1.4682,-4.19098 0.8717,-1.15249 1.4811,-4.20859 1.5,-7.52215 0.028,-4.96888 0.3166,-5.7334 2.6277,-6.97028 1.4277,-0.76409 3.3424,-2.97763 4.2549,-4.91898 2.1615,-4.59861 10.187,-10.02972 14.8209,-10.02972 4.1067,0 10.5604,-4.73172 12.3515,-9.05598 0.6485,-1.56559 2.3065,-3.58522 3.6844,-4.48807 2.0287,-1.32926 2.3946,-2.19499 1.9235,-4.55083 -0.5096,-2.54776 -0.099,-3.22856 3.3007,-5.47863 3.0069,-1.98991 5.1435,-2.56935 9.4742,-2.56935 5.241,0 5.6312,-0.16803 6.2198,-2.67857 0.3454,-1.47321 1.8812,-4.02857 3.4128,-5.67857 1.5316,-1.65 4.0963,-5.25 5.6994,-8 l 2.9147,-5 5.9237,0.0653 c 3.258,0.0359 7.4565,0.71092 9.3299,1.5 2.9746,1.25283 3.4695,1.24921 3.9044,-0.0285 0.274,-0.80476 1.6368,-2.37976 3.0285,-3.5 1.3917,-1.12025 4.1781,-3.72431 6.192,-5.78681 2.0139,-2.0625 4.1815,-3.75 4.8169,-3.75 0.6354,0 2.7717,-2.25 4.7474,-5 3.1968,-4.44967 3.9988,-5 7.2869,-5 2.0321,0 5.4028,-0.87083 7.4905,-1.93517 4.5661,-2.32794 12.1426,-2.08365 16.1157,0.51963 3.4529,2.26242 10.4569,1.9942 15.5317,-0.59481 2.145,-1.09431 5.1958,-1.98965 6.7794,-1.98965 2.1398,0 3.1875,-0.6764 4.0793,-2.63374 1.1573,-2.53998 1.4309,-2.6152 7.6859,-2.11312 5.5112,0.44239 6.6281,0.25478 7.4327,-1.24854 1.5469,-2.89046 9.3433,-3.57133 13.2789,-1.15966 2.926,1.79309 4.1927,1.90128 13.7235,1.17216 7.41,-0.56687 12.6037,-1.59344 17.6485,-3.48838 7.0645,-2.65362 7.1857,-2.66368 10.3313,-0.85693 8.1281,4.66864 9.7592,5.3252 13.2332,5.32666 2.0422,8.5e-4 6.0529,0.92385 8.9127,2.0511 3.0819,1.21474 6.8646,1.92754 9.2871,1.75 3.7314,-0.27347 4.1125,-0.56072 4.3777,-3.29955 0.5702,-5.89007 2.3415,-8.53319 7.4555,-11.12463 2.7261,-1.38141 5.6653,-2.23967 6.5316,-1.90724 0.8663,0.33242 5.5221,3.10663 10.3463,6.16489 8.074,5.1184 9.0941,5.50594 12.8314,4.87454 3.5192,-0.59457 4.6916,-0.26345 8.8024,2.48606 l 4.7423,3.17199 11,-0.64735 c 11.9531,-0.70344 16.5529,0.24298 22.4804,4.62531 l 3.0549,2.25862 5.4347,-1.84732 c 4.884,-1.66011 5.6676,-1.69538 7.7324,-0.348 1.2637,0.82462 4.5476,1.72299 7.2976,1.99636 6.036,0.60003 11.7151,4.08363 13.8673,8.50629 1.5666,3.21952 8.1477,7.29048 11.7856,7.29048 0.9775,0 3.8845,0.71543 6.46,1.58985 3.8477,1.3063 5.1004,1.36636 7.0243,0.33676 4.7316,-2.53228 11.6339,3.45846 13.3182,11.55923 0.794,3.81861 6.1353,7.51416 10.8606,7.51416 1.9361,0 6.2738,-0.47952 9.6393,-1.06559 5.4119,-0.94244 6.779,-0.81868 11.8293,1.07086 3.1406,1.17505 8.2988,4.27898 11.4628,6.89762 3.1639,2.61864 7.2337,5.61972 9.0438,6.66906 1.8101,1.04935 3.5364,2.88494 3.8361,4.07911 0.713,2.84088 -2.7925,10.67078 -6.185,13.81486 -3.1136,2.88558 -2.6736,5.53408 0.9194,5.53408 2.4348,0 3.6383,1.63487 3.6383,4.94224 0,0.97827 1.1842,3.52361 2.6315,5.65632 l 2.6314,3.87765 -2.8699,5.30548 c -3.2182,5.94914 -2.4941,7.58854 2.8771,6.5143 2.0222,-0.40445 3.7144,0.0558 5.7566,1.56558 1.5908,1.17614 3.6146,2.13843 4.4975,2.13843 0.8828,0 3.7135,0.86134 6.2905,1.91409 2.5769,1.05274 6.225,2.18192 8.1068,2.50928 1.8818,0.32736 5.8572,2.43424 8.8343,4.68196 4.5218,3.41401 5.3162,4.47192 4.8256,6.4265 -0.4466,1.77949 0.3713,3.44722 3.4157,6.96478 2.2016,2.54377 4.0029,4.98486 4.0029,5.42466 0,0.4398 -1.125,2.45742 -2.5,4.48359 -3.2357,4.76813 -3.1513,6.18428 0.5762,9.66625 1.6918,1.58044 2.7903,3.33599 2.4409,3.90121 -0.3493,0.56522 -2.8671,1.02768 -5.5951,1.02768 -4.8904,0 -4.9516,0.0386 -4.3575,2.75 1.0731,4.89752 1.3362,5.25 3.9188,5.25 1.7994,0 3.1273,0.95317 4.5277,3.25 2.7323,4.4813 2.5364,5.31641 -1.7405,7.41761 -2.6914,1.3224 -3.9063,2.6674 -4.3648,4.8324 -0.3495,1.65 -1.8212,5.3153 -3.2705,8.1452 -2.9929,5.84376 -3.1046,6.48526 -1.4219,8.16796 0.6672,0.6673 1.3106,3.8991 1.4297,7.1818 0.2476,6.825 0.7391,8.005 3.3345,8.005 1.0539,0 2.8169,1.5492 4.0696,3.5761 l 2.2102,3.5761 -3.6287,3.7161 c -1.9957,2.0438 -3.6286,4.28 -3.6286,4.9693 0,0.6893 -1.2375,2.4695 -2.75,3.9559 -1.5125,1.4864 -3.2334,4.0335 -3.8243,5.6602 -0.756,2.0815 -2.0139,3.2012 -4.2463,3.7796 -1.7446,0.4521 -4.7603,1.8998 -6.7015,3.2171 -2.8945,1.9643 -4.0875,2.2352 -6.6314,1.5056 -4.0145,-1.1514 -6.6168,0.2502 -8.4033,4.5257 -0.7631,1.8264 -2.9156,4.2652 -4.7833,5.4195 -3.5635,2.2024 -9.1073,2.8019 -10.1599,1.0988 -1.17,-1.8932 -2.2788,-0.9924 -2.9082,2.3627 -0.347,1.8495 -1.5221,4.1693 -2.6113,5.155 -1.0998,0.9953 -1.9805,3.0717 -1.9805,4.6694 0,1.5824 -0.6974,4.5464 -1.5498,6.5865 -1.8064,4.3232 -8.6104,11.2264 -11.0651,11.2264 -0.9308,0 -3.4277,1.8798 -5.5488,4.1774 l -3.8565,4.1774 -2.8985,-2.7769 c -2.3506,-2.2521 -3.4648,-2.6526 -5.8947,-2.1189 -1.7486,0.3841 -3.2686,0.2173 -3.6504,-0.4004 -1.1868,-1.9204 -3.7396,-1.1076 -7.6678,2.4414 -2.1308,1.925 -4.7276,3.5 -5.7708,3.5 -1.0432,0 -4.2923,-1.8 -7.2202,-4 -2.928,-2.2 -6.0332,-4 -6.9005,-4 -2.1172,0 -3.9769,-1.9837 -3.9769,-4.2421 0,-1.6888 -0.3539,-1.6353 -4.25,0.6424 -2.3375,1.3666 -7.0247,2.9295 -10.416,3.4731 -3.3914,0.5437 -7.4471,1.6509 -9.0128,2.4605 -8.1106,4.1942 -26.7108,4.7358 -33.9324,0.9881 -2.1124,-1.0962 -5.2364,-3.9796 -6.9423,-6.4075 -3.3796,-4.8101 -5.9686,-5.7693 -10.5029,-3.8911 -2.444,1.0123 -3.3513,0.8901 -6.155,-0.8294 -1.8087,-1.1092 -4.9177,-2.0116 -6.9089,-2.0054 -4.7827,0.015 -11.4612,-4.448 -13.9467,-9.3201 -2.5059,-4.9118 -8.8941,-7.8685 -17.0011,-7.8685 -3.1976,0 -6.0611,0.4002 -6.3634,0.8892 -0.3023,0.4891 -1.7913,1.1964 -3.309,1.5717 -1.5177,0.3754 -3.9309,1.9557 -5.3626,3.5117 -2.2515,2.4471 -3.6184,2.9244 -10.1191,3.5335 -8.8341,0.8279 -11.1435,-0.053 -13.2284,-5.0422 -1.1027,-2.6392 -2.0411,-3.4639 -3.9416,-3.4639 -1.4521,0 -3.1543,-0.9402 -4.0737,-2.25 -1.545,-2.201 -1.646,-2.2119 -4.6378,-0.5 -1.6821,0.9625 -4.5341,1.75 -6.3378,1.75 -1.8489,0 -4.8863,1.0905 -6.9633,2.5 -4.454,3.0226 -5.7404,3.102 -8.0952,0.5 -2.171,-2.399 -4.78,-2.5724 -6.5533,-0.4357 -0.8195,0.9874 -2.1485,1.3509 -3.6037,0.9856 -2.8903,-0.7254 -9.9711,5.3315 -12.0564,10.313 -1.299,3.1031 -1.6541,3.3068 -4.5972,2.6374 -5.6043,-1.2748 -8.0067,-0.6032 -12.1586,3.3993 -2.2169,2.1371 -5.0553,4.1931 -6.3074,4.5689 -3.7822,1.135 -5.4648,4.7387 -4.6742,10.011 l 0.6918,4.6129 -6.4538,6.4538 c -3.5496,3.5496 -6.9788,6.4538 -7.6205,6.4538 -0.6417,0 -2.0667,-0.9 -3.1667,-2 -2.6672,-2.6672 -3.2372,-2.5222 -5,1.2716 -0.8742,1.8815 -2.3344,3.3123 -3.5,3.4295 -1.1,0.1106 -5.9635,-1.0144 -10.8077,-2.5 z m 250.9281,-69.3958 c 0.6785,-1.098 -3.4265,-5.8053 -5.0625,-5.8053 -0.6015,0 -2.849,-1.1928 -4.9945,-2.6507 l -3.9009,-2.6507 -1.8711,2.3108 c -2.4334,3.005 -1.2528,4.1893 5.4945,5.5117 3.3789,0.6623 5.245,1.5409 5.3097,2.5 0.055,0.8134 0.1683,1.7743 0.2521,2.1353 0.2104,0.9065 4.049,-0.1802 4.7727,-1.3511 z m 6.3082,-27.7671 c 0.9884,-0.529 2.3682,-2.3404 3.0662,-4.0255 1.0938,-2.6407 1.0337,-3.3238 -0.4352,-4.9468 -2.2351,-2.4699 -7.1142,-4.4508 -9.0926,-3.6916 -0.8629,0.3311 -2.4513,2.5966 -3.5296,5.0344 -1.0784,2.4378 -2.4851,4.6072 -3.1261,4.8209 -0.6409,0.2136 -0.8256,0.9382 -0.4103,1.6101 0.4861,0.7865 1.9331,1.0007 4.0625,0.6012 1.9704,-0.3697 3.5798,-0.18 3.981,0.4693 0.8324,1.3467 3.1077,1.3998 5.4841,0.128 z m -44.432,-45.47226 c 4.2233,-1.76461 5.4711,-5.44007 3.0839,-9.08346 -1.5646,-2.38782 -1.7739,-2.43376 -4.5495,-0.99843 -3.7531,1.9408 -6.031,5.24127 -6.031,8.7385 0,3.25228 2.0491,3.61948 7.4966,1.34339 z m 103.0026,-16.56803 c -2.2706,-5.79382 -6.7255,-11.99787 -8.6154,-11.99787 -0.4081,0 -1.2767,2.57595 -1.9303,5.72433 -0.6536,3.14838 -1.3911,6.25243 -1.6387,6.89788 -0.5159,1.3442 3.6013,5.54767 4.7428,4.84221 0.4151,-0.25652 0.5194,-1.36596 0.2319,-2.46542 -0.3678,-1.40654 -0.03,-1.999 1.1394,-1.999 1.9398,0 6.5711,4.33769 6.5711,6.15455 0,0.83272 0.3324,0.91309 1.003,0.24253 0.6705,-0.67057 0.1722,-3.12259 -1.5038,-7.39921 z m -180.0427,-28.04949 c 1.399,-4.42839 2.5435,-8.47839 2.5435,-9 0,-1.40414 -4.7537,-1.15132 -5.6715,0.30162 -0.8253,1.30666 -1.3497,14.6969 -0.6266,16 0.818,1.47408 1.2443,0.64505 3.7546,-7.30162 z m -62.6434,-68.69838 c -0.4066,-2.13338 -4.8131,-3.03628 -4.8131,-0.98622 0,1.91278 0.9751,2.73622 3.24,2.73622 1.2763,0 1.7964,-0.5786 1.5731,-1.75 z m 91.1128,-16 c 0.081,-1.3719 -0.7142,-1.5423 -5.9259,-1.26929 -5.5155,0.28892 -5.8269,1.58808 -1.4543,6.0661 l 3.9487,4.04382 1.6787,-3.79532 c 0.9232,-2.08742 1.712,-4.35781 1.7528,-5.04531 z m 91.5027,0.17857 c 1.8591,-1.85909 1.875,-1.99275 0.5363,-4.49431 -1.6141,-3.01595 -6.706,-2.59645 -8.1967,0.67529 -1.0207,2.2401 -0.9198,2.80639 0.7125,4 2.4973,1.82606 5.0062,1.76071 6.9479,-0.18098 z m -62.2685,-7.15505 c 7.6963,-4.15691 8.8227,-6.84123 2.8037,-6.68137 -3.844,0.10209 -15.9638,7.05264 -15.9638,9.15501 0,2.42041 6.287,1.23868 13.1601,-2.47364 z m 44.8399,0.22648 c 0,-0.83333 -0.8889,-1.5 -2,-1.5 -1.9922,0 -2.6011,1.06554 -1.3333,2.33333 1.2179,1.21793 3.3333,0.68908 3.3333,-0.83333 z m -192.8287,-12.15499 c 1.0058,-0.91024 1.8287,-2.48524 1.8287,-3.5 0,-1.52344 -0.7942,-1.84501 -4.5571,-1.84501 -5.4845,0 -13.4429,1.8749 -13.4429,3.16699 0,1.50267 6.1773,3.7515 10.4213,3.79387 2.2936,0.0229 4.6803,-0.64783 5.75,-1.61585 z"
             id="path833"
             inkscape:connector-curvature="0" />
        </g>
      </g>
      <ellipse
         ry="344.77768"
         rx="305.2218"
         cy="-116.19868"
         cx="799.13593"
         id="path1405"
         style="opacity:1;fill:#ffffff;fill-opacity:0;stroke-width:2.3812499;stroke-opacity:0" />
    </g>
    <g
       id="g1470"
       transform="translate(-74.235275,-28.985548)">
      <rect
         transform="scale(-1)"
         y="-325.98553"
         x="-150.43527"
         height="914.39996"
         width="76.199997"
         id="rect1458"
         style="opacity:1;fill:#ffff57;fill-opacity:1;stroke-width:1.25275505;stroke-opacity:0" />
      <rect
         transform="scale(-1)"
         y="-325.9856"
         x="-213.93527"
         height="914.40002"
         width="63.5"
         id="rect1460"
         style="opacity:1;fill:#007ceb;fill-opacity:1;stroke-width:1.75358164;stroke-opacity:0" />
    </g>
  </g>
</svg>
